<svg width="22" height="46" viewBox="0 0 22 46" fill="none" xmlns="http://www.w3.org/2000/svg">
<path fill-rule="evenodd" clip-rule="evenodd" d="M12.4781 34.0342C12.1615 31.223 11.8387 28.4125 11.5391 25.5995C11.5145 25.3671 11.6245 25.1099 11.7095 24.8778C13.709 19.4156 15.714 13.9551 17.7179 8.49417C17.8035 8.2611 17.8891 8.02774 18.0037 7.71549C17.7518 7.62308 17.5429 7.54644 17.334 7.46967C14.7708 6.52861 12.2113 5.57685 9.64052 4.65748C9.23869 4.5139 9.09697 4.31232 9.05986 3.90275C8.9447 2.63394 8.78635 1.36903 8.63321 0C8.90598 0.100095 9.09312 0.168808 9.28045 0.2375C12.5733 1.44593 15.867 2.65209 19.1589 3.86342C21.5264 4.73464 22.5611 6.93669 21.6997 9.28661C18.7297 17.3903 15.7545 25.492 12.7812 33.5945C12.725 33.7474 12.669 33.9004 12.6129 34.0531C12.568 34.0468 12.523 34.0405 12.4781 34.0342" fill="white"/>
<path fill-rule="evenodd" clip-rule="evenodd" d="M0 44.0794C3.2153 43.5222 6.36022 43.5809 9.36399 42.7269C8.92441 44.9335 6.53454 46.3622 4.32933 45.6557C2.91493 45.2027 1.5349 44.6427 0 44.0794Z" fill="white"/>
</svg>
