<svg width="335" height="436" viewBox="0 0 335 436" fill="none" xmlns="http://www.w3.org/2000/svg">
<mask id="mask0_0_3982" style="mask-type:luminance" maskUnits="userSpaceOnUse" x="0" y="-5" width="335" height="441">
<path fill-rule="evenodd" clip-rule="evenodd" d="M0 -4.19202H335V435.808H0V-4.19202Z" fill="white"/>
</mask>
<g mask="url(#mask0_0_3982)">
<path d="M3.146 1.07798V10.808H1.55V1.07798H3.146ZM8.34613 6.91598C8.34613 6.14132 8.50479 5.45532 8.82213 4.85798C9.14879 4.26065 9.58746 3.79865 10.1381 3.47198C10.6981 3.13598 11.3141 2.96798 11.9861 2.96798C12.5928 2.96798 13.1201 3.08932 13.5681 3.33198C14.0255 3.56532 14.3895 3.85932 14.6601 4.21398V3.09398H16.2701V10.808H14.6601V9.65998C14.3895 10.024 14.0208 10.3273 13.5541 10.57C13.0875 10.8127 12.5555 10.934 11.9581 10.934C11.2955 10.934 10.6888 10.766 10.1381 10.43C9.58746 10.0847 9.14879 9.60865 8.82213 9.00198C8.50479 8.38598 8.34613 7.69065 8.34613 6.91598ZM14.6601 6.94398C14.6601 6.41198 14.5481 5.94998 14.3241 5.55798C14.1095 5.16598 13.8248 4.86732 13.4701 4.66198C13.1155 4.45665 12.7328 4.35398 12.3221 4.35398C11.9115 4.35398 11.5288 4.45665 11.1741 4.66198C10.8195 4.85798 10.5301 5.15198 10.3061 5.54398C10.0915 5.92665 9.98413 6.38398 9.98413 6.91598C9.98413 7.44798 10.0915 7.91465 10.3061 8.31598C10.5301 8.71732 10.8195 9.02532 11.1741 9.23998C11.5381 9.44532 11.9208 9.54798 12.3221 9.54798C12.7328 9.54798 13.1155 9.44532 13.4701 9.23998C13.8248 9.03465 14.1095 8.73598 14.3241 8.34398C14.5481 7.94265 14.6601 7.47598 14.6601 6.94398ZM27.7044 2.96798C28.3111 2.96798 28.8524 3.09398 29.3284 3.34598C29.8137 3.59798 30.1917 3.97132 30.4624 4.46598C30.7424 4.96065 30.8824 5.55798 30.8824 6.25798V10.808H29.3004V6.49598C29.3004 5.80532 29.1277 5.27798 28.7824 4.91398C28.4371 4.54065 27.9657 4.35398 27.3684 4.35398C26.7711 4.35398 26.2951 4.54065 25.9404 4.91398C25.5951 5.27798 25.4224 5.80532 25.4224 6.49598V10.808H23.8404V6.49598C23.8404 5.80532 23.6677 5.27798 23.3224 4.91398C22.9771 4.54065 22.5057 4.35398 21.9084 4.35398C21.3111 4.35398 20.8351 4.54065 20.4804 4.91398C20.1351 5.27798 19.9624 5.80532 19.9624 6.49598V10.808H18.3664V3.09398H19.9624V3.97598C20.2237 3.65865 20.5551 3.41132 20.9564 3.23398C21.3577 3.05665 21.7871 2.96798 22.2444 2.96798C22.8604 2.96798 23.4111 3.09865 23.8964 3.35998C24.3817 3.62132 24.7551 3.99932 25.0164 4.49398C25.2497 4.02732 25.6137 3.65865 26.1084 3.38798C26.6031 3.10798 27.1351 2.96798 27.7044 2.96798ZM38.146 0.447983V10.808H36.55V0.447983H38.146ZM43.5874 10.934C42.8594 10.934 42.2014 10.7707 41.6134 10.444C41.0254 10.108 40.5634 9.64132 40.2274 9.04398C39.8914 8.43732 39.7234 7.73732 39.7234 6.94398C39.7234 6.15998 39.8961 5.46465 40.2414 4.85798C40.5867 4.25132 41.0581 3.78465 41.6554 3.45798C42.2527 3.13132 42.9201 2.96798 43.6574 2.96798C44.3947 2.96798 45.0621 3.13132 45.6594 3.45798C46.2567 3.78465 46.7281 4.25132 47.0734 4.85798C47.4187 5.46465 47.5914 6.15998 47.5914 6.94398C47.5914 7.72798 47.4141 8.42332 47.0594 9.02998C46.7047 9.63665 46.2194 10.108 45.6034 10.444C44.9967 10.7707 44.3247 10.934 43.5874 10.934ZM43.5874 9.54798C43.9981 9.54798 44.3807 9.44998 44.7354 9.25398C45.0994 9.05798 45.3934 8.76398 45.6174 8.37198C45.8414 7.97998 45.9534 7.50398 45.9534 6.94398C45.9534 6.38398 45.8461 5.91265 45.6314 5.52998C45.4167 5.13798 45.1321 4.84398 44.7774 4.64798C44.4227 4.45198 44.0401 4.35398 43.6294 4.35398C43.2187 4.35398 42.8361 4.45198 42.4814 4.64798C42.1361 4.84398 41.8607 5.13798 41.6554 5.52998C41.4501 5.91265 41.3474 6.38398 41.3474 6.94398C41.3474 7.77465 41.5574 8.41865 41.9774 8.87598C42.4067 9.32398 42.9434 9.54798 43.5874 9.54798ZM52.5151 10.934C51.7871 10.934 51.1291 10.7707 50.5411 10.444C49.9531 10.108 49.4911 9.64132 49.1551 9.04398C48.8191 8.43732 48.6511 7.73732 48.6511 6.94398C48.6511 6.15998 48.8238 5.46465 49.1691 4.85798C49.5145 4.25132 49.9858 3.78465 50.5831 3.45798C51.1805 3.13132 51.8478 2.96798 52.5851 2.96798C53.3225 2.96798 53.9898 3.13132 54.5871 3.45798C55.1845 3.78465 55.6558 4.25132 56.0011 4.85798C56.3465 5.46465 56.5191 6.15998 56.5191 6.94398C56.5191 7.72798 56.3418 8.42332 55.9871 9.02998C55.6325 9.63665 55.1471 10.108 54.5311 10.444C53.9245 10.7707 53.2525 10.934 52.5151 10.934ZM52.5151 9.54798C52.9258 9.54798 53.3085 9.44998 53.6631 9.25398C54.0271 9.05798 54.3211 8.76398 54.5451 8.37198C54.7691 7.97998 54.8811 7.50398 54.8811 6.94398C54.8811 6.38398 54.7738 5.91265 54.5591 5.52998C54.3445 5.13798 54.0598 4.84398 53.7051 4.64798C53.3505 4.45198 52.9678 4.35398 52.5571 4.35398C52.1465 4.35398 51.7638 4.45198 51.4091 4.64798C51.0638 4.84398 50.7885 5.13798 50.5831 5.52998C50.3778 5.91265 50.2751 6.38398 50.2751 6.94398C50.2751 7.77465 50.4851 8.41865 50.9051 8.87598C51.3345 9.32398 51.8711 9.54798 52.5151 9.54798ZM61.1489 6.95798L64.7049 10.808H62.5489L59.6929 7.48998V10.808H58.0969V0.447983H59.6929V6.46798L62.4929 3.09398H64.7049L61.1489 6.95798ZM66.6608 2.07198C66.3715 2.07198 66.1288 1.97398 65.9328 1.77798C65.7368 1.58198 65.6388 1.33932 65.6388 1.04998C65.6388 0.76065 65.7368 0.517983 65.9328 0.321983C66.1288 0.125983 66.3715 0.0279828 66.6608 0.0279828C66.9408 0.0279828 67.1788 0.125983 67.3748 0.321983C67.5708 0.517983 67.6688 0.76065 67.6688 1.04998C67.6688 1.33932 67.5708 1.58198 67.3748 1.77798C67.1788 1.97398 66.9408 2.07198 66.6608 2.07198ZM67.4448 3.09398V10.808H65.8488V3.09398H67.4448ZM73.4322 2.96798C74.0389 2.96798 74.5802 3.09398 75.0562 3.34598C75.5416 3.59798 75.9196 3.97132 76.1902 4.46598C76.4609 4.96065 76.5962 5.55798 76.5962 6.25798V10.808H75.0142V6.49598C75.0142 5.80532 74.8416 5.27798 74.4962 4.91398C74.1509 4.54065 73.6796 4.35398 73.0822 4.35398C72.4849 4.35398 72.0089 4.54065 71.6542 4.91398C71.3089 5.27798 71.1362 5.80532 71.1362 6.49598V10.808H69.5402V3.09398H71.1362V3.97598C71.3976 3.65865 71.7289 3.41132 72.1302 3.23398C72.5409 3.05665 72.9749 2.96798 73.4322 2.96798ZM81.74 2.96798C82.3374 2.96798 82.8647 3.08932 83.322 3.33198C83.7887 3.56532 84.1527 3.85932 84.414 4.21398V3.09398H86.024V10.934C86.024 11.6433 85.8747 12.2733 85.576 12.824C85.2774 13.384 84.8434 13.8227 84.274 14.14C83.714 14.4573 83.042 14.616 82.258 14.616C81.2127 14.616 80.3447 14.3687 79.654 13.874C78.9634 13.3887 78.5714 12.726 78.478 11.886H80.06C80.1814 12.2873 80.438 12.6093 80.83 12.852C81.2314 13.104 81.7074 13.23 82.258 13.23C82.902 13.23 83.42 13.034 83.812 12.642C84.2134 12.25 84.414 11.6807 84.414 10.934V9.64598C84.1434 10.01 83.7747 10.318 83.308 10.57C82.8507 10.8127 82.328 10.934 81.74 10.934C81.068 10.934 80.452 10.766 79.892 10.43C79.3414 10.0847 78.9027 9.60865 78.576 9.00198C78.2587 8.38598 78.1 7.69065 78.1 6.91598C78.1 6.14132 78.2587 5.45532 78.576 4.85798C78.9027 4.26065 79.3414 3.79865 79.892 3.47198C80.452 3.13598 81.068 2.96798 81.74 2.96798ZM84.414 6.94398C84.414 6.41198 84.302 5.94998 84.078 5.55798C83.8634 5.16598 83.5787 4.86732 83.224 4.66198C82.8694 4.45665 82.4867 4.35398 82.076 4.35398C81.6654 4.35398 81.2827 4.45665 80.928 4.66198C80.5734 4.85798 80.284 5.15198 80.06 5.54398C79.8454 5.92665 79.738 6.38398 79.738 6.91598C79.738 7.44798 79.8454 7.91465 80.06 8.31598C80.284 8.71732 80.5734 9.02532 80.928 9.23998C81.292 9.44532 81.6747 9.54798 82.076 9.54798C82.4867 9.54798 82.8694 9.44532 83.224 9.23998C83.5787 9.03465 83.8634 8.73598 84.078 8.34398C84.302 7.94265 84.414 7.47598 84.414 6.94398ZM94.991 4.39598H93.563V10.808H91.953V4.39598H91.043V3.09398H91.953V2.54798C91.953 1.66132 92.1864 1.01732 92.653 0.615983C93.129 0.205316 93.871 -1.68085e-05 94.879 -1.68085e-05V1.32998C94.3937 1.32998 94.053 1.42332 93.857 1.60998C93.661 1.78732 93.563 2.09998 93.563 2.54798V3.09398H94.991V4.39598ZM99.7515 10.934C99.0235 10.934 98.3655 10.7707 97.7775 10.444C97.1895 10.108 96.7275 9.64132 96.3915 9.04398C96.0555 8.43732 95.8875 7.73732 95.8875 6.94398C95.8875 6.15998 96.0601 5.46465 96.4055 4.85798C96.7508 4.25132 97.2221 3.78465 97.8195 3.45798C98.4168 3.13132 99.0841 2.96798 99.8215 2.96798C100.559 2.96798 101.226 3.13132 101.823 3.45798C102.421 3.78465 102.892 4.25132 103.237 4.85798C103.583 5.46465 103.755 6.15998 103.755 6.94398C103.755 7.72798 103.578 8.42332 103.223 9.02998C102.869 9.63665 102.383 10.108 101.767 10.444C101.161 10.7707 100.489 10.934 99.7515 10.934ZM99.7515 9.54798C100.162 9.54798 100.545 9.44998 100.899 9.25398C101.263 9.05798 101.557 8.76398 101.781 8.37198C102.005 7.97998 102.117 7.50398 102.117 6.94398C102.117 6.38398 102.01 5.91265 101.795 5.52998C101.581 5.13798 101.296 4.84398 100.941 4.64798C100.587 4.45198 100.204 4.35398 99.7935 4.35398C99.3828 4.35398 99.0001 4.45198 98.6455 4.64798C98.3001 4.84398 98.0248 5.13798 97.8195 5.52998C97.6141 5.91265 97.5115 6.38398 97.5115 6.94398C97.5115 7.77465 97.7215 8.41865 98.1415 8.87598C98.5708 9.32398 99.1075 9.54798 99.7515 9.54798ZM106.929 4.21398C107.163 3.82198 107.471 3.51865 107.853 3.30398C108.245 3.07998 108.707 2.96798 109.239 2.96798V4.61998H108.833C108.208 4.61998 107.732 4.77865 107.405 5.09598C107.088 5.41332 106.929 5.96398 106.929 6.74798V10.808H105.333V3.09398H106.929V4.21398Z" fill="#2E3740"/>
<path fill-rule="evenodd" clip-rule="evenodd" d="M0 30.808H335H0Z" stroke="#CBDCF6" stroke-linecap="round"/>
<path d="M312.503 2.03598V11.808H310.543V5.45198L307.925 11.808H306.441L303.809 5.45198V11.808H301.849V2.03598H304.075L307.183 9.30198L310.291 2.03598H312.503ZM313.937 7.90198C313.937 7.11798 314.091 6.42265 314.399 5.81598C314.716 5.20932 315.141 4.74265 315.673 4.41598C316.214 4.08932 316.816 3.92598 317.479 3.92598C318.057 3.92598 318.561 4.04265 318.991 4.27598C319.429 4.50932 319.779 4.80332 320.041 5.15798V4.05198H322.015V11.808H320.041V10.674C319.789 11.038 319.439 11.3413 318.991 11.584C318.552 11.8173 318.043 11.934 317.465 11.934C316.811 11.934 316.214 11.766 315.673 11.43C315.141 11.094 314.716 10.6227 314.399 10.016C314.091 9.39998 313.937 8.69532 313.937 7.90198ZM320.041 7.92998C320.041 7.45398 319.947 7.04798 319.761 6.71198C319.574 6.36665 319.322 6.10532 319.005 5.92798C318.687 5.74132 318.347 5.64798 317.983 5.64798C317.619 5.64798 317.283 5.73665 316.975 5.91398C316.667 6.09132 316.415 6.35265 316.219 6.69798C316.032 7.03398 315.939 7.43532 315.939 7.90198C315.939 8.36865 316.032 8.77932 316.219 9.13398C316.415 9.47932 316.667 9.74532 316.975 9.93198C317.292 10.1186 317.628 10.212 317.983 10.212C318.347 10.212 318.687 10.1233 319.005 9.94598C319.322 9.75932 319.574 9.49798 319.761 9.16198C319.947 8.81665 320.041 8.40598 320.041 7.92998ZM325.889 1.44798V11.808H323.929V1.44798H325.889ZM335.035 7.76198C335.035 8.04198 335.017 8.29398 334.979 8.51798H329.309C329.356 9.07798 329.552 9.51665 329.897 9.83398C330.243 10.1513 330.667 10.31 331.171 10.31C331.899 10.31 332.417 9.99732 332.725 9.37198H334.839C334.615 10.1186 334.186 10.7347 333.551 11.22C332.917 11.696 332.137 11.934 331.213 11.934C330.467 11.934 329.795 11.7707 329.197 11.444C328.609 11.108 328.147 10.6367 327.811 10.03C327.485 9.42332 327.321 8.72332 327.321 7.92998C327.321 7.12732 327.485 6.42265 327.811 5.81598C328.138 5.20932 328.595 4.74265 329.183 4.41598C329.771 4.08932 330.448 3.92598 331.213 3.92598C331.951 3.92598 332.609 4.08465 333.187 4.40198C333.775 4.71932 334.228 5.17198 334.545 5.75998C334.872 6.33865 335.035 7.00598 335.035 7.76198ZM333.005 7.20198C332.996 6.69798 332.814 6.29665 332.459 5.99798C332.105 5.68998 331.671 5.53598 331.157 5.53598C330.672 5.53598 330.261 5.68532 329.925 5.98398C329.599 6.27332 329.398 6.67932 329.323 7.20198H333.005Z" fill="#1E212D"/>
<path d="M7.416 59.82H3.342L2.642 61.808H0.976L4.462 52.064H6.31L9.796 61.808H8.116L7.416 59.82ZM6.968 58.518L5.386 53.996L3.79 58.518H6.968ZM14.4197 53.968C15.0171 53.968 15.5444 54.0893 16.0017 54.332C16.4684 54.5653 16.8324 54.8593 17.0937 55.214V54.094H18.7037V61.934C18.7037 62.6433 18.5544 63.2733 18.2557 63.824C17.9571 64.384 17.5231 64.8227 16.9537 65.14C16.3937 65.4573 15.7217 65.616 14.9377 65.616C13.8924 65.616 13.0244 65.3687 12.3337 64.874C11.6431 64.3887 11.2511 63.726 11.1577 62.886H12.7397C12.8611 63.2873 13.1177 63.6093 13.5097 63.852C13.9111 64.104 14.3871 64.23 14.9377 64.23C15.5817 64.23 16.0997 64.034 16.4917 63.642C16.8931 63.25 17.0937 62.6807 17.0937 61.934V60.646C16.8231 61.01 16.4544 61.318 15.9877 61.57C15.5304 61.8127 15.0077 61.934 14.4197 61.934C13.7477 61.934 13.1317 61.766 12.5717 61.43C12.0211 61.0847 11.5824 60.6086 11.2557 60.002C10.9384 59.386 10.7797 58.6906 10.7797 57.916C10.7797 57.1413 10.9384 56.4553 11.2557 55.858C11.5824 55.2606 12.0211 54.7986 12.5717 54.472C13.1317 54.136 13.7477 53.968 14.4197 53.968ZM17.0937 57.944C17.0937 57.412 16.9817 56.95 16.7577 56.558C16.5431 56.166 16.2584 55.8673 15.9037 55.662C15.5491 55.4566 15.1664 55.354 14.7557 55.354C14.3451 55.354 13.9624 55.4566 13.6077 55.662C13.2531 55.858 12.9637 56.152 12.7397 56.544C12.5251 56.9266 12.4177 57.384 12.4177 57.916C12.4177 58.448 12.5251 58.9146 12.7397 59.316C12.9637 59.7173 13.2531 60.0253 13.6077 60.24C13.9717 60.4453 14.3544 60.548 14.7557 60.548C15.1664 60.548 15.5491 60.4453 15.9037 60.24C16.2584 60.0347 16.5431 59.736 16.7577 59.344C16.9817 58.9426 17.0937 58.476 17.0937 57.944ZM27.87 57.762C27.87 58.0513 27.8513 58.3126 27.814 58.546H21.92C21.9667 59.162 22.1953 59.6566 22.606 60.03C23.0167 60.4033 23.5207 60.59 24.118 60.59C24.9767 60.59 25.5833 60.2306 25.938 59.512H27.66C27.4267 60.2213 27.002 60.8046 26.386 61.262C25.7793 61.71 25.0233 61.934 24.118 61.934C23.3807 61.934 22.718 61.7707 22.13 61.444C21.5513 61.108 21.094 60.6413 20.758 60.044C20.4313 59.4373 20.268 58.7373 20.268 57.944C20.268 57.1506 20.4267 56.4553 20.744 55.858C21.0707 55.2513 21.5233 54.7846 22.102 54.458C22.69 54.1313 23.362 53.968 24.118 53.968C24.846 53.968 25.4947 54.1266 26.064 54.444C26.6333 54.7613 27.0767 55.2093 27.394 55.788C27.7113 56.3573 27.87 57.0153 27.87 57.762ZM26.204 57.258C26.1947 56.67 25.9847 56.1986 25.574 55.844C25.1633 55.4893 24.6547 55.312 24.048 55.312C23.4973 55.312 23.026 55.4893 22.634 55.844C22.242 56.1893 22.0087 56.6606 21.934 57.258H26.204Z" fill="#2E3740"/>
<path fill-rule="evenodd" clip-rule="evenodd" d="M0 81.808H335H0Z" stroke="#CBDCF6" stroke-linecap="round"/>
<path d="M285.329 60.596C286.225 59.8493 286.939 59.2286 287.471 58.734C288.003 58.23 288.446 57.7073 288.801 57.166C289.155 56.6246 289.333 56.0926 289.333 55.57C289.333 55.094 289.221 54.7206 288.997 54.45C288.773 54.1793 288.427 54.044 287.961 54.044C287.494 54.044 287.135 54.2026 286.883 54.52C286.631 54.828 286.5 55.2526 286.491 55.794H284.587C284.624 54.674 284.955 53.8246 285.581 53.246C286.215 52.6673 287.018 52.378 287.989 52.378C289.053 52.378 289.869 52.6626 290.439 53.232C291.008 53.792 291.293 54.534 291.293 55.458C291.293 56.186 291.097 56.8813 290.705 57.544C290.313 58.2066 289.865 58.7853 289.361 59.28C288.857 59.7653 288.199 60.3533 287.387 61.044H291.517V62.668H284.601V61.212L285.329 60.596ZM292.514 54.408V52.602H295.888V62.808H293.872V54.408H292.514ZM303.666 56.662V60.414C303.666 60.6753 303.727 60.8666 303.848 60.988C303.979 61.1 304.193 61.156 304.492 61.156H305.402V62.808H304.17C302.518 62.808 301.692 62.0053 301.692 60.4V56.662H300.768V55.052H301.692V53.134H303.666V55.052H305.402V56.662H303.666ZM310.256 62.934C309.509 62.934 308.837 62.7707 308.24 62.444C307.642 62.108 307.171 61.6367 306.826 61.03C306.49 60.4233 306.322 59.7233 306.322 58.93C306.322 58.1366 306.494 57.4366 306.84 56.83C307.194 56.2233 307.675 55.7566 308.282 55.43C308.888 55.094 309.565 54.926 310.312 54.926C311.058 54.926 311.735 55.094 312.342 55.43C312.948 55.7566 313.424 56.2233 313.77 56.83C314.124 57.4366 314.302 58.1366 314.302 58.93C314.302 59.7233 314.12 60.4233 313.756 61.03C313.401 61.6367 312.916 62.108 312.3 62.444C311.693 62.7707 311.012 62.934 310.256 62.934ZM310.256 61.226C310.61 61.226 310.942 61.142 311.25 60.974C311.567 60.7966 311.819 60.5353 312.006 60.19C312.192 59.8446 312.286 59.4246 312.286 58.93C312.286 58.1926 312.09 57.628 311.698 57.236C311.315 56.8346 310.844 56.634 310.284 56.634C309.724 56.634 309.252 56.8346 308.87 57.236C308.496 57.628 308.31 58.1926 308.31 58.93C308.31 59.6673 308.492 60.2366 308.856 60.638C309.229 61.03 309.696 61.226 310.256 61.226ZM318.879 55.29C318.926 54.3566 319.253 53.638 319.859 53.134C320.475 52.6206 321.283 52.364 322.281 52.364C322.963 52.364 323.546 52.4853 324.031 52.728C324.517 52.9613 324.881 53.2833 325.123 53.694C325.375 54.0953 325.501 54.5526 325.501 55.066C325.501 55.654 325.347 56.1533 325.039 56.564C324.741 56.9653 324.381 57.236 323.961 57.376V57.432C324.503 57.6 324.923 57.8986 325.221 58.328C325.529 58.7573 325.683 59.308 325.683 59.98C325.683 60.54 325.553 61.0393 325.291 61.478C325.039 61.9167 324.661 62.262 324.157 62.514C323.663 62.7567 323.065 62.878 322.365 62.878C321.311 62.878 320.452 62.612 319.789 62.08C319.127 61.548 318.777 60.764 318.739 59.728H320.643C320.662 60.1853 320.816 60.554 321.105 60.834C321.404 61.1047 321.81 61.24 322.323 61.24C322.799 61.24 323.163 61.1093 323.415 60.848C323.677 60.5773 323.807 60.232 323.807 59.812C323.807 59.252 323.63 58.8506 323.275 58.608C322.921 58.3653 322.37 58.244 321.623 58.244H321.217V56.634H321.623C322.949 56.634 323.611 56.1906 323.611 55.304C323.611 54.9026 323.49 54.59 323.247 54.366C323.014 54.142 322.673 54.03 322.225 54.03C321.787 54.03 321.446 54.1513 321.203 54.394C320.97 54.6273 320.835 54.926 320.797 55.29H318.879ZM334.092 54.296H329.556V56.69C329.752 56.4473 330.032 56.2513 330.396 56.102C330.76 55.9433 331.148 55.864 331.558 55.864C332.305 55.864 332.916 56.0273 333.392 56.354C333.868 56.6806 334.214 57.1006 334.428 57.614C334.643 58.118 334.75 58.6593 334.75 59.238C334.75 60.3113 334.442 61.1747 333.826 61.828C333.22 62.4813 332.352 62.808 331.222 62.808C330.158 62.808 329.309 62.542 328.674 62.01C328.04 61.478 327.68 60.7826 327.596 59.924H329.5C329.584 60.2973 329.771 60.596 330.06 60.82C330.359 61.044 330.737 61.156 331.194 61.156C331.745 61.156 332.16 60.9833 332.44 60.638C332.72 60.2927 332.86 59.8353 332.86 59.266C332.86 58.6873 332.716 58.2486 332.426 57.95C332.146 57.642 331.731 57.488 331.18 57.488C330.788 57.488 330.462 57.586 330.2 57.782C329.939 57.978 329.752 58.2393 329.64 58.566H327.764V52.574H334.092V54.296Z" fill="#1E212D"/>
<path d="M9.32 103.078V112.808H7.724V108.552H3.146V112.808H1.55V103.078H3.146V107.25H7.724V103.078H9.32ZM18.4911 108.762C18.4911 109.051 18.4724 109.313 18.4351 109.546H12.5411C12.5878 110.162 12.8164 110.657 13.2271 111.03C13.6378 111.403 14.1418 111.59 14.7391 111.59C15.5978 111.59 16.2044 111.231 16.5591 110.512H18.2811C18.0478 111.221 17.6231 111.805 17.0071 112.262C16.4004 112.71 15.6444 112.934 14.7391 112.934C14.0018 112.934 13.3391 112.771 12.7511 112.444C12.1724 112.108 11.7151 111.641 11.3791 111.044C11.0524 110.437 10.8891 109.737 10.8891 108.944C10.8891 108.151 11.0478 107.455 11.3651 106.858C11.6918 106.251 12.1444 105.785 12.7231 105.458C13.3111 105.131 13.9831 104.968 14.7391 104.968C15.4671 104.968 16.1158 105.127 16.6851 105.444C17.2544 105.761 17.6978 106.209 18.0151 106.788C18.3324 107.357 18.4911 108.015 18.4911 108.762ZM16.8251 108.258C16.8158 107.67 16.6058 107.199 16.1951 106.844C15.7844 106.489 15.2758 106.312 14.6691 106.312C14.1184 106.312 13.6471 106.489 13.2551 106.844C12.8631 107.189 12.6298 107.661 12.5551 108.258H16.8251ZM20.8737 104.072C20.5844 104.072 20.3417 103.974 20.1457 103.778C19.9497 103.582 19.8517 103.339 19.8517 103.05C19.8517 102.761 19.9497 102.518 20.1457 102.322C20.3417 102.126 20.5844 102.028 20.8737 102.028C21.1537 102.028 21.3917 102.126 21.5877 102.322C21.7837 102.518 21.8817 102.761 21.8817 103.05C21.8817 103.339 21.7837 103.582 21.5877 103.778C21.3917 103.974 21.1537 104.072 20.8737 104.072ZM21.6577 105.094V112.808H20.0617V105.094H21.6577ZM26.8611 104.968C27.4585 104.968 27.9858 105.089 28.4431 105.332C28.9098 105.565 29.2738 105.859 29.5351 106.214V105.094H31.1451V112.934C31.1451 113.643 30.9958 114.273 30.6971 114.824C30.3985 115.384 29.9645 115.823 29.3951 116.14C28.8351 116.457 28.1631 116.616 27.3791 116.616C26.3338 116.616 25.4658 116.369 24.7751 115.874C24.0845 115.389 23.6925 114.726 23.5991 113.886H25.1811C25.3025 114.287 25.5591 114.609 25.9511 114.852C26.3525 115.104 26.8285 115.23 27.3791 115.23C28.0231 115.23 28.5411 115.034 28.9331 114.642C29.3345 114.25 29.5351 113.681 29.5351 112.934V111.646C29.2645 112.01 28.8958 112.318 28.4291 112.57C27.9718 112.813 27.4491 112.934 26.8611 112.934C26.1891 112.934 25.5731 112.766 25.0131 112.43C24.4625 112.085 24.0238 111.609 23.6971 111.002C23.3798 110.386 23.2211 109.691 23.2211 108.916C23.2211 108.141 23.3798 107.455 23.6971 106.858C24.0238 106.261 24.4625 105.799 25.0131 105.472C25.5731 105.136 26.1891 104.968 26.8611 104.968ZM29.5351 108.944C29.5351 108.412 29.4231 107.95 29.1991 107.558C28.9845 107.166 28.6998 106.867 28.3451 106.662C27.9905 106.457 27.6078 106.354 27.1971 106.354C26.7865 106.354 26.4038 106.457 26.0491 106.662C25.6945 106.858 25.4051 107.152 25.1811 107.544C24.9665 107.927 24.8591 108.384 24.8591 108.916C24.8591 109.448 24.9665 109.915 25.1811 110.316C25.4051 110.717 25.6945 111.025 26.0491 111.24C26.4131 111.445 26.7958 111.548 27.1971 111.548C27.6078 111.548 27.9905 111.445 28.3451 111.24C28.6998 111.035 28.9845 110.736 29.1991 110.344C29.4231 109.943 29.5351 109.476 29.5351 108.944ZM37.2314 104.968C37.8194 104.968 38.3421 105.094 38.7994 105.346C39.2661 105.598 39.6301 105.971 39.8914 106.466C40.1621 106.961 40.2974 107.558 40.2974 108.258V112.808H38.7154V108.496C38.7154 107.805 38.5427 107.278 38.1974 106.914C37.8521 106.541 37.3807 106.354 36.7834 106.354C36.1861 106.354 35.7101 106.541 35.3554 106.914C35.0101 107.278 34.8374 107.805 34.8374 108.496V112.808H33.2414V102.448H34.8374V105.99C35.1081 105.663 35.4487 105.411 35.8594 105.234C36.2794 105.057 36.7367 104.968 37.2314 104.968ZM44.1952 106.396V110.666C44.1952 110.955 44.2605 111.165 44.3912 111.296C44.5312 111.417 44.7645 111.478 45.0912 111.478H46.0712V112.808H44.8112C44.0925 112.808 43.5419 112.64 43.1592 112.304C42.7765 111.968 42.5852 111.422 42.5852 110.666V106.396H41.6752V105.094H42.5852V103.176H44.1952V105.094H46.0712V106.396H44.1952Z" fill="#2E3740"/>
<path fill-rule="evenodd" clip-rule="evenodd" d="M0 132.808H335H0Z" stroke="#CBDCF6" stroke-linecap="round"/>
<path d="M261.331 105.296H256.795V107.69C256.991 107.447 257.271 107.251 257.635 107.102C257.999 106.943 258.386 106.864 258.797 106.864C259.543 106.864 260.155 107.027 260.631 107.354C261.107 107.681 261.452 108.101 261.667 108.614C261.881 109.118 261.989 109.659 261.989 110.238C261.989 111.311 261.681 112.175 261.065 112.828C260.458 113.481 259.59 113.808 258.461 113.808C257.397 113.808 256.547 113.542 255.913 113.01C255.278 112.478 254.919 111.783 254.835 110.924H256.739C256.823 111.297 257.009 111.596 257.299 111.82C257.597 112.044 257.975 112.156 258.433 112.156C258.983 112.156 259.399 111.983 259.679 111.638C259.959 111.293 260.099 110.835 260.099 110.266C260.099 109.687 259.954 109.249 259.665 108.95C259.385 108.642 258.969 108.488 258.419 108.488C258.027 108.488 257.7 108.586 257.439 108.782C257.177 108.978 256.991 109.239 256.879 109.566H255.003V103.574H261.331V105.296ZM264.936 102.636L264.768 105.604H263.438L263.256 102.636H264.936ZM266.215 108.572C266.215 106.957 266.504 105.693 267.083 104.778C267.671 103.863 268.641 103.406 269.995 103.406C271.348 103.406 272.314 103.863 272.893 104.778C273.481 105.693 273.775 106.957 273.775 108.572C273.775 110.196 273.481 111.47 272.893 112.394C272.314 113.318 271.348 113.78 269.995 113.78C268.641 113.78 267.671 113.318 267.083 112.394C266.504 111.47 266.215 110.196 266.215 108.572ZM271.843 108.572C271.843 107.881 271.796 107.303 271.703 106.836C271.619 106.36 271.441 105.973 271.171 105.674C270.909 105.375 270.517 105.226 269.995 105.226C269.472 105.226 269.075 105.375 268.805 105.674C268.543 105.973 268.366 106.36 268.273 106.836C268.189 107.303 268.147 107.881 268.147 108.572C268.147 109.281 268.189 109.879 268.273 110.364C268.357 110.84 268.534 111.227 268.805 111.526C269.075 111.815 269.472 111.96 269.995 111.96C270.517 111.96 270.914 111.815 271.185 111.526C271.455 111.227 271.633 110.84 271.717 110.364C271.801 109.879 271.843 109.281 271.843 108.572ZM275.265 108.572C275.265 106.957 275.555 105.693 276.133 104.778C276.721 103.863 277.692 103.406 279.045 103.406C280.399 103.406 281.365 103.863 281.943 104.778C282.531 105.693 282.825 106.957 282.825 108.572C282.825 110.196 282.531 111.47 281.943 112.394C281.365 113.318 280.399 113.78 279.045 113.78C277.692 113.78 276.721 113.318 276.133 112.394C275.555 111.47 275.265 110.196 275.265 108.572ZM280.893 108.572C280.893 107.881 280.847 107.303 280.753 106.836C280.669 106.36 280.492 105.973 280.221 105.674C279.96 105.375 279.568 105.226 279.045 105.226C278.523 105.226 278.126 105.375 277.855 105.674C277.594 105.973 277.417 106.36 277.323 106.836C277.239 107.303 277.197 107.881 277.197 108.572C277.197 109.281 277.239 109.879 277.323 110.364C277.407 110.84 277.585 111.227 277.855 111.526C278.126 111.815 278.523 111.96 279.045 111.96C279.568 111.96 279.965 111.815 280.235 111.526C280.506 111.227 280.683 110.84 280.767 110.364C280.851 109.879 280.893 109.281 280.893 108.572ZM285.772 102.636L285.604 105.604H284.274L284.092 102.636H285.772ZM288.152 102.636L287.97 105.604H286.64L286.458 102.636H288.152ZM295.258 107.662V111.414C295.258 111.675 295.318 111.867 295.44 111.988C295.57 112.1 295.785 112.156 296.084 112.156H296.994V113.808H295.762C294.11 113.808 293.284 113.005 293.284 111.4V107.662H292.36V106.052H293.284V104.134H295.258V106.052H296.994V107.662H295.258ZM301.848 113.934C301.101 113.934 300.429 113.771 299.832 113.444C299.234 113.108 298.763 112.637 298.418 112.03C298.082 111.423 297.914 110.723 297.914 109.93C297.914 109.137 298.086 108.437 298.432 107.83C298.786 107.223 299.267 106.757 299.874 106.43C300.48 106.094 301.157 105.926 301.904 105.926C302.65 105.926 303.327 106.094 303.934 106.43C304.54 106.757 305.016 107.223 305.362 107.83C305.716 108.437 305.894 109.137 305.894 109.93C305.894 110.723 305.712 111.423 305.347 112.03C304.993 112.637 304.508 113.108 303.892 113.444C303.285 113.771 302.604 113.934 301.848 113.934ZM301.848 112.226C302.202 112.226 302.534 112.142 302.842 111.974C303.159 111.797 303.411 111.535 303.598 111.19C303.784 110.845 303.878 110.425 303.878 109.93C303.878 109.193 303.682 108.628 303.29 108.236C302.907 107.835 302.436 107.634 301.876 107.634C301.316 107.634 300.844 107.835 300.462 108.236C300.088 108.628 299.902 109.193 299.902 109.93C299.902 110.667 300.084 111.237 300.448 111.638C300.821 112.03 301.288 112.226 301.848 112.226ZM315.735 106.15C315.642 105.758 315.479 105.464 315.245 105.268C315.021 105.072 314.695 104.974 314.265 104.974C313.621 104.974 313.145 105.235 312.837 105.758C312.539 106.271 312.385 107.111 312.375 108.278C312.599 107.905 312.926 107.615 313.355 107.41C313.785 107.195 314.251 107.088 314.755 107.088C315.362 107.088 315.899 107.219 316.365 107.48C316.832 107.741 317.196 108.124 317.457 108.628C317.719 109.123 317.849 109.72 317.849 110.42C317.849 111.083 317.714 111.675 317.443 112.198C317.182 112.711 316.795 113.113 316.281 113.402C315.768 113.691 315.157 113.836 314.447 113.836C313.477 113.836 312.711 113.621 312.151 113.192C311.601 112.763 311.213 112.165 310.989 111.4C310.775 110.625 310.667 109.673 310.667 108.544C310.667 106.836 310.961 105.548 311.549 104.68C312.137 103.803 313.066 103.364 314.335 103.364C315.315 103.364 316.076 103.63 316.617 104.162C317.159 104.694 317.471 105.357 317.555 106.15H315.735ZM314.307 108.698C313.813 108.698 313.397 108.843 313.061 109.132C312.725 109.421 312.557 109.841 312.557 110.392C312.557 110.943 312.711 111.377 313.019 111.694C313.337 112.011 313.78 112.17 314.349 112.17C314.853 112.17 315.25 112.016 315.539 111.708C315.838 111.4 315.987 110.985 315.987 110.462C315.987 109.921 315.843 109.491 315.553 109.174C315.273 108.857 314.858 108.698 314.307 108.698ZM320.854 102.636L320.686 105.604H319.356L319.174 102.636H320.854ZM328.993 105.296H324.457V107.69C324.653 107.447 324.933 107.251 325.297 107.102C325.661 106.943 326.048 106.864 326.459 106.864C327.205 106.864 327.817 107.027 328.293 107.354C328.769 107.681 329.114 108.101 329.329 108.614C329.543 109.118 329.651 109.659 329.651 110.238C329.651 111.311 329.343 112.175 328.727 112.828C328.12 113.481 327.252 113.808 326.123 113.808C325.059 113.808 324.209 113.542 323.575 113.01C322.94 112.478 322.581 111.783 322.497 110.924H324.401C324.485 111.297 324.671 111.596 324.961 111.82C325.259 112.044 325.637 112.156 326.095 112.156C326.645 112.156 327.061 111.983 327.341 111.638C327.621 111.293 327.761 110.835 327.761 110.266C327.761 109.687 327.616 109.249 327.327 108.95C327.047 108.642 326.631 108.488 326.081 108.488C325.689 108.488 325.362 108.586 325.101 108.782C324.839 108.978 324.653 109.239 324.541 109.566H322.665V103.574H328.993V105.296ZM332.598 102.636L332.43 105.604H331.1L330.918 102.636H332.598ZM334.978 102.636L334.796 105.604H333.466L333.284 102.636H334.978Z" fill="#1E212D"/>
<path d="M11.798 154.078V163.808H10.202V157.144L7.234 163.808H6.128L3.146 157.144V163.808H1.55V154.078H3.272L6.688 161.708L10.09 154.078H11.798ZM13.3637 159.916C13.3637 159.141 13.5224 158.455 13.8397 157.858C14.1664 157.261 14.605 156.799 15.1557 156.472C15.7157 156.136 16.3317 155.968 17.0037 155.968C17.6104 155.968 18.1377 156.089 18.5857 156.332C19.043 156.565 19.407 156.859 19.6777 157.214V156.094H21.2877V163.808H19.6777V162.66C19.407 163.024 19.0384 163.327 18.5717 163.57C18.105 163.813 17.573 163.934 16.9757 163.934C16.313 163.934 15.7064 163.766 15.1557 163.43C14.605 163.085 14.1664 162.609 13.8397 162.002C13.5224 161.386 13.3637 160.691 13.3637 159.916ZM19.6777 159.944C19.6777 159.412 19.5657 158.95 19.3417 158.558C19.127 158.166 18.8424 157.867 18.4877 157.662C18.133 157.457 17.7504 157.354 17.3397 157.354C16.929 157.354 16.5464 157.457 16.1917 157.662C15.837 157.858 15.5477 158.152 15.3237 158.544C15.109 158.927 15.0017 159.384 15.0017 159.916C15.0017 160.448 15.109 160.915 15.3237 161.316C15.5477 161.717 15.837 162.025 16.1917 162.24C16.5557 162.445 16.9384 162.548 17.3397 162.548C17.7504 162.548 18.133 162.445 18.4877 162.24C18.8424 162.035 19.127 161.736 19.3417 161.344C19.5657 160.943 19.6777 160.476 19.6777 159.944ZM26.688 159.902L29.18 163.808H27.374L25.708 161.19L24.14 163.808H22.474L24.966 160.014L22.474 156.094H24.28L25.946 158.712L27.514 156.094H29.18L26.688 159.902ZM31.0143 163.906C30.725 163.906 30.4823 163.808 30.2863 163.612C30.0903 163.416 29.9923 163.173 29.9923 162.884C29.9923 162.595 30.0903 162.352 30.2863 162.156C30.4823 161.96 30.725 161.862 31.0143 161.862C31.2943 161.862 31.5323 161.96 31.7283 162.156C31.9243 162.352 32.0223 162.595 32.0223 162.884C32.0223 163.173 31.9243 163.416 31.7283 163.612C31.5323 163.808 31.2943 163.906 31.0143 163.906ZM40.562 154.078C41.598 154.078 42.5033 154.279 43.278 154.68C44.062 155.072 44.664 155.641 45.084 156.388C45.5133 157.125 45.728 157.989 45.728 158.978C45.728 159.967 45.5133 160.826 45.084 161.554C44.664 162.282 44.062 162.842 43.278 163.234C42.5033 163.617 41.598 163.808 40.562 163.808H37.384V154.078H40.562ZM40.562 162.506C41.7007 162.506 42.5733 162.198 43.18 161.582C43.7867 160.966 44.09 160.098 44.09 158.978C44.09 157.849 43.7867 156.967 43.18 156.332C42.5733 155.697 41.7007 155.38 40.562 155.38H38.98V162.506H40.562ZM48.1218 155.072C47.8324 155.072 47.5898 154.974 47.3938 154.778C47.1978 154.582 47.0998 154.339 47.0998 154.05C47.0998 153.761 47.1978 153.518 47.3938 153.322C47.5898 153.126 47.8324 153.028 48.1218 153.028C48.4018 153.028 48.6398 153.126 48.8358 153.322C49.0318 153.518 49.1298 153.761 49.1298 154.05C49.1298 154.339 49.0318 154.582 48.8358 154.778C48.6398 154.974 48.4018 155.072 48.1218 155.072ZM48.9058 156.094V163.808H47.3098V156.094H48.9058ZM53.8012 163.934C53.1945 163.934 52.6485 163.827 52.1632 163.612C51.6872 163.388 51.3092 163.089 51.0292 162.716C50.7492 162.333 50.5998 161.909 50.5812 161.442H52.2332C52.2612 161.769 52.4152 162.044 52.6952 162.268C52.9845 162.483 53.3438 162.59 53.7732 162.59C54.2212 162.59 54.5665 162.506 54.8092 162.338C55.0612 162.161 55.1872 161.937 55.1872 161.666C55.1872 161.377 55.0472 161.162 54.7672 161.022C54.4965 160.882 54.0625 160.728 53.4652 160.56C52.8865 160.401 52.4152 160.247 52.0512 160.098C51.6872 159.949 51.3698 159.72 51.0992 159.412C50.8378 159.104 50.7072 158.698 50.7072 158.194C50.7072 157.783 50.8285 157.41 51.0712 157.074C51.3138 156.729 51.6592 156.458 52.1072 156.262C52.5645 156.066 53.0872 155.968 53.6752 155.968C54.5525 155.968 55.2572 156.192 55.7892 156.64C56.3305 157.079 56.6198 157.681 56.6572 158.446H55.0612C55.0332 158.101 54.8932 157.825 54.6412 157.62C54.3892 157.415 54.0485 157.312 53.6192 157.312C53.1992 157.312 52.8772 157.391 52.6532 157.55C52.4292 157.709 52.3172 157.919 52.3172 158.18C52.3172 158.385 52.3918 158.558 52.5412 158.698C52.6905 158.838 52.8725 158.95 53.0872 159.034C53.3018 159.109 53.6192 159.207 54.0392 159.328C54.5992 159.477 55.0565 159.631 55.4112 159.79C55.7752 159.939 56.0878 160.163 56.3492 160.462C56.6105 160.761 56.7458 161.157 56.7552 161.652C56.7552 162.091 56.6338 162.483 56.3912 162.828C56.1485 163.173 55.8032 163.444 55.3552 163.64C54.9165 163.836 54.3985 163.934 53.8012 163.934ZM60.3417 157.396V161.666C60.3417 161.955 60.407 162.165 60.5377 162.296C60.6777 162.417 60.911 162.478 61.2377 162.478H62.2177V163.808H60.9577C60.239 163.808 59.6884 163.64 59.3057 163.304C58.923 162.968 58.7317 162.422 58.7317 161.666V157.396H57.8217V156.094H58.7317V154.176H60.3417V156.094H62.2177V157.396H60.3417ZM63.1567 159.916C63.1567 159.141 63.3153 158.455 63.6327 157.858C63.9593 157.261 64.398 156.799 64.9487 156.472C65.5087 156.136 66.1247 155.968 66.7967 155.968C67.4033 155.968 67.9307 156.089 68.3787 156.332C68.836 156.565 69.2 156.859 69.4707 157.214V156.094H71.0807V163.808H69.4707V162.66C69.2 163.024 68.8313 163.327 68.3647 163.57C67.898 163.813 67.366 163.934 66.7687 163.934C66.106 163.934 65.4993 163.766 64.9487 163.43C64.398 163.085 63.9593 162.609 63.6327 162.002C63.3153 161.386 63.1567 160.691 63.1567 159.916ZM69.4707 159.944C69.4707 159.412 69.3587 158.95 69.1347 158.558C68.92 158.166 68.6353 157.867 68.2807 157.662C67.926 157.457 67.5433 157.354 67.1327 157.354C66.722 157.354 66.3393 157.457 65.9847 157.662C65.63 157.858 65.3407 158.152 65.1167 158.544C64.902 158.927 64.7947 159.384 64.7947 159.916C64.7947 160.448 64.902 160.915 65.1167 161.316C65.3407 161.717 65.63 162.025 65.9847 162.24C66.3487 162.445 66.7313 162.548 67.1327 162.548C67.5433 162.548 67.926 162.445 68.2807 162.24C68.6353 162.035 68.92 161.736 69.1347 161.344C69.3587 160.943 69.4707 160.476 69.4707 159.944ZM77.069 155.968C77.6756 155.968 78.217 156.094 78.693 156.346C79.1783 156.598 79.5563 156.971 79.827 157.466C80.0976 157.961 80.233 158.558 80.233 159.258V163.808H78.651V159.496C78.651 158.805 78.4783 158.278 78.133 157.914C77.7876 157.541 77.3163 157.354 76.719 157.354C76.1216 157.354 75.6456 157.541 75.291 157.914C74.9456 158.278 74.773 158.805 74.773 159.496V163.808H73.177V156.094H74.773V156.976C75.0343 156.659 75.3656 156.411 75.767 156.234C76.1776 156.057 76.6116 155.968 77.069 155.968ZM81.7368 159.944C81.7368 159.151 81.8954 158.455 82.2128 157.858C82.5394 157.251 82.9874 156.785 83.5568 156.458C84.1261 156.131 84.7794 155.968 85.5168 155.968C86.4501 155.968 87.2201 156.192 87.8268 156.64C88.4428 157.079 88.8581 157.709 89.0728 158.53H87.3508C87.2108 158.147 86.9868 157.849 86.6788 157.634C86.3708 157.419 85.9834 157.312 85.5168 157.312C84.8634 157.312 84.3408 157.545 83.9488 158.012C83.5661 158.469 83.3748 159.113 83.3748 159.944C83.3748 160.775 83.5661 161.423 83.9488 161.89C84.3408 162.357 84.8634 162.59 85.5168 162.59C86.4408 162.59 87.0521 162.184 87.3508 161.372H89.0728C88.8488 162.156 88.4288 162.781 87.8128 163.248C87.1968 163.705 86.4314 163.934 85.5168 163.934C84.7794 163.934 84.1261 163.771 83.5568 163.444C82.9874 163.108 82.5394 162.641 82.2128 162.044C81.8954 161.437 81.7368 160.737 81.7368 159.944ZM97.7333 159.762C97.7333 160.051 97.7146 160.313 97.6773 160.546H91.7833C91.8299 161.162 92.0586 161.657 92.4693 162.03C92.8799 162.403 93.3839 162.59 93.9813 162.59C94.8399 162.59 95.4466 162.231 95.8013 161.512H97.5233C97.2899 162.221 96.8653 162.805 96.2493 163.262C95.6426 163.71 94.8866 163.934 93.9813 163.934C93.2439 163.934 92.5813 163.771 91.9933 163.444C91.4146 163.108 90.9573 162.641 90.6213 162.044C90.2946 161.437 90.1313 160.737 90.1313 159.944C90.1313 159.151 90.2899 158.455 90.6073 157.858C90.9339 157.251 91.3866 156.785 91.9653 156.458C92.5533 156.131 93.2253 155.968 93.9813 155.968C94.7093 155.968 95.3579 156.127 95.9273 156.444C96.4966 156.761 96.9399 157.209 97.2573 157.788C97.5746 158.357 97.7333 159.015 97.7333 159.762ZM96.0673 159.258C96.0579 158.67 95.8479 158.199 95.4373 157.844C95.0266 157.489 94.5179 157.312 93.9113 157.312C93.3606 157.312 92.8893 157.489 92.4973 157.844C92.1053 158.189 91.8719 158.661 91.7973 159.258H96.0673Z" fill="#2E3740"/>
<path fill-rule="evenodd" clip-rule="evenodd" d="M0 183.808H335H0Z" stroke="#CBDCF6" stroke-linecap="round"/>
<path d="M281.932 156.408V154.602H285.306V164.808H283.29V156.408H281.932ZM294.102 156.296H289.566V158.69C289.762 158.447 290.042 158.251 290.406 158.102C290.77 157.943 291.157 157.864 291.568 157.864C292.315 157.864 292.926 158.027 293.402 158.354C293.878 158.681 294.223 159.101 294.438 159.614C294.653 160.118 294.76 160.659 294.76 161.238C294.76 162.311 294.452 163.175 293.836 163.828C293.229 164.481 292.361 164.808 291.232 164.808C290.168 164.808 289.319 164.542 288.684 164.01C288.049 163.478 287.69 162.783 287.606 161.924H289.51C289.594 162.297 289.781 162.596 290.07 162.82C290.369 163.044 290.747 163.156 291.204 163.156C291.755 163.156 292.17 162.983 292.45 162.638C292.73 162.293 292.87 161.835 292.87 161.266C292.87 160.687 292.725 160.249 292.436 159.95C292.156 159.642 291.741 159.488 291.19 159.488C290.798 159.488 290.471 159.586 290.21 159.782C289.949 159.978 289.762 160.239 289.65 160.566H287.774V154.574H294.102V156.296ZM310.466 155.036V164.808H308.506V158.452L305.888 164.808H304.404L301.772 158.452V164.808H299.812V155.036H302.038L305.146 162.302L308.254 155.036H310.466ZM313.398 156.128C313.052 156.128 312.763 156.021 312.53 155.806C312.306 155.582 312.194 155.307 312.194 154.98C312.194 154.653 312.306 154.383 312.53 154.168C312.763 153.944 313.052 153.832 313.398 153.832C313.743 153.832 314.028 153.944 314.252 154.168C314.485 154.383 314.602 154.653 314.602 154.98C314.602 155.307 314.485 155.582 314.252 155.806C314.028 156.021 313.743 156.128 313.398 156.128ZM314.364 157.052V164.808H312.404V157.052H314.364ZM318.26 154.448V164.808H316.3V154.448H318.26ZM327.406 160.762C327.406 161.042 327.388 161.294 327.35 161.518H321.68C321.727 162.078 321.923 162.517 322.268 162.834C322.614 163.151 323.038 163.31 323.542 163.31C324.27 163.31 324.788 162.997 325.096 162.372H327.21C326.986 163.119 326.557 163.735 325.922 164.22C325.288 164.696 324.508 164.934 323.584 164.934C322.838 164.934 322.166 164.771 321.568 164.444C320.98 164.108 320.518 163.637 320.182 163.03C319.856 162.423 319.692 161.723 319.692 160.93C319.692 160.127 319.856 159.423 320.182 158.816C320.509 158.209 320.966 157.743 321.554 157.416C322.142 157.089 322.819 156.926 323.584 156.926C324.322 156.926 324.98 157.085 325.558 157.402C326.146 157.719 326.599 158.172 326.916 158.76C327.243 159.339 327.406 160.006 327.406 160.762ZM325.376 160.202C325.367 159.698 325.185 159.297 324.83 158.998C324.476 158.69 324.042 158.536 323.528 158.536C323.043 158.536 322.632 158.685 322.296 158.984C321.97 159.273 321.769 159.679 321.694 160.202H325.376ZM331.805 164.934C331.17 164.934 330.601 164.822 330.097 164.598C329.593 164.365 329.192 164.052 328.893 163.66C328.604 163.268 328.445 162.834 328.417 162.358H330.391C330.428 162.657 330.573 162.904 330.825 163.1C331.086 163.296 331.408 163.394 331.791 163.394C332.164 163.394 332.454 163.319 332.659 163.17C332.874 163.021 332.981 162.829 332.981 162.596C332.981 162.344 332.85 162.157 332.589 162.036C332.337 161.905 331.931 161.765 331.371 161.616C330.792 161.476 330.316 161.331 329.943 161.182C329.579 161.033 329.262 160.804 328.991 160.496C328.73 160.188 328.599 159.773 328.599 159.25C328.599 158.821 328.72 158.429 328.963 158.074C329.215 157.719 329.57 157.439 330.027 157.234C330.494 157.029 331.04 156.926 331.665 156.926C332.589 156.926 333.326 157.159 333.877 157.626C334.428 158.083 334.731 158.704 334.787 159.488H332.911C332.883 159.18 332.752 158.937 332.519 158.76C332.295 158.573 331.992 158.48 331.609 158.48C331.254 158.48 330.979 158.545 330.783 158.676C330.596 158.807 330.503 158.989 330.503 159.222C330.503 159.483 330.634 159.684 330.895 159.824C331.156 159.955 331.562 160.09 332.113 160.23C332.673 160.37 333.135 160.515 333.499 160.664C333.863 160.813 334.176 161.047 334.437 161.364C334.708 161.672 334.848 162.083 334.857 162.596C334.857 163.044 334.731 163.445 334.479 163.8C334.236 164.155 333.882 164.435 333.415 164.64C332.958 164.836 332.421 164.934 331.805 164.934Z" fill="#1E212D"/>
<path d="M3.146 206.366V209.222H6.506V210.524H3.146V213.506H6.926V214.808H1.55V205.064H6.926V206.366H3.146ZM10.7538 208.396V212.666C10.7538 212.955 10.8191 213.165 10.9498 213.296C11.0898 213.417 11.3231 213.478 11.6498 213.478H12.6298V214.808H11.3698C10.6511 214.808 10.1005 214.64 9.7178 214.304C9.33513 213.968 9.1438 213.422 9.1438 212.666V208.396H8.2338V207.094H9.1438V205.176H10.7538V207.094H12.6298V208.396H10.7538ZM18.0908 206.968C18.6788 206.968 19.2014 207.094 19.6588 207.346C20.1254 207.598 20.4894 207.971 20.7508 208.466C21.0214 208.961 21.1568 209.558 21.1568 210.258V214.808H19.5748V210.496C19.5748 209.805 19.4021 209.278 19.0568 208.914C18.7114 208.541 18.2401 208.354 17.6428 208.354C17.0454 208.354 16.5694 208.541 16.2148 208.914C15.8694 209.278 15.6968 209.805 15.6968 210.496V214.808H14.1008V204.448H15.6968V207.99C15.9674 207.663 16.3081 207.411 16.7188 207.234C17.1388 207.057 17.5961 206.968 18.0908 206.968ZM27.0846 206.968C27.6912 206.968 28.2326 207.094 28.7086 207.346C29.1939 207.598 29.5719 207.971 29.8426 208.466C30.1132 208.961 30.2486 209.558 30.2486 210.258V214.808H28.6666V210.496C28.6666 209.805 28.4939 209.278 28.1486 208.914C27.8032 208.541 27.3319 208.354 26.7346 208.354C26.1372 208.354 25.6612 208.541 25.3066 208.914C24.9612 209.278 24.7886 209.805 24.7886 210.496V214.808H23.1926V207.094H24.7886V207.976C25.0499 207.659 25.3812 207.411 25.7826 207.234C26.1932 207.057 26.6272 206.968 27.0846 206.968ZM33.0964 206.072C32.807 206.072 32.5644 205.974 32.3684 205.778C32.1724 205.582 32.0744 205.339 32.0744 205.05C32.0744 204.761 32.1724 204.518 32.3684 204.322C32.5644 204.126 32.807 204.028 33.0964 204.028C33.3764 204.028 33.6144 204.126 33.8104 204.322C34.0064 204.518 34.1044 204.761 34.1044 205.05C34.1044 205.339 34.0064 205.582 33.8104 205.778C33.6144 205.974 33.3764 206.072 33.0964 206.072ZM33.8804 207.094V214.808H32.2844V207.094H33.8804ZM35.4438 210.944C35.4438 210.151 35.6024 209.455 35.9198 208.858C36.2464 208.251 36.6944 207.785 37.2638 207.458C37.8331 207.131 38.4864 206.968 39.2238 206.968C40.1571 206.968 40.9271 207.192 41.5338 207.64C42.1498 208.079 42.5651 208.709 42.7798 209.53H41.0578C40.9178 209.147 40.6938 208.849 40.3858 208.634C40.0778 208.419 39.6904 208.312 39.2238 208.312C38.5704 208.312 38.0478 208.545 37.6558 209.012C37.2731 209.469 37.0818 210.113 37.0818 210.944C37.0818 211.775 37.2731 212.423 37.6558 212.89C38.0478 213.357 38.5704 213.59 39.2238 213.59C40.1478 213.59 40.7591 213.184 41.0578 212.372H42.7798C42.5558 213.156 42.1358 213.781 41.5198 214.248C40.9038 214.705 40.1384 214.934 39.2238 214.934C38.4864 214.934 37.8331 214.771 37.2638 214.444C36.6944 214.108 36.2464 213.641 35.9198 213.044C35.6024 212.437 35.4438 211.737 35.4438 210.944ZM45.1823 206.072C44.893 206.072 44.6503 205.974 44.4543 205.778C44.2583 205.582 44.1603 205.339 44.1603 205.05C44.1603 204.761 44.2583 204.518 44.4543 204.322C44.6503 204.126 44.893 204.028 45.1823 204.028C45.4623 204.028 45.7003 204.126 45.8963 204.322C46.0923 204.518 46.1903 204.761 46.1903 205.05C46.1903 205.339 46.0923 205.582 45.8963 205.778C45.7003 205.974 45.4623 206.072 45.1823 206.072ZM45.9663 207.094V214.808H44.3703V207.094H45.9663ZM49.9237 208.396V212.666C49.9237 212.955 49.9891 213.165 50.1197 213.296C50.2597 213.417 50.4931 213.478 50.8197 213.478H51.7997V214.808H50.5397C49.8211 214.808 49.2704 214.64 48.8877 214.304C48.5051 213.968 48.3137 213.422 48.3137 212.666V208.396H47.4037V207.094H48.3137V205.176H49.9237V207.094H51.7997V208.396H49.9237ZM60.2147 207.094L55.4827 218.434H53.8307L55.3987 214.682L52.3607 207.094H54.1387L56.3087 212.974L58.5627 207.094H60.2147Z" fill="#2E3740"/>
<path fill-rule="evenodd" clip-rule="evenodd" d="M0 234.808H335H0Z" stroke="#CBDCF6" stroke-linecap="round"/>
<path d="M256.75 214.254H259.97V215.808H254.79V206.036H256.75V214.254ZM260.712 211.902C260.712 211.118 260.866 210.423 261.174 209.816C261.491 209.209 261.916 208.743 262.448 208.416C262.989 208.089 263.591 207.926 264.254 207.926C264.833 207.926 265.337 208.043 265.766 208.276C266.205 208.509 266.555 208.803 266.816 209.158V208.052H268.79V215.808H266.816V214.674C266.564 215.038 266.214 215.341 265.766 215.584C265.327 215.817 264.819 215.934 264.24 215.934C263.587 215.934 262.989 215.766 262.448 215.43C261.916 215.094 261.491 214.623 261.174 214.016C260.866 213.4 260.712 212.695 260.712 211.902ZM266.816 211.93C266.816 211.454 266.723 211.048 266.536 210.712C266.349 210.367 266.097 210.105 265.78 209.928C265.463 209.741 265.122 209.648 264.758 209.648C264.394 209.648 264.058 209.737 263.75 209.914C263.442 210.091 263.19 210.353 262.994 210.698C262.807 211.034 262.714 211.435 262.714 211.902C262.714 212.369 262.807 212.779 262.994 213.134C263.19 213.479 263.442 213.745 263.75 213.932C264.067 214.119 264.403 214.212 264.758 214.212C265.122 214.212 265.463 214.123 265.78 213.946C266.097 213.759 266.349 213.498 266.536 213.162C266.723 212.817 266.816 212.406 266.816 211.93ZM272.986 209.662V213.414C272.986 213.675 273.047 213.867 273.168 213.988C273.299 214.1 273.514 214.156 273.812 214.156H274.722V215.808H273.49C271.838 215.808 271.012 215.005 271.012 213.4V209.662H270.088V208.052H271.012V206.134H272.986V208.052H274.722V209.662H272.986ZM277.126 207.128C276.781 207.128 276.491 207.021 276.258 206.806C276.034 206.582 275.922 206.307 275.922 205.98C275.922 205.653 276.034 205.383 276.258 205.168C276.491 204.944 276.781 204.832 277.126 204.832C277.471 204.832 277.756 204.944 277.98 205.168C278.213 205.383 278.33 205.653 278.33 205.98C278.33 206.307 278.213 206.582 277.98 206.806C277.756 207.021 277.471 207.128 277.126 207.128ZM278.092 208.052V215.808H276.132V208.052H278.092ZM284.327 207.94C285.251 207.94 285.997 208.234 286.567 208.822C287.136 209.401 287.421 210.213 287.421 211.258V215.808H285.461V211.524C285.461 210.908 285.307 210.437 284.999 210.11C284.691 209.774 284.271 209.606 283.739 209.606C283.197 209.606 282.768 209.774 282.451 210.11C282.143 210.437 281.989 210.908 281.989 211.524V215.808H280.029V208.052H281.989V209.018C282.25 208.682 282.581 208.421 282.983 208.234C283.393 208.038 283.841 207.94 284.327 207.94ZM291.426 213.75L289.788 217.684H288.528L289.438 213.75H291.426ZM302.167 213.946H298.275L297.631 215.808H295.573L299.087 206.022H301.369L304.883 215.808H302.811L302.167 213.946ZM301.635 212.378L300.221 208.29L298.807 212.378H301.635ZM309.164 215.934C308.53 215.934 307.96 215.822 307.456 215.598C306.952 215.365 306.551 215.052 306.252 214.66C305.963 214.268 305.804 213.834 305.776 213.358H307.75C307.788 213.657 307.932 213.904 308.184 214.1C308.446 214.296 308.768 214.394 309.15 214.394C309.524 214.394 309.813 214.319 310.018 214.17C310.233 214.021 310.34 213.829 310.34 213.596C310.34 213.344 310.21 213.157 309.948 213.036C309.696 212.905 309.29 212.765 308.73 212.616C308.152 212.476 307.676 212.331 307.302 212.182C306.938 212.033 306.621 211.804 306.35 211.496C306.089 211.188 305.958 210.773 305.958 210.25C305.958 209.821 306.08 209.429 306.322 209.074C306.574 208.719 306.929 208.439 307.386 208.234C307.853 208.029 308.399 207.926 309.024 207.926C309.948 207.926 310.686 208.159 311.236 208.626C311.787 209.083 312.09 209.704 312.146 210.488H310.27C310.242 210.18 310.112 209.937 309.878 209.76C309.654 209.573 309.351 209.48 308.968 209.48C308.614 209.48 308.338 209.545 308.142 209.676C307.956 209.807 307.862 209.989 307.862 210.222C307.862 210.483 307.993 210.684 308.254 210.824C308.516 210.955 308.922 211.09 309.472 211.23C310.032 211.37 310.494 211.515 310.858 211.664C311.222 211.813 311.535 212.047 311.796 212.364C312.067 212.672 312.207 213.083 312.216 213.596C312.216 214.044 312.09 214.445 311.838 214.8C311.596 215.155 311.241 215.435 310.774 215.64C310.317 215.836 309.78 215.934 309.164 215.934ZM314.819 207.128C314.474 207.128 314.185 207.021 313.951 206.806C313.727 206.582 313.615 206.307 313.615 205.98C313.615 205.653 313.727 205.383 313.951 205.168C314.185 204.944 314.474 204.832 314.819 204.832C315.165 204.832 315.449 204.944 315.673 205.168C315.907 205.383 316.023 205.653 316.023 205.98C316.023 206.307 315.907 206.582 315.673 206.806C315.449 207.021 315.165 207.128 314.819 207.128ZM315.785 208.052V215.808H313.825V208.052H315.785ZM317.218 211.902C317.218 211.118 317.372 210.423 317.68 209.816C317.997 209.209 318.422 208.743 318.954 208.416C319.495 208.089 320.097 207.926 320.76 207.926C321.339 207.926 321.843 208.043 322.272 208.276C322.711 208.509 323.061 208.803 323.322 209.158V208.052H325.296V215.808H323.322V214.674C323.07 215.038 322.72 215.341 322.272 215.584C321.833 215.817 321.325 215.934 320.746 215.934C320.093 215.934 319.495 215.766 318.954 215.43C318.422 215.094 317.997 214.623 317.68 214.016C317.372 213.4 317.218 212.695 317.218 211.902ZM323.322 211.93C323.322 211.454 323.229 211.048 323.042 210.712C322.855 210.367 322.603 210.105 322.286 209.928C321.969 209.741 321.628 209.648 321.264 209.648C320.9 209.648 320.564 209.737 320.256 209.914C319.948 210.091 319.696 210.353 319.5 210.698C319.313 211.034 319.22 211.435 319.22 211.902C319.22 212.369 319.313 212.779 319.5 213.134C319.696 213.479 319.948 213.745 320.256 213.932C320.573 214.119 320.909 214.212 321.264 214.212C321.628 214.212 321.969 214.123 322.286 213.946C322.603 213.759 322.855 213.498 323.042 213.162C323.229 212.817 323.322 212.406 323.322 211.93ZM331.508 207.94C332.432 207.94 333.179 208.234 333.748 208.822C334.317 209.401 334.602 210.213 334.602 211.258V215.808H332.642V211.524C332.642 210.908 332.488 210.437 332.18 210.11C331.872 209.774 331.452 209.606 330.92 209.606C330.379 209.606 329.949 209.774 329.632 210.11C329.324 210.437 329.17 210.908 329.17 211.524V215.808H327.21V208.052H329.17V209.018C329.431 208.682 329.763 208.421 330.164 208.234C330.575 208.038 331.023 207.94 331.508 207.94Z" fill="#1E212D"/>
<path d="M6.604 265.808L4.364 261.916H3.146V265.808H1.55V256.078H4.91C5.65667 256.078 6.28667 256.209 6.8 256.47C7.32267 256.731 7.71 257.081 7.962 257.52C8.22333 257.959 8.354 258.449 8.354 258.99C8.354 259.625 8.16733 260.203 7.794 260.726C7.43 261.239 6.86533 261.589 6.1 261.776L8.508 265.808H6.604ZM3.146 260.642H4.91C5.50733 260.642 5.95533 260.493 6.254 260.194C6.562 259.895 6.716 259.494 6.716 258.99C6.716 258.486 6.56667 258.094 6.268 257.814C5.96933 257.525 5.51667 257.38 4.91 257.38H3.146V260.642ZM17.4657 261.762C17.4657 262.051 17.447 262.313 17.4097 262.546H11.5157C11.5624 263.162 11.791 263.657 12.2017 264.03C12.6124 264.403 13.1164 264.59 13.7137 264.59C14.5724 264.59 15.179 264.231 15.5337 263.512H17.2557C17.0224 264.221 16.5977 264.805 15.9817 265.262C15.375 265.71 14.619 265.934 13.7137 265.934C12.9764 265.934 12.3137 265.771 11.7257 265.444C11.147 265.108 10.6897 264.641 10.3537 264.044C10.027 263.437 9.8637 262.737 9.8637 261.944C9.8637 261.151 10.0224 260.455 10.3397 259.858C10.6664 259.251 11.119 258.785 11.6977 258.458C12.2857 258.131 12.9577 257.968 13.7137 257.968C14.4417 257.968 15.0904 258.127 15.6597 258.444C16.229 258.761 16.6724 259.209 16.9897 259.788C17.307 260.357 17.4657 261.015 17.4657 261.762ZM15.7997 261.258C15.7904 260.67 15.5804 260.199 15.1697 259.844C14.759 259.489 14.2504 259.312 13.6437 259.312C13.093 259.312 12.6217 259.489 12.2297 259.844C11.8377 260.189 11.6044 260.661 11.5297 261.258H15.7997ZM20.6323 255.448V265.808H19.0363V255.448H20.6323ZM23.5397 257.072C23.2504 257.072 23.0077 256.974 22.8117 256.778C22.6157 256.582 22.5177 256.339 22.5177 256.05C22.5177 255.761 22.6157 255.518 22.8117 255.322C23.0077 255.126 23.2504 255.028 23.5397 255.028C23.8197 255.028 24.0577 255.126 24.2537 255.322C24.4497 255.518 24.5477 255.761 24.5477 256.05C24.5477 256.339 24.4497 256.582 24.2537 256.778C24.0577 256.974 23.8197 257.072 23.5397 257.072ZM24.3237 258.094V265.808H22.7277V258.094H24.3237ZM29.5271 257.968C30.1245 257.968 30.6518 258.089 31.1091 258.332C31.5758 258.565 31.9398 258.859 32.2011 259.214V258.094H33.8111V265.934C33.8111 266.643 33.6618 267.273 33.3631 267.824C33.0645 268.384 32.6305 268.823 32.0611 269.14C31.5011 269.457 30.8291 269.616 30.0451 269.616C28.9998 269.616 28.1318 269.369 27.4411 268.874C26.7505 268.389 26.3585 267.726 26.2651 266.886H27.8471C27.9685 267.287 28.2251 267.609 28.6171 267.852C29.0185 268.104 29.4945 268.23 30.0451 268.23C30.6891 268.23 31.2071 268.034 31.5991 267.642C32.0005 267.25 32.2011 266.681 32.2011 265.934V264.646C31.9305 265.01 31.5618 265.318 31.0951 265.57C30.6378 265.813 30.1151 265.934 29.5271 265.934C28.8551 265.934 28.2391 265.766 27.6791 265.43C27.1285 265.085 26.6898 264.609 26.3631 264.002C26.0458 263.386 25.8871 262.691 25.8871 261.916C25.8871 261.141 26.0458 260.455 26.3631 259.858C26.6898 259.261 27.1285 258.799 27.6791 258.472C28.2391 258.136 28.8551 257.968 29.5271 257.968ZM32.2011 261.944C32.2011 261.412 32.0891 260.95 31.8651 260.558C31.6505 260.166 31.3658 259.867 31.0111 259.662C30.6565 259.457 30.2738 259.354 29.8631 259.354C29.4525 259.354 29.0698 259.457 28.7151 259.662C28.3605 259.858 28.0711 260.152 27.8471 260.544C27.6325 260.927 27.5251 261.384 27.5251 261.916C27.5251 262.448 27.6325 262.915 27.8471 263.316C28.0711 263.717 28.3605 264.025 28.7151 264.24C29.0791 264.445 29.4618 264.548 29.8631 264.548C30.2738 264.548 30.6565 264.445 31.0111 264.24C31.3658 264.035 31.6505 263.736 31.8651 263.344C32.0891 262.943 32.2011 262.476 32.2011 261.944ZM36.7194 257.072C36.4301 257.072 36.1874 256.974 35.9914 256.778C35.7954 256.582 35.6974 256.339 35.6974 256.05C35.6974 255.761 35.7954 255.518 35.9914 255.322C36.1874 255.126 36.4301 255.028 36.7194 255.028C36.9994 255.028 37.2374 255.126 37.4334 255.322C37.6294 255.518 37.7274 255.761 37.7274 256.05C37.7274 256.339 37.6294 256.582 37.4334 256.778C37.2374 256.974 36.9994 257.072 36.7194 257.072ZM37.5034 258.094V265.808H35.9074V258.094H37.5034ZM42.9448 265.934C42.2168 265.934 41.5588 265.771 40.9708 265.444C40.3828 265.108 39.9208 264.641 39.5848 264.044C39.2488 263.437 39.0808 262.737 39.0808 261.944C39.0808 261.16 39.2535 260.465 39.5988 259.858C39.9442 259.251 40.4155 258.785 41.0128 258.458C41.6102 258.131 42.2775 257.968 43.0148 257.968C43.7522 257.968 44.4195 258.131 45.0168 258.458C45.6142 258.785 46.0855 259.251 46.4308 259.858C46.7762 260.465 46.9488 261.16 46.9488 261.944C46.9488 262.728 46.7715 263.423 46.4168 264.03C46.0622 264.637 45.5768 265.108 44.9608 265.444C44.3542 265.771 43.6822 265.934 42.9448 265.934ZM42.9448 264.548C43.3555 264.548 43.7382 264.45 44.0928 264.254C44.4568 264.058 44.7508 263.764 44.9748 263.372C45.1988 262.98 45.3108 262.504 45.3108 261.944C45.3108 261.384 45.2035 260.913 44.9888 260.53C44.7742 260.138 44.4895 259.844 44.1348 259.648C43.7802 259.452 43.3975 259.354 42.9868 259.354C42.5762 259.354 42.1935 259.452 41.8388 259.648C41.4935 259.844 41.2182 260.138 41.0128 260.53C40.8075 260.913 40.7048 261.384 40.7048 261.944C40.7048 262.775 40.9148 263.419 41.3348 263.876C41.7642 264.324 42.3008 264.548 42.9448 264.548ZM52.4186 257.968C53.0252 257.968 53.5666 258.094 54.0426 258.346C54.5279 258.598 54.9059 258.971 55.1766 259.466C55.4472 259.961 55.5826 260.558 55.5826 261.258V265.808H54.0006V261.496C54.0006 260.805 53.8279 260.278 53.4826 259.914C53.1372 259.541 52.6659 259.354 52.0686 259.354C51.4712 259.354 50.9952 259.541 50.6406 259.914C50.2952 260.278 50.1226 260.805 50.1226 261.496V265.808H48.5266V258.094H50.1226V258.976C50.3839 258.659 50.7152 258.411 51.1166 258.234C51.5272 258.057 51.9612 257.968 52.4186 257.968Z" fill="#2E3740"/>
<path fill-rule="evenodd" clip-rule="evenodd" d="M0 285.808H335H0Z" stroke="#CBDCF6" stroke-linecap="round"/>
<path d="M221.912 261.908C221.912 260.947 222.127 260.088 222.556 259.332C222.995 258.567 223.587 257.974 224.334 257.554C225.09 257.125 225.935 256.91 226.868 256.91C227.96 256.91 228.917 257.19 229.738 257.75C230.559 258.31 231.133 259.085 231.46 260.074H229.206C228.982 259.607 228.665 259.257 228.254 259.024C227.853 258.791 227.386 258.674 226.854 258.674C226.285 258.674 225.776 258.809 225.328 259.08C224.889 259.341 224.544 259.715 224.292 260.2C224.049 260.685 223.928 261.255 223.928 261.908C223.928 262.552 224.049 263.121 224.292 263.616C224.544 264.101 224.889 264.479 225.328 264.75C225.776 265.011 226.285 265.142 226.854 265.142C227.386 265.142 227.853 265.025 228.254 264.792C228.665 264.549 228.982 264.195 229.206 263.728H231.46C231.133 264.727 230.559 265.506 229.738 266.066C228.926 266.617 227.969 266.892 226.868 266.892C225.935 266.892 225.09 266.682 224.334 266.262C223.587 265.833 222.995 265.24 222.556 264.484C222.127 263.728 221.912 262.869 221.912 261.908ZM237.502 258.94C238.09 258.94 238.613 259.071 239.07 259.332C239.527 259.584 239.882 259.962 240.134 260.466C240.395 260.961 240.526 261.558 240.526 262.258V266.808H238.566V262.524C238.566 261.908 238.412 261.437 238.104 261.11C237.796 260.774 237.376 260.606 236.844 260.606C236.303 260.606 235.873 260.774 235.556 261.11C235.248 261.437 235.094 261.908 235.094 262.524V266.808H233.134V256.448H235.094V260.018C235.346 259.682 235.682 259.421 236.102 259.234C236.522 259.038 236.989 258.94 237.502 258.94ZM244.35 260.256C244.602 259.845 244.928 259.523 245.33 259.29C245.74 259.057 246.207 258.94 246.73 258.94V260.998H246.212C245.596 260.998 245.129 261.143 244.812 261.432C244.504 261.721 244.35 262.225 244.35 262.944V266.808H242.39V259.052H244.35V260.256ZM249.044 258.128C248.699 258.128 248.409 258.021 248.176 257.806C247.952 257.582 247.84 257.307 247.84 256.98C247.84 256.653 247.952 256.383 248.176 256.168C248.409 255.944 248.699 255.832 249.044 255.832C249.389 255.832 249.674 255.944 249.898 256.168C250.131 256.383 250.248 256.653 250.248 256.98C250.248 257.307 250.131 257.582 249.898 257.806C249.674 258.021 249.389 258.128 249.044 258.128ZM250.01 259.052V266.808H248.05V259.052H250.01ZM254.914 266.934C254.28 266.934 253.71 266.822 253.206 266.598C252.702 266.365 252.301 266.052 252.002 265.66C251.713 265.268 251.554 264.834 251.526 264.358H253.5C253.538 264.657 253.682 264.904 253.934 265.1C254.196 265.296 254.518 265.394 254.9 265.394C255.274 265.394 255.563 265.319 255.768 265.17C255.983 265.021 256.09 264.829 256.09 264.596C256.09 264.344 255.96 264.157 255.698 264.036C255.446 263.905 255.04 263.765 254.48 263.616C253.902 263.476 253.426 263.331 253.052 263.182C252.688 263.033 252.371 262.804 252.1 262.496C251.839 262.188 251.708 261.773 251.708 261.25C251.708 260.821 251.83 260.429 252.072 260.074C252.324 259.719 252.679 259.439 253.136 259.234C253.603 259.029 254.149 258.926 254.774 258.926C255.698 258.926 256.436 259.159 256.986 259.626C257.537 260.083 257.84 260.704 257.896 261.488H256.02C255.992 261.18 255.862 260.937 255.628 260.76C255.404 260.573 255.101 260.48 254.718 260.48C254.364 260.48 254.088 260.545 253.892 260.676C253.706 260.807 253.612 260.989 253.612 261.222C253.612 261.483 253.743 261.684 254.004 261.824C254.266 261.955 254.672 262.09 255.222 262.23C255.782 262.37 256.244 262.515 256.608 262.664C256.972 262.813 257.285 263.047 257.546 263.364C257.817 263.672 257.957 264.083 257.966 264.596C257.966 265.044 257.84 265.445 257.588 265.8C257.346 266.155 256.991 266.435 256.524 266.64C256.067 266.836 255.53 266.934 254.914 266.934ZM261.857 260.662V264.414C261.857 264.675 261.918 264.867 262.039 264.988C262.17 265.1 262.385 265.156 262.683 265.156H263.593V266.808H262.361C260.709 266.808 259.883 266.005 259.883 264.4V260.662H258.959V259.052H259.883V257.134H261.857V259.052H263.593V260.662H261.857ZM265.997 258.128C265.652 258.128 265.362 258.021 265.129 257.806C264.905 257.582 264.793 257.307 264.793 256.98C264.793 256.653 264.905 256.383 265.129 256.168C265.362 255.944 265.652 255.832 265.997 255.832C266.342 255.832 266.627 255.944 266.851 256.168C267.084 256.383 267.201 256.653 267.201 256.98C267.201 257.307 267.084 257.582 266.851 257.806C266.627 258.021 266.342 258.128 265.997 258.128ZM266.963 259.052V266.808H265.003V259.052H266.963ZM268.396 262.902C268.396 262.118 268.55 261.423 268.858 260.816C269.175 260.209 269.6 259.743 270.132 259.416C270.673 259.089 271.275 258.926 271.938 258.926C272.516 258.926 273.02 259.043 273.45 259.276C273.888 259.509 274.238 259.803 274.5 260.158V259.052H276.474V266.808H274.5V265.674C274.248 266.038 273.898 266.341 273.45 266.584C273.011 266.817 272.502 266.934 271.924 266.934C271.27 266.934 270.673 266.766 270.132 266.43C269.6 266.094 269.175 265.623 268.858 265.016C268.55 264.4 268.396 263.695 268.396 262.902ZM274.5 262.93C274.5 262.454 274.406 262.048 274.22 261.712C274.033 261.367 273.781 261.105 273.464 260.928C273.146 260.741 272.806 260.648 272.442 260.648C272.078 260.648 271.742 260.737 271.434 260.914C271.126 261.091 270.874 261.353 270.678 261.698C270.491 262.034 270.398 262.435 270.398 262.902C270.398 263.369 270.491 263.779 270.678 264.134C270.874 264.479 271.126 264.745 271.434 264.932C271.751 265.119 272.087 265.212 272.442 265.212C272.806 265.212 273.146 265.123 273.464 264.946C273.781 264.759 274.033 264.498 274.22 264.162C274.406 263.817 274.5 263.406 274.5 262.93ZM282.686 258.94C283.61 258.94 284.357 259.234 284.926 259.822C285.495 260.401 285.78 261.213 285.78 262.258V266.808H283.82V262.524C283.82 261.908 283.666 261.437 283.358 261.11C283.05 260.774 282.63 260.606 282.098 260.606C281.557 260.606 281.127 260.774 280.81 261.11C280.502 261.437 280.348 261.908 280.348 262.524V266.808H278.388V259.052H280.348V260.018C280.609 259.682 280.941 259.421 281.342 259.234C281.753 259.038 282.201 258.94 282.686 258.94ZM289.786 264.75L288.148 268.684H286.888L287.798 264.75H289.786ZM302.64 257.036V266.808H300.68V262.65H296.494V266.808H294.534V257.036H296.494V261.054H300.68V257.036H302.64ZM305.564 258.128C305.218 258.128 304.929 258.021 304.696 257.806C304.472 257.582 304.36 257.307 304.36 256.98C304.36 256.653 304.472 256.383 304.696 256.168C304.929 255.944 305.218 255.832 305.564 255.832C305.909 255.832 306.194 255.944 306.418 256.168C306.651 256.383 306.768 256.653 306.768 256.98C306.768 257.307 306.651 257.582 306.418 257.806C306.194 258.021 305.909 258.128 305.564 258.128ZM306.53 259.052V266.808H304.57V259.052H306.53ZM312.764 258.94C313.688 258.94 314.435 259.234 315.004 259.822C315.573 260.401 315.858 261.213 315.858 262.258V266.808H313.898V262.524C313.898 261.908 313.744 261.437 313.436 261.11C313.128 260.774 312.708 260.606 312.176 260.606C311.635 260.606 311.205 260.774 310.888 261.11C310.58 261.437 310.426 261.908 310.426 262.524V266.808H308.466V259.052H310.426V260.018C310.687 259.682 311.019 259.421 311.42 259.234C311.831 259.038 312.279 258.94 312.764 258.94ZM317.218 262.902C317.218 262.118 317.372 261.423 317.68 260.816C317.997 260.209 318.427 259.743 318.968 259.416C319.509 259.089 320.111 258.926 320.774 258.926C321.278 258.926 321.759 259.038 322.216 259.262C322.673 259.477 323.037 259.766 323.308 260.13V256.448H325.296V266.808H323.308V265.66C323.065 266.043 322.725 266.351 322.286 266.584C321.847 266.817 321.339 266.934 320.76 266.934C320.107 266.934 319.509 266.766 318.968 266.43C318.427 266.094 317.997 265.623 317.68 265.016C317.372 264.4 317.218 263.695 317.218 262.902ZM323.322 262.93C323.322 262.454 323.229 262.048 323.042 261.712C322.855 261.367 322.603 261.105 322.286 260.928C321.969 260.741 321.628 260.648 321.264 260.648C320.9 260.648 320.564 260.737 320.256 260.914C319.948 261.091 319.696 261.353 319.5 261.698C319.313 262.034 319.22 262.435 319.22 262.902C319.22 263.369 319.313 263.779 319.5 264.134C319.696 264.479 319.948 264.745 320.256 264.932C320.573 265.119 320.909 265.212 321.264 265.212C321.628 265.212 321.969 265.123 322.286 264.946C322.603 264.759 322.855 264.498 323.042 264.162C323.229 263.817 323.322 263.406 323.322 262.93ZM334.532 259.052V266.808H332.558V265.828C332.306 266.164 331.975 266.43 331.564 266.626C331.163 266.813 330.724 266.906 330.248 266.906C329.641 266.906 329.105 266.78 328.638 266.528C328.171 266.267 327.803 265.889 327.532 265.394C327.271 264.89 327.14 264.293 327.14 263.602V259.052H329.1V263.322C329.1 263.938 329.254 264.414 329.562 264.75C329.87 265.077 330.29 265.24 330.822 265.24C331.363 265.24 331.788 265.077 332.096 264.75C332.404 264.414 332.558 263.938 332.558 263.322V259.052H334.532Z" fill="#1E212D"/>
<path d="M3.146 308.366V311.222H6.506V312.524H3.146V315.506H6.926V316.808H1.55V307.064H6.926V308.366H3.146ZM8.3598 312.916C8.3598 312.141 8.51846 311.455 8.8358 310.858C9.16246 310.261 9.60113 309.799 10.1518 309.472C10.7118 309.136 11.3325 308.968 12.0138 308.968C12.5178 308.968 13.0125 309.08 13.4978 309.304C13.9925 309.519 14.3845 309.808 14.6738 310.172V306.448H16.2838V316.808H14.6738V315.646C14.4125 316.019 14.0485 316.327 13.5818 316.57C13.1245 316.813 12.5971 316.934 11.9998 316.934C11.3278 316.934 10.7118 316.766 10.1518 316.43C9.60113 316.085 9.16246 315.609 8.8358 315.002C8.51846 314.386 8.3598 313.691 8.3598 312.916ZM14.6738 312.944C14.6738 312.412 14.5618 311.95 14.3378 311.558C14.1231 311.166 13.8385 310.867 13.4838 310.662C13.1291 310.457 12.7465 310.354 12.3358 310.354C11.9251 310.354 11.5425 310.457 11.1878 310.662C10.8331 310.858 10.5438 311.152 10.3198 311.544C10.1051 311.927 9.9978 312.384 9.9978 312.916C9.9978 313.448 10.1051 313.915 10.3198 314.316C10.5438 314.717 10.8331 315.025 11.1878 315.24C11.5518 315.445 11.9345 315.548 12.3358 315.548C12.7465 315.548 13.1291 315.445 13.4838 315.24C13.8385 315.035 14.1231 314.736 14.3378 314.344C14.5618 313.943 14.6738 313.476 14.6738 312.944ZM25.3661 309.094V316.808H23.7701V315.898C23.5181 316.215 23.1867 316.467 22.7761 316.654C22.3747 316.831 21.9454 316.92 21.4881 316.92C20.8814 316.92 20.3354 316.794 19.8501 316.542C19.3741 316.29 18.9961 315.917 18.7161 315.422C18.4454 314.927 18.3101 314.33 18.3101 313.63V309.094H19.8921V313.392C19.8921 314.083 20.0647 314.615 20.4101 314.988C20.7554 315.352 21.2267 315.534 21.8241 315.534C22.4214 315.534 22.8927 315.352 23.2381 314.988C23.5927 314.615 23.7701 314.083 23.7701 313.392V309.094H25.3661ZM26.9399 312.944C26.9399 312.151 27.0985 311.455 27.4159 310.858C27.7425 310.251 28.1905 309.785 28.7599 309.458C29.3292 309.131 29.9825 308.968 30.7199 308.968C31.6532 308.968 32.4232 309.192 33.0299 309.64C33.6459 310.079 34.0612 310.709 34.2759 311.53H32.5539C32.4139 311.147 32.1899 310.849 31.8819 310.634C31.5739 310.419 31.1865 310.312 30.7199 310.312C30.0665 310.312 29.5439 310.545 29.1519 311.012C28.7692 311.469 28.5779 312.113 28.5779 312.944C28.5779 313.775 28.7692 314.423 29.1519 314.89C29.5439 315.357 30.0665 315.59 30.7199 315.59C31.6439 315.59 32.2552 315.184 32.5539 314.372H34.2759C34.0519 315.156 33.6319 315.781 33.0159 316.248C32.3999 316.705 31.6345 316.934 30.7199 316.934C29.9825 316.934 29.3292 316.771 28.7599 316.444C28.1905 316.108 27.7425 315.641 27.4159 315.044C27.0985 314.437 26.9399 313.737 26.9399 312.944ZM35.3344 312.916C35.3344 312.141 35.4931 311.455 35.8104 310.858C36.1371 310.261 36.5757 309.799 37.1264 309.472C37.6864 309.136 38.3024 308.968 38.9744 308.968C39.5811 308.968 40.1084 309.089 40.5564 309.332C41.0137 309.565 41.3777 309.859 41.6484 310.214V309.094H43.2584V316.808H41.6484V315.66C41.3777 316.024 41.0091 316.327 40.5424 316.57C40.0757 316.813 39.5437 316.934 38.9464 316.934C38.2837 316.934 37.6771 316.766 37.1264 316.43C36.5757 316.085 36.1371 315.609 35.8104 315.002C35.4931 314.386 35.3344 313.691 35.3344 312.916ZM41.6484 312.944C41.6484 312.412 41.5364 311.95 41.3124 311.558C41.0977 311.166 40.8131 310.867 40.4584 310.662C40.1037 310.457 39.7211 310.354 39.3104 310.354C38.8997 310.354 38.5171 310.457 38.1624 310.662C37.8077 310.858 37.5184 311.152 37.2944 311.544C37.0797 311.927 36.9724 312.384 36.9724 312.916C36.9724 313.448 37.0797 313.915 37.2944 314.316C37.5184 314.717 37.8077 315.025 38.1624 315.24C38.5264 315.445 38.9091 315.548 39.3104 315.548C39.7211 315.548 40.1037 315.445 40.4584 315.24C40.8131 315.035 41.0977 314.736 41.3124 314.344C41.5364 313.943 41.6484 313.476 41.6484 312.944ZM47.2167 310.396V314.666C47.2167 314.955 47.282 315.165 47.4127 315.296C47.5527 315.417 47.786 315.478 48.1127 315.478H49.0927V316.808H47.8327C47.114 316.808 46.5634 316.64 46.1807 316.304C45.798 315.968 45.6067 315.422 45.6067 314.666V310.396H44.6967V309.094H45.6067V307.176H47.2167V309.094H49.0927V310.396H47.2167ZM51.3757 308.072C51.0863 308.072 50.8437 307.974 50.6477 307.778C50.4517 307.582 50.3537 307.339 50.3537 307.05C50.3537 306.761 50.4517 306.518 50.6477 306.322C50.8437 306.126 51.0863 306.028 51.3757 306.028C51.6557 306.028 51.8937 306.126 52.0897 306.322C52.2857 306.518 52.3837 306.761 52.3837 307.05C52.3837 307.339 52.2857 307.582 52.0897 307.778C51.8937 307.974 51.6557 308.072 51.3757 308.072ZM52.1597 309.094V316.808H50.5637V309.094H52.1597ZM57.6011 316.934C56.8731 316.934 56.2151 316.771 55.6271 316.444C55.0391 316.108 54.5771 315.641 54.2411 315.044C53.9051 314.437 53.7371 313.737 53.7371 312.944C53.7371 312.16 53.9097 311.465 54.2551 310.858C54.6004 310.251 55.0717 309.785 55.6691 309.458C56.2664 309.131 56.9337 308.968 57.6711 308.968C58.4084 308.968 59.0757 309.131 59.6731 309.458C60.2704 309.785 60.7417 310.251 61.0871 310.858C61.4324 311.465 61.6051 312.16 61.6051 312.944C61.6051 313.728 61.4277 314.423 61.0731 315.03C60.7184 315.637 60.2331 316.108 59.6171 316.444C59.0104 316.771 58.3384 316.934 57.6011 316.934ZM57.6011 315.548C58.0117 315.548 58.3944 315.45 58.7491 315.254C59.1131 315.058 59.4071 314.764 59.6311 314.372C59.8551 313.98 59.9671 313.504 59.9671 312.944C59.9671 312.384 59.8597 311.913 59.6451 311.53C59.4304 311.138 59.1457 310.844 58.7911 310.648C58.4364 310.452 58.0537 310.354 57.6431 310.354C57.2324 310.354 56.8497 310.452 56.4951 310.648C56.1497 310.844 55.8744 311.138 55.6691 311.53C55.4637 311.913 55.3611 312.384 55.3611 312.944C55.3611 313.775 55.5711 314.419 55.9911 314.876C56.4204 315.324 56.9571 315.548 57.6011 315.548ZM67.0748 308.968C67.6815 308.968 68.2228 309.094 68.6988 309.346C69.1841 309.598 69.5621 309.971 69.8328 310.466C70.1035 310.961 70.2388 311.558 70.2388 312.258V316.808H68.6568V312.496C68.6568 311.805 68.4841 311.278 68.1388 310.914C67.7935 310.541 67.3221 310.354 66.7248 310.354C66.1275 310.354 65.6515 310.541 65.2968 310.914C64.9515 311.278 64.7788 311.805 64.7788 312.496V316.808H63.1828V309.094H64.7788V309.976C65.0401 309.659 65.3715 309.411 65.7728 309.234C66.1835 309.057 66.6175 308.968 67.0748 308.968Z" fill="#2E3740"/>
<path fill-rule="evenodd" clip-rule="evenodd" d="M0 336.808H335H0Z" stroke="#CBDCF6" stroke-linecap="round"/>
<path d="M334.268 311.984V313.636H328.332V311.984H334.268Z" fill="#1E212D"/>
<path d="M6.604 367.808L4.364 363.916H3.146V367.808H1.55V358.078H4.91C5.65667 358.078 6.28667 358.209 6.8 358.47C7.32267 358.731 7.71 359.081 7.962 359.52C8.22333 359.959 8.354 360.449 8.354 360.99C8.354 361.625 8.16733 362.203 7.794 362.726C7.43 363.239 6.86533 363.589 6.1 363.776L8.508 367.808H6.604ZM3.146 362.642H4.91C5.50733 362.642 5.95533 362.493 6.254 362.194C6.562 361.895 6.716 361.494 6.716 360.99C6.716 360.486 6.56667 360.094 6.268 359.814C5.96933 359.525 5.51667 359.38 4.91 359.38H3.146V362.642ZM17.4657 363.762C17.4657 364.051 17.447 364.313 17.4097 364.546H11.5157C11.5624 365.162 11.791 365.657 12.2017 366.03C12.6124 366.403 13.1164 366.59 13.7137 366.59C14.5724 366.59 15.179 366.231 15.5337 365.512H17.2557C17.0224 366.221 16.5977 366.805 15.9817 367.262C15.375 367.71 14.619 367.934 13.7137 367.934C12.9764 367.934 12.3137 367.771 11.7257 367.444C11.147 367.108 10.6897 366.641 10.3537 366.044C10.027 365.437 9.8637 364.737 9.8637 363.944C9.8637 363.151 10.0224 362.455 10.3397 361.858C10.6664 361.251 11.119 360.785 11.6977 360.458C12.2857 360.131 12.9577 359.968 13.7137 359.968C14.4417 359.968 15.0904 360.127 15.6597 360.444C16.229 360.761 16.6724 361.209 16.9897 361.788C17.307 362.357 17.4657 363.015 17.4657 363.762ZM15.7997 363.258C15.7904 362.67 15.5804 362.199 15.1697 361.844C14.759 361.489 14.2504 361.312 13.6437 361.312C13.093 361.312 12.6217 361.489 12.2297 361.844C11.8377 362.189 11.6044 362.661 11.5297 363.258H15.7997ZM20.6323 357.448V367.808H19.0363V357.448H20.6323ZM22.1957 363.916C22.1957 363.141 22.3544 362.455 22.6717 361.858C22.9984 361.261 23.4371 360.799 23.9877 360.472C24.5477 360.136 25.1637 359.968 25.8357 359.968C26.4424 359.968 26.9697 360.089 27.4177 360.332C27.8751 360.565 28.2391 360.859 28.5097 361.214V360.094H30.1197V367.808H28.5097V366.66C28.2391 367.024 27.8704 367.327 27.4037 367.57C26.9371 367.813 26.4051 367.934 25.8077 367.934C25.1451 367.934 24.5384 367.766 23.9877 367.43C23.4371 367.085 22.9984 366.609 22.6717 366.002C22.3544 365.386 22.1957 364.691 22.1957 363.916ZM28.5097 363.944C28.5097 363.412 28.3977 362.95 28.1737 362.558C27.9591 362.166 27.6744 361.867 27.3197 361.662C26.9651 361.457 26.5824 361.354 26.1717 361.354C25.7611 361.354 25.3784 361.457 25.0237 361.662C24.6691 361.858 24.3797 362.152 24.1557 362.544C23.9411 362.927 23.8337 363.384 23.8337 363.916C23.8337 364.448 23.9411 364.915 24.1557 365.316C24.3797 365.717 24.6691 366.025 25.0237 366.24C25.3877 366.445 25.7704 366.548 26.1717 366.548C26.5824 366.548 26.9651 366.445 27.3197 366.24C27.6744 366.035 27.9591 365.736 28.1737 365.344C28.3977 364.943 28.5097 364.476 28.5097 363.944ZM34.078 361.396V365.666C34.078 365.955 34.1433 366.165 34.274 366.296C34.414 366.417 34.6473 366.478 34.974 366.478H35.954V367.808H34.694C33.9753 367.808 33.4247 367.64 33.042 367.304C32.6593 366.968 32.468 366.422 32.468 365.666V361.396H31.558V360.094H32.468V358.176H34.078V360.094H35.954V361.396H34.078ZM38.237 359.072C37.9477 359.072 37.705 358.974 37.509 358.778C37.313 358.582 37.215 358.339 37.215 358.05C37.215 357.761 37.313 357.518 37.509 357.322C37.705 357.126 37.9477 357.028 38.237 357.028C38.517 357.028 38.755 357.126 38.951 357.322C39.147 357.518 39.245 357.761 39.245 358.05C39.245 358.339 39.147 358.582 38.951 358.778C38.755 358.974 38.517 359.072 38.237 359.072ZM39.021 360.094V367.808H37.425V360.094H39.021ZM44.4624 367.934C43.7344 367.934 43.0764 367.771 42.4884 367.444C41.9004 367.108 41.4384 366.641 41.1024 366.044C40.7664 365.437 40.5984 364.737 40.5984 363.944C40.5984 363.16 40.7711 362.465 41.1164 361.858C41.4617 361.251 41.9331 360.785 42.5304 360.458C43.1277 360.131 43.7951 359.968 44.5324 359.968C45.2697 359.968 45.9371 360.131 46.5344 360.458C47.1317 360.785 47.6031 361.251 47.9484 361.858C48.2937 362.465 48.4664 363.16 48.4664 363.944C48.4664 364.728 48.2891 365.423 47.9344 366.03C47.5797 366.637 47.0944 367.108 46.4784 367.444C45.8717 367.771 45.1997 367.934 44.4624 367.934ZM44.4624 366.548C44.8731 366.548 45.2557 366.45 45.6104 366.254C45.9744 366.058 46.2684 365.764 46.4924 365.372C46.7164 364.98 46.8284 364.504 46.8284 363.944C46.8284 363.384 46.7211 362.913 46.5064 362.53C46.2917 362.138 46.0071 361.844 45.6524 361.648C45.2977 361.452 44.9151 361.354 44.5044 361.354C44.0937 361.354 43.7111 361.452 43.3564 361.648C43.0111 361.844 42.7357 362.138 42.5304 362.53C42.3251 362.913 42.2224 363.384 42.2224 363.944C42.2224 364.775 42.4324 365.419 42.8524 365.876C43.2817 366.324 43.8184 366.548 44.4624 366.548ZM53.9361 359.968C54.5428 359.968 55.0841 360.094 55.5601 360.346C56.0455 360.598 56.4235 360.971 56.6941 361.466C56.9648 361.961 57.1001 362.558 57.1001 363.258V367.808H55.5181V363.496C55.5181 362.805 55.3455 362.278 55.0001 361.914C54.6548 361.541 54.1835 361.354 53.5861 361.354C52.9888 361.354 52.5128 361.541 52.1581 361.914C51.8128 362.278 51.6401 362.805 51.6401 363.496V367.808H50.0441V360.094H51.6401V360.976C51.9015 360.659 52.2328 360.411 52.6341 360.234C53.0448 360.057 53.4788 359.968 53.9361 359.968ZM61.9359 367.934C61.3293 367.934 60.7833 367.827 60.2979 367.612C59.8219 367.388 59.4439 367.089 59.1639 366.716C58.8839 366.333 58.7346 365.909 58.7159 365.442H60.3679C60.3959 365.769 60.5499 366.044 60.8299 366.268C61.1193 366.483 61.4786 366.59 61.9079 366.59C62.3559 366.59 62.7013 366.506 62.9439 366.338C63.1959 366.161 63.3219 365.937 63.3219 365.666C63.3219 365.377 63.1819 365.162 62.9019 365.022C62.6313 364.882 62.1973 364.728 61.5999 364.56C61.0213 364.401 60.5499 364.247 60.1859 364.098C59.8219 363.949 59.5046 363.72 59.2339 363.412C58.9726 363.104 58.8419 362.698 58.8419 362.194C58.8419 361.783 58.9633 361.41 59.2059 361.074C59.4486 360.729 59.7939 360.458 60.2419 360.262C60.6993 360.066 61.2219 359.968 61.8099 359.968C62.6873 359.968 63.3919 360.192 63.9239 360.64C64.4653 361.079 64.7546 361.681 64.7919 362.446H63.1959C63.1679 362.101 63.0279 361.825 62.7759 361.62C62.5239 361.415 62.1833 361.312 61.7539 361.312C61.3339 361.312 61.0119 361.391 60.7879 361.55C60.5639 361.709 60.4519 361.919 60.4519 362.18C60.4519 362.385 60.5266 362.558 60.6759 362.698C60.8253 362.838 61.0073 362.95 61.2219 363.034C61.4366 363.109 61.7539 363.207 62.1739 363.328C62.7339 363.477 63.1913 363.631 63.5459 363.79C63.9099 363.939 64.2226 364.163 64.4839 364.462C64.7453 364.761 64.8806 365.157 64.8899 365.652C64.8899 366.091 64.7686 366.483 64.5259 366.828C64.2833 367.173 63.9379 367.444 63.4899 367.64C63.0513 367.836 62.5333 367.934 61.9359 367.934ZM70.6045 359.968C71.1925 359.968 71.7151 360.094 72.1725 360.346C72.6391 360.598 73.0031 360.971 73.2645 361.466C73.5351 361.961 73.6705 362.558 73.6705 363.258V367.808H72.0885V363.496C72.0885 362.805 71.9158 362.278 71.5705 361.914C71.2251 361.541 70.7538 361.354 70.1565 361.354C69.5591 361.354 69.0831 361.541 68.7285 361.914C68.3831 362.278 68.2105 362.805 68.2105 363.496V367.808H66.6145V357.448H68.2105V360.99C68.4811 360.663 68.8218 360.411 69.2325 360.234C69.6525 360.057 70.1098 359.968 70.6045 359.968ZM76.5183 359.072C76.2289 359.072 75.9863 358.974 75.7903 358.778C75.5943 358.582 75.4963 358.339 75.4963 358.05C75.4963 357.761 75.5943 357.518 75.7903 357.322C75.9863 357.126 76.2289 357.028 76.5183 357.028C76.7983 357.028 77.0363 357.126 77.2323 357.322C77.4283 357.518 77.5263 357.761 77.5263 358.05C77.5263 358.339 77.4283 358.582 77.2323 358.778C77.0363 358.974 76.7983 359.072 76.5183 359.072ZM77.3023 360.094V367.808H75.7063V360.094H77.3023ZM80.9937 361.228C81.2643 360.873 81.633 360.575 82.0997 360.332C82.5663 360.089 83.0937 359.968 83.6817 359.968C84.3537 359.968 84.965 360.136 85.5157 360.472C86.0757 360.799 86.5143 361.261 86.8317 361.858C87.149 362.455 87.3077 363.141 87.3077 363.916C87.3077 364.691 87.149 365.386 86.8317 366.002C86.5143 366.609 86.0757 367.085 85.5157 367.43C84.965 367.766 84.3537 367.934 83.6817 367.934C83.0937 367.934 82.571 367.817 82.1137 367.584C81.6563 367.341 81.283 367.043 80.9937 366.688V371.476H79.3977V360.094H80.9937V361.228ZM85.6837 363.916C85.6837 363.384 85.5717 362.927 85.3477 362.544C85.133 362.152 84.8437 361.858 84.4797 361.662C84.125 361.457 83.7423 361.354 83.3317 361.354C82.9303 361.354 82.5477 361.457 82.1837 361.662C81.829 361.867 81.5397 362.166 81.3157 362.558C81.101 362.95 80.9937 363.412 80.9937 363.944C80.9937 364.476 81.101 364.943 81.3157 365.344C81.5397 365.736 81.829 366.035 82.1837 366.24C82.5477 366.445 82.9303 366.548 83.3317 366.548C83.7423 366.548 84.125 366.445 84.4797 366.24C84.8437 366.025 85.133 365.717 85.3477 365.316C85.5717 364.915 85.6837 364.448 85.6837 363.916ZM99.5647 360.878C99.3127 360.393 98.9627 360.029 98.5147 359.786C98.0667 359.534 97.5487 359.408 96.9607 359.408C96.3167 359.408 95.7427 359.553 95.2387 359.842C94.7347 360.131 94.338 360.542 94.0487 361.074C93.7687 361.606 93.6287 362.222 93.6287 362.922C93.6287 363.622 93.7687 364.243 94.0487 364.784C94.338 365.316 94.7347 365.727 95.2387 366.016C95.7427 366.305 96.3167 366.45 96.9607 366.45C97.8287 366.45 98.5333 366.207 99.0747 365.722C99.616 365.237 99.9473 364.579 100.069 363.748H96.4147V362.474H101.777V363.72C101.674 364.476 101.403 365.171 100.965 365.806C100.535 366.441 99.9707 366.949 99.2707 367.332C98.58 367.705 97.81 367.892 96.9607 367.892C96.046 367.892 95.2107 367.682 94.4547 367.262C93.6987 366.833 93.0967 366.24 92.6487 365.484C92.21 364.728 91.9907 363.874 91.9907 362.922C91.9907 361.97 92.21 361.116 92.6487 360.36C93.0967 359.604 93.6987 359.016 94.4547 358.596C95.22 358.167 96.0553 357.952 96.9607 357.952C97.9967 357.952 98.916 358.209 99.7187 358.722C100.531 359.226 101.119 359.945 101.483 360.878H99.5647ZM106.697 367.934C105.969 367.934 105.311 367.771 104.723 367.444C104.135 367.108 103.673 366.641 103.337 366.044C103.001 365.437 102.833 364.737 102.833 363.944C102.833 363.16 103.005 362.465 103.351 361.858C103.696 361.251 104.167 360.785 104.765 360.458C105.362 360.131 106.029 359.968 106.767 359.968C107.504 359.968 108.171 360.131 108.769 360.458C109.366 360.785 109.837 361.251 110.183 361.858C110.528 362.465 110.701 363.16 110.701 363.944C110.701 364.728 110.523 365.423 110.169 366.03C109.814 366.637 109.329 367.108 108.713 367.444C108.106 367.771 107.434 367.934 106.697 367.934ZM106.697 366.548C107.107 366.548 107.49 366.45 107.845 366.254C108.209 366.058 108.503 365.764 108.727 365.372C108.951 364.98 109.063 364.504 109.063 363.944C109.063 363.384 108.955 362.913 108.741 362.53C108.526 362.138 108.241 361.844 107.887 361.648C107.532 361.452 107.149 361.354 106.739 361.354C106.328 361.354 105.945 361.452 105.591 361.648C105.245 361.844 104.97 362.138 104.765 362.53C104.559 362.913 104.457 363.384 104.457 363.944C104.457 364.775 104.667 365.419 105.087 365.876C105.516 366.324 106.053 366.548 106.697 366.548ZM111.747 363.916C111.747 363.141 111.905 362.455 112.223 361.858C112.549 361.261 112.988 360.799 113.539 360.472C114.099 360.136 114.715 359.968 115.387 359.968C115.993 359.968 116.521 360.089 116.969 360.332C117.426 360.565 117.79 360.859 118.061 361.214V360.094H119.671V367.808H118.061V366.66C117.79 367.024 117.421 367.327 116.955 367.57C116.488 367.813 115.956 367.934 115.359 367.934C114.696 367.934 114.089 367.766 113.539 367.43C112.988 367.085 112.549 366.609 112.223 366.002C111.905 365.386 111.747 364.691 111.747 363.916ZM118.061 363.944C118.061 363.412 117.949 362.95 117.725 362.558C117.51 362.166 117.225 361.867 116.871 361.662C116.516 361.457 116.133 361.354 115.723 361.354C115.312 361.354 114.929 361.457 114.575 361.662C114.22 361.858 113.931 362.152 113.707 362.544C113.492 362.927 113.385 363.384 113.385 363.916C113.385 364.448 113.492 364.915 113.707 365.316C113.931 365.717 114.22 366.025 114.575 366.24C114.939 366.445 115.321 366.548 115.723 366.548C116.133 366.548 116.516 366.445 116.871 366.24C117.225 366.035 117.51 365.736 117.725 365.344C117.949 364.943 118.061 364.476 118.061 363.944ZM123.363 357.448V367.808H121.767V357.448H123.363ZM128.258 367.934C127.652 367.934 127.106 367.827 126.62 367.612C126.144 367.388 125.766 367.089 125.486 366.716C125.206 366.333 125.057 365.909 125.038 365.442H126.69C126.718 365.769 126.872 366.044 127.152 366.268C127.442 366.483 127.801 366.59 128.23 366.59C128.678 366.59 129.024 366.506 129.266 366.338C129.518 366.161 129.644 365.937 129.644 365.666C129.644 365.377 129.504 365.162 129.224 365.022C128.954 364.882 128.52 364.728 127.922 364.56C127.344 364.401 126.872 364.247 126.508 364.098C126.144 363.949 125.827 363.72 125.556 363.412C125.295 363.104 125.164 362.698 125.164 362.194C125.164 361.783 125.286 361.41 125.528 361.074C125.771 360.729 126.116 360.458 126.564 360.262C127.022 360.066 127.544 359.968 128.132 359.968C129.01 359.968 129.714 360.192 130.246 360.64C130.788 361.079 131.077 361.681 131.114 362.446H129.518C129.49 362.101 129.35 361.825 129.098 361.62C128.846 361.415 128.506 361.312 128.076 361.312C127.656 361.312 127.334 361.391 127.11 361.55C126.886 361.709 126.774 361.919 126.774 362.18C126.774 362.385 126.849 362.558 126.998 362.698C127.148 362.838 127.33 362.95 127.544 363.034C127.759 363.109 128.076 363.207 128.496 363.328C129.056 363.477 129.514 363.631 129.868 363.79C130.232 363.939 130.545 364.163 130.806 364.462C131.068 364.761 131.203 365.157 131.212 365.652C131.212 366.091 131.091 366.483 130.848 366.828C130.606 367.173 130.26 367.444 129.812 367.64C129.374 367.836 128.856 367.934 128.258 367.934Z" fill="#2E3740"/>
<path fill-rule="evenodd" clip-rule="evenodd" d="M0 387.808H335H0Z" stroke="#CBDCF6" stroke-linecap="round"/>
<path d="M258.651 367.254H261.871V368.808H256.691V359.036H258.651V367.254ZM264.11 360.128C263.765 360.128 263.476 360.021 263.242 359.806C263.018 359.582 262.906 359.307 262.906 358.98C262.906 358.653 263.018 358.383 263.242 358.168C263.476 357.944 263.765 357.832 264.11 357.832C264.456 357.832 264.74 357.944 264.964 358.168C265.198 358.383 265.314 358.653 265.314 358.98C265.314 359.307 265.198 359.582 264.964 359.806C264.74 360.021 264.456 360.128 264.11 360.128ZM265.076 361.052V368.808H263.116V361.052H265.076ZM270.569 362.662H269.211V368.808H267.223V362.662H266.341V361.052H267.223V360.66C267.223 359.708 267.494 359.008 268.035 358.56C268.576 358.112 269.393 357.902 270.485 357.93V359.582C270.009 359.573 269.678 359.652 269.491 359.82C269.304 359.988 269.211 360.291 269.211 360.73V361.052H270.569V362.662ZM279.049 364.762C279.049 365.042 279.03 365.294 278.993 365.518H273.323C273.37 366.078 273.566 366.517 273.911 366.834C274.256 367.151 274.681 367.31 275.185 367.31C275.913 367.31 276.431 366.997 276.739 366.372H278.853C278.629 367.119 278.2 367.735 277.565 368.22C276.93 368.696 276.151 368.934 275.227 368.934C274.48 368.934 273.808 368.771 273.211 368.444C272.623 368.108 272.161 367.637 271.825 367.03C271.498 366.423 271.335 365.723 271.335 364.93C271.335 364.127 271.498 363.423 271.825 362.816C272.152 362.209 272.609 361.743 273.197 361.416C273.785 361.089 274.462 360.926 275.227 360.926C275.964 360.926 276.622 361.085 277.201 361.402C277.789 361.719 278.242 362.172 278.559 362.76C278.886 363.339 279.049 364.006 279.049 364.762ZM277.019 364.202C277.01 363.698 276.828 363.297 276.473 362.998C276.118 362.69 275.684 362.536 275.171 362.536C274.686 362.536 274.275 362.685 273.939 362.984C273.612 363.273 273.412 363.679 273.337 364.202H277.019ZM290.942 362.06C290.942 362.583 290.816 363.073 290.564 363.53C290.321 363.987 289.934 364.356 289.402 364.636C288.879 364.916 288.216 365.056 287.414 365.056H285.776V368.808H283.816V359.036H287.414C288.17 359.036 288.814 359.167 289.346 359.428C289.878 359.689 290.274 360.049 290.536 360.506C290.806 360.963 290.942 361.481 290.942 362.06ZM287.33 363.474C287.871 363.474 288.272 363.353 288.534 363.11C288.795 362.858 288.926 362.508 288.926 362.06C288.926 361.108 288.394 360.632 287.33 360.632H285.776V363.474H287.33ZM291.829 364.902C291.829 364.118 291.983 363.423 292.291 362.816C292.609 362.209 293.033 361.743 293.565 361.416C294.107 361.089 294.709 360.926 295.371 360.926C295.95 360.926 296.454 361.043 296.883 361.276C297.322 361.509 297.672 361.803 297.933 362.158V361.052H299.907V368.808H297.933V367.674C297.681 368.038 297.331 368.341 296.883 368.584C296.445 368.817 295.936 368.934 295.357 368.934C294.704 368.934 294.107 368.766 293.565 368.43C293.033 368.094 292.609 367.623 292.291 367.016C291.983 366.4 291.829 365.695 291.829 364.902ZM297.933 364.93C297.933 364.454 297.84 364.048 297.653 363.712C297.467 363.367 297.215 363.105 296.897 362.928C296.58 362.741 296.239 362.648 295.875 362.648C295.511 362.648 295.175 362.737 294.867 362.914C294.559 363.091 294.307 363.353 294.111 363.698C293.925 364.034 293.831 364.435 293.831 364.902C293.831 365.369 293.925 365.779 294.111 366.134C294.307 366.479 294.559 366.745 294.867 366.932C295.185 367.119 295.521 367.212 295.875 367.212C296.239 367.212 296.58 367.123 296.897 366.946C297.215 366.759 297.467 366.498 297.653 366.162C297.84 365.817 297.933 365.406 297.933 364.93ZM303.781 362.256C304.033 361.845 304.36 361.523 304.761 361.29C305.172 361.057 305.639 360.94 306.161 360.94V362.998H305.643C305.027 362.998 304.561 363.143 304.243 363.432C303.935 363.721 303.781 364.225 303.781 364.944V368.808H301.821V361.052H303.781V362.256ZM309.764 362.662V366.414C309.764 366.675 309.824 366.867 309.946 366.988C310.076 367.1 310.291 367.156 310.59 367.156H311.5V368.808H310.268C308.616 368.808 307.79 368.005 307.79 366.4V362.662H306.866V361.052H307.79V359.134H309.764V361.052H311.5V362.662H309.764ZM317.207 360.94C318.131 360.94 318.878 361.234 319.447 361.822C320.017 362.401 320.301 363.213 320.301 364.258V368.808H318.341V364.524C318.341 363.908 318.187 363.437 317.879 363.11C317.571 362.774 317.151 362.606 316.619 362.606C316.078 362.606 315.649 362.774 315.331 363.11C315.023 363.437 314.869 363.908 314.869 364.524V368.808H312.909V361.052H314.869V362.018C315.131 361.682 315.462 361.421 315.863 361.234C316.274 361.038 316.722 360.94 317.207 360.94ZM329.375 364.762C329.375 365.042 329.357 365.294 329.319 365.518H323.649C323.696 366.078 323.892 366.517 324.237 366.834C324.583 367.151 325.007 367.31 325.511 367.31C326.239 367.31 326.757 366.997 327.065 366.372H329.179C328.955 367.119 328.526 367.735 327.891 368.22C327.257 368.696 326.477 368.934 325.553 368.934C324.807 368.934 324.135 368.771 323.537 368.444C322.949 368.108 322.487 367.637 322.151 367.03C321.825 366.423 321.661 365.723 321.661 364.93C321.661 364.127 321.825 363.423 322.151 362.816C322.478 362.209 322.935 361.743 323.523 361.416C324.111 361.089 324.788 360.926 325.553 360.926C326.291 360.926 326.949 361.085 327.527 361.402C328.115 361.719 328.568 362.172 328.885 362.76C329.212 363.339 329.375 364.006 329.375 364.762ZM327.345 364.202C327.336 363.698 327.154 363.297 326.799 362.998C326.445 362.69 326.011 362.536 325.497 362.536C325.012 362.536 324.601 362.685 324.265 362.984C323.939 363.273 323.738 363.679 323.663 364.202H327.345ZM332.766 362.256C333.018 361.845 333.345 361.523 333.746 361.29C334.157 361.057 334.623 360.94 335.146 360.94V362.998H334.628C334.012 362.998 333.545 363.143 333.228 363.432C332.92 363.721 332.766 364.225 332.766 364.944V368.808H330.806V361.052H332.766V362.256Z" fill="#1E212D"/>
<path d="M6.912 418.808L3.146 414.454V418.808H1.55V409.078H3.146V413.516L6.926 409.078H8.928L4.7 413.95L8.998 418.808H6.912ZM11.2214 410.072C10.932 410.072 10.6894 409.974 10.4934 409.778C10.2974 409.582 10.1994 409.339 10.1994 409.05C10.1994 408.761 10.2974 408.518 10.4934 408.322C10.6894 408.126 10.932 408.028 11.2214 408.028C11.5014 408.028 11.7394 408.126 11.9354 408.322C12.1314 408.518 12.2294 408.761 12.2294 409.05C12.2294 409.339 12.1314 409.582 11.9354 409.778C11.7394 409.974 11.5014 410.072 11.2214 410.072ZM12.0054 411.094V418.808H10.4094V411.094H12.0054ZM13.5688 414.916C13.5688 414.141 13.7274 413.455 14.0448 412.858C14.3714 412.261 14.8101 411.799 15.3608 411.472C15.9208 411.136 16.5414 410.968 17.2228 410.968C17.7268 410.968 18.2214 411.08 18.7068 411.304C19.2014 411.519 19.5934 411.808 19.8828 412.172V408.448H21.4928V418.808H19.8828V417.646C19.6214 418.019 19.2574 418.327 18.7908 418.57C18.3334 418.813 17.8061 418.934 17.2088 418.934C16.5368 418.934 15.9208 418.766 15.3608 418.43C14.8101 418.085 14.3714 417.609 14.0448 417.002C13.7274 416.386 13.5688 415.691 13.5688 414.916ZM19.8828 414.944C19.8828 414.412 19.7708 413.95 19.5468 413.558C19.3321 413.166 19.0474 412.867 18.6928 412.662C18.3381 412.457 17.9554 412.354 17.5448 412.354C17.1341 412.354 16.7514 412.457 16.3968 412.662C16.0421 412.858 15.7528 413.152 15.5288 413.544C15.3141 413.927 15.2068 414.384 15.2068 414.916C15.2068 415.448 15.3141 415.915 15.5288 416.316C15.7528 416.717 16.0421 417.025 16.3968 417.24C16.7608 417.445 17.1434 417.548 17.5448 417.548C17.9554 417.548 18.3381 417.445 18.6928 417.24C19.0474 417.035 19.3321 416.736 19.5468 416.344C19.7708 415.943 19.8828 415.476 19.8828 414.944ZM26.3891 418.934C25.7824 418.934 25.2364 418.827 24.7511 418.612C24.2751 418.388 23.8971 418.089 23.6171 417.716C23.3371 417.333 23.1877 416.909 23.1691 416.442H24.8211C24.8491 416.769 25.0031 417.044 25.2831 417.268C25.5724 417.483 25.9317 417.59 26.3611 417.59C26.8091 417.59 27.1544 417.506 27.3971 417.338C27.6491 417.161 27.7751 416.937 27.7751 416.666C27.7751 416.377 27.6351 416.162 27.3551 416.022C27.0844 415.882 26.6504 415.728 26.0531 415.56C25.4744 415.401 25.0031 415.247 24.6391 415.098C24.2751 414.949 23.9577 414.72 23.6871 414.412C23.4257 414.104 23.2951 413.698 23.2951 413.194C23.2951 412.783 23.4164 412.41 23.6591 412.074C23.9017 411.729 24.2471 411.458 24.6951 411.262C25.1524 411.066 25.6751 410.968 26.2631 410.968C27.1404 410.968 27.8451 411.192 28.3771 411.64C28.9184 412.079 29.2077 412.681 29.2451 413.446H27.6491C27.6211 413.101 27.4811 412.825 27.2291 412.62C26.9771 412.415 26.6364 412.312 26.2071 412.312C25.7871 412.312 25.4651 412.391 25.2411 412.55C25.0171 412.709 24.9051 412.919 24.9051 413.18C24.9051 413.385 24.9797 413.558 25.1291 413.698C25.2784 413.838 25.4604 413.95 25.6751 414.034C25.8897 414.109 26.2071 414.207 26.6271 414.328C27.1871 414.477 27.6444 414.631 27.9991 414.79C28.3631 414.939 28.6757 415.163 28.9371 415.462C29.1984 415.761 29.3337 416.157 29.3431 416.652C29.3431 417.091 29.2217 417.483 28.9791 417.828C28.7364 418.173 28.3911 418.444 27.9431 418.64C27.5044 418.836 26.9864 418.934 26.3891 418.934Z" fill="#2E3740"/>
<path d="M291.969 419.808H290.009L285.571 413.102V419.808H283.611V410.022H285.571L290.009 416.742V410.022H291.969V419.808ZM297.349 419.934C296.603 419.934 295.931 419.771 295.333 419.444C294.736 419.108 294.265 418.637 293.919 418.03C293.583 417.423 293.415 416.723 293.415 415.93C293.415 415.137 293.588 414.437 293.933 413.83C294.288 413.223 294.769 412.757 295.375 412.43C295.982 412.094 296.659 411.926 297.405 411.926C298.152 411.926 298.829 412.094 299.435 412.43C300.042 412.757 300.518 413.223 300.863 413.83C301.218 414.437 301.395 415.137 301.395 415.93C301.395 416.723 301.213 417.423 300.849 418.03C300.495 418.637 300.009 419.108 299.393 419.444C298.787 419.771 298.105 419.934 297.349 419.934ZM297.349 418.226C297.704 418.226 298.035 418.142 298.343 417.974C298.661 417.797 298.913 417.535 299.099 417.19C299.286 416.845 299.379 416.425 299.379 415.93C299.379 415.193 299.183 414.628 298.791 414.236C298.409 413.835 297.937 413.634 297.377 413.634C296.817 413.634 296.346 413.835 295.963 414.236C295.59 414.628 295.403 415.193 295.403 415.93C295.403 416.667 295.585 417.237 295.949 417.638C296.323 418.03 296.789 418.226 297.349 418.226ZM311.685 419.808L308.129 415.454V419.808H306.169V410.036H308.129V414.418L311.685 410.036H314.051L310.019 414.88L314.163 419.808H311.685ZM316.446 411.128C316.101 411.128 315.812 411.021 315.578 410.806C315.354 410.582 315.242 410.307 315.242 409.98C315.242 409.653 315.354 409.383 315.578 409.168C315.812 408.944 316.101 408.832 316.446 408.832C316.792 408.832 317.076 408.944 317.3 409.168C317.534 409.383 317.65 409.653 317.65 409.98C317.65 410.307 317.534 410.582 317.3 410.806C317.076 411.021 316.792 411.128 316.446 411.128ZM317.412 412.052V419.808H315.452V412.052H317.412ZM318.845 415.902C318.845 415.118 318.999 414.423 319.307 413.816C319.624 413.209 320.053 412.743 320.595 412.416C321.136 412.089 321.738 411.926 322.401 411.926C322.905 411.926 323.385 412.038 323.843 412.262C324.3 412.477 324.664 412.766 324.935 413.13V409.448H326.923V419.808H324.935V418.66C324.692 419.043 324.351 419.351 323.913 419.584C323.474 419.817 322.965 419.934 322.387 419.934C321.733 419.934 321.136 419.766 320.595 419.43C320.053 419.094 319.624 418.623 319.307 418.016C318.999 417.4 318.845 416.695 318.845 415.902ZM324.949 415.93C324.949 415.454 324.855 415.048 324.669 414.712C324.482 414.367 324.23 414.105 323.913 413.928C323.595 413.741 323.255 413.648 322.891 413.648C322.527 413.648 322.191 413.737 321.883 413.914C321.575 414.091 321.323 414.353 321.127 414.698C320.94 415.034 320.847 415.435 320.847 415.902C320.847 416.369 320.94 416.779 321.127 417.134C321.323 417.479 321.575 417.745 321.883 417.932C322.2 418.119 322.536 418.212 322.891 418.212C323.255 418.212 323.595 418.123 323.913 417.946C324.23 417.759 324.482 417.498 324.669 417.162C324.855 416.817 324.949 416.406 324.949 415.93ZM331.805 419.934C331.17 419.934 330.601 419.822 330.097 419.598C329.593 419.365 329.192 419.052 328.893 418.66C328.604 418.268 328.445 417.834 328.417 417.358H330.391C330.428 417.657 330.573 417.904 330.825 418.1C331.086 418.296 331.408 418.394 331.791 418.394C332.164 418.394 332.454 418.319 332.659 418.17C332.874 418.021 332.981 417.829 332.981 417.596C332.981 417.344 332.85 417.157 332.589 417.036C332.337 416.905 331.931 416.765 331.371 416.616C330.792 416.476 330.316 416.331 329.943 416.182C329.579 416.033 329.262 415.804 328.991 415.496C328.73 415.188 328.599 414.773 328.599 414.25C328.599 413.821 328.72 413.429 328.963 413.074C329.215 412.719 329.57 412.439 330.027 412.234C330.494 412.029 331.04 411.926 331.665 411.926C332.589 411.926 333.326 412.159 333.877 412.626C334.428 413.083 334.731 413.704 334.787 414.488H332.911C332.883 414.18 332.752 413.937 332.519 413.76C332.295 413.573 331.992 413.48 331.609 413.48C331.254 413.48 330.979 413.545 330.783 413.676C330.596 413.807 330.503 413.989 330.503 414.222C330.503 414.483 330.634 414.684 330.895 414.824C331.156 414.955 331.562 415.09 332.113 415.23C332.673 415.37 333.135 415.515 333.499 415.664C333.863 415.813 334.176 416.047 334.437 416.364C334.708 416.672 334.848 417.083 334.857 417.596C334.857 418.044 334.731 418.445 334.479 418.8C334.236 419.155 333.882 419.435 333.415 419.64C332.958 419.836 332.421 419.934 331.805 419.934Z" fill="#1E212D"/>
</g>
</svg>
