<svg width="20" height="16" viewBox="0 0 20 16" fill="none" xmlns="http://www.w3.org/2000/svg">
<path fill-rule="evenodd" clip-rule="evenodd" d="M19.8943 1.79254L18.2597 0.11146C18.1947 0.03716 18.0925 0 17.9996 0C17.8975 0 17.8046 0.03716 17.7396 0.11146L6.40854 11.5261L2.28478 7.40233C2.21048 7.32803 2.1176 7.29088 2.02472 7.29088C1.93185 7.29088 1.83897 7.32804 1.76466 7.40233L0.11145 9.05554C-0.03715 9.20415 -0.03715 9.43635 0.11145 9.58494L5.31258 14.7861C5.64694 15.1204 6.0556 15.3155 6.39924 15.3155C6.89149 15.3155 7.31873 14.9532 7.47662 14.8047C7.47662 14.8047 7.47662 14.8047 7.4859 14.8047L19.9036 2.32193C20.0336 2.16404 20.0336 1.93185 19.8943 1.79254H19.8943Z" fill="#1E212D"/>
</svg>
