<svg width="48" height="48" viewBox="0 0 48 48" fill="none" xmlns="http://www.w3.org/2000/svg">
<path fill-rule="evenodd" clip-rule="evenodd" d="M46.8175 33.9711C46.1725 33.9711 45.635 34.5086 45.635 35.1536V40.0987C45.635 43.1624 43.1624 45.635 40.0987 45.635H34.7236C34.0786 45.635 33.5411 46.1725 33.5411 46.8175C33.5411 47.4625 34.0786 48 34.7236 48H40.0987C44.4524 48 48 44.4525 48 40.0987V35.1536C48 34.5086 47.4625 33.9711 46.8175 33.9711L46.8175 33.9711Z" fill="white"/>
<path fill-rule="evenodd" clip-rule="evenodd" d="M40.0987 0H34.7236C34.0786 0 33.5411 0.537501 33.5411 1.18251C33.5411 1.82751 34.0786 2.36503 34.7236 2.36503H40.0987C43.1624 2.36503 45.635 4.83755 45.635 7.90133V13.6526C45.635 14.2976 46.1725 14.8351 46.8175 14.8351C47.4625 14.8351 48 14.2976 48 13.6526V7.90133C48 3.54754 44.4525 1e-05 40.0987 1e-05L40.0987 0Z" fill="white"/>
<path fill-rule="evenodd" clip-rule="evenodd" d="M34.113 23.4343C34.9193 23.4343 35.5643 22.7893 35.618 21.9831V18.113C35.618 17.253 34.973 16.608 34.113 16.608C33.253 16.608 32.608 17.3068 32.608 18.113V21.9293C32.608 22.7893 33.3068 23.4343 34.113 23.4343V23.4343Z" fill="white"/>
<path fill-rule="evenodd" clip-rule="evenodd" d="M31.3908 33.7589C29.4558 35.6939 26.8757 36.7689 24.242 36.7689H23.812C21.1244 36.7689 18.5982 35.6939 16.6631 33.7589C16.2331 33.2751 15.4806 33.2751 14.9969 33.7589C14.5131 34.1889 14.5131 34.9414 14.9969 35.4252C17.4157 37.844 20.5332 39.134 23.812 39.134H24.242C27.5208 39.134 30.692 37.844 33.0571 35.4252C33.5408 34.9952 33.5408 34.2427 33.0571 33.7589C32.6271 33.2751 31.8746 33.2751 31.3908 33.7589Z" fill="white"/>
<path fill-rule="evenodd" clip-rule="evenodd" d="M21.0795 30.5597H21.3483C23.7671 30.5597 25.7021 28.6246 25.7021 26.2596V18.0895C25.7021 17.4445 25.1646 16.907 24.5196 16.907C23.8746 16.907 23.3371 17.4445 23.3371 18.0895V26.2059C23.3371 27.3346 22.4233 28.1946 21.3483 28.1946H21.0795C20.4345 28.1946 19.897 28.7321 19.897 29.3771C19.897 30.0222 20.4345 30.5597 21.0795 30.5597Z" fill="white"/>
<path fill-rule="evenodd" clip-rule="evenodd" d="M13.193 16.608C12.333 16.608 11.688 17.3068 11.688 18.113V21.9293C11.688 22.7893 12.3868 23.4343 13.193 23.4343C14.053 23.4343 14.698 22.7893 14.698 21.9831V18.113C14.698 17.253 13.9993 16.608 13.193 16.608Z" fill="white"/>
<path fill-rule="evenodd" clip-rule="evenodd" d="M1.23647 14.8351C1.88147 14.8351 2.41898 14.2976 2.41898 13.6526V7.90133C2.41898 4.83755 4.89151 2.36503 7.95529 2.36503H13.3303C13.9753 2.36503 14.5129 1.82752 14.5129 1.18251C14.5129 0.537511 13.9754 0 13.3303 0H7.95529C3.60149 0 0.0539552 3.54754 0.0539552 7.90133V13.6526C0.0539552 14.2976 0.591457 14.8351 1.23647 14.8351Z" fill="white"/>
<path fill-rule="evenodd" clip-rule="evenodd" d="M13.2764 45.635H7.90133C4.83755 45.635 2.36503 43.1624 2.36503 40.0987V35.1536C2.36503 34.5086 1.82752 33.9711 1.18251 33.9711C0.537501 33.9711 0 34.5086 0 35.1536V40.0987C0 44.4525 3.54754 48 7.90133 48H13.2764C13.9751 48 14.4589 47.4625 14.4589 46.8175C14.4589 46.1724 13.9214 45.635 13.2764 45.635V45.635Z" fill="white"/>
</svg>
