<svg width="31" height="11" viewBox="0 0 31 11" fill="none" xmlns="http://www.w3.org/2000/svg">
<path fill-rule="evenodd" clip-rule="evenodd" d="M20.5717 0.00878663C19.886 -0.072371 19.2643 0.417755 19.1831 1.1035C19.102 1.78924 19.5921 2.41094 20.2779 2.49209C25.5383 3.12394 28.3449 4.65212 28.3449 5.43091C28.3449 6.20969 23.8191 8.59014 15.4288 8.59014C7.03848 8.59014 2.498 6.26848 2.498 5.35744C2.498 4.44641 5.30458 3.10924 10.5798 2.41862C11.1194 2.21599 11.4503 1.67035 11.3805 1.09813C11.3108 0.525915 10.8584 0.0757748 10.2859 0.00878663C4.7315 0.655323 0 2.38923 0 5.35744C0 9.23668 7.99359 11 15.4141 11C22.8346 11 30.8576 9.23669 30.8576 5.35744C30.8576 2.37454 26.1114 0.625941 20.5717 0.00878663Z" fill="#0668FC"/>
</svg>
