<svg width="11" height="23" viewBox="0 0 11 23" fill="none" xmlns="http://www.w3.org/2000/svg">
<path fill-rule="evenodd" clip-rule="evenodd" d="M6.23933 17.0165C6.08101 15.611 5.91964 14.2058 5.76986 12.7993C5.75753 12.6831 5.81254 12.5545 5.85504 12.4385C6.85478 9.70746 7.85719 6.9773 8.85912 4.24695C8.90192 4.13042 8.94472 4.01375 9.00201 3.85762C8.87606 3.81142 8.77163 3.7731 8.66718 3.73471C7.38564 3.2642 6.10594 2.78833 4.82056 2.32867C4.61966 2.25687 4.54882 2.15609 4.53026 1.95131C4.47268 1.31692 4.3935 0.684486 4.31696 0C4.45332 0.0500395 4.5469 0.0843996 4.64054 0.118749C6.28694 0.72294 7.93371 1.32601 9.57962 1.93165C10.7633 2.36724 11.2807 3.46822 10.85 4.64315C9.36501 8.69483 7.87745 12.7456 6.39087 16.7967C6.36279 16.8731 6.33476 16.9496 6.30672 17.026C6.28429 17.0228 6.2618 17.0197 6.23934 17.0165" fill="white"/>
<path fill-rule="evenodd" clip-rule="evenodd" d="M0 22.0395C1.60759 21.7609 3.17999 21.7902 4.68183 21.3632C4.46205 22.4665 3.26716 23.1808 2.16458 22.8276C1.45741 22.6011 0.767416 22.3211 0 22.0395" fill="white"/>
</svg>
