<svg width="315" height="254" viewBox="0 0 315 254" fill="none" xmlns="http://www.w3.org/2000/svg">
<mask id="mask0_0_2162" style="mask-type:luminance" maskUnits="userSpaceOnUse" x="0" y="-7" width="315" height="261">
<path fill-rule="evenodd" clip-rule="evenodd" d="M0 -6.59204H315V253.408H0V-6.59204Z" fill="white"/>
</mask>
<g mask="url(#mask0_0_2162)">
<path d="M5.364 5.12396C5.812 5.20396 6.192 5.43996 6.504 5.83196C6.816 6.22396 6.972 6.66796 6.972 7.16396C6.972 7.58796 6.86 7.97196 6.636 8.31596C6.42 8.65196 6.104 8.91996 5.688 9.11996C5.272 9.31196 4.788 9.40796 4.236 9.40796H0.9V1.06796H4.08C4.648 1.06796 5.136 1.16396 5.544 1.35596C5.952 1.54796 6.26 1.80796 6.468 2.13596C6.676 2.45596 6.78 2.81596 6.78 3.21596C6.78 3.69596 6.652 4.09596 6.396 4.41596C6.14 4.73596 5.796 4.97196 5.364 5.12396ZM2.268 4.57196H3.96C4.408 4.57196 4.756 4.47196 5.004 4.27196C5.26 4.06396 5.388 3.76796 5.388 3.38396C5.388 3.00796 5.26 2.71596 5.004 2.50796C4.756 2.29196 4.408 2.18396 3.96 2.18396H2.268V4.57196ZM4.116 8.29196C4.58 8.29196 4.944 8.17996 5.208 7.95596C5.472 7.73196 5.604 7.41996 5.604 7.01996C5.604 6.61196 5.464 6.28796 5.184 6.04796C4.904 5.80796 4.532 5.68796 4.068 5.68796H2.268V8.29196H4.116ZM11.3266 9.51596C10.7026 9.51596 10.1386 9.37596 9.63459 9.09596C9.13059 8.80796 8.73459 8.40796 8.44659 7.89596C8.15859 7.37596 8.01459 6.77596 8.01459 6.09596C8.01459 5.42396 8.16259 4.82796 8.45859 4.30796C8.75459 3.78796 9.15859 3.38796 9.67059 3.10796C10.1826 2.82796 10.7546 2.68796 11.3866 2.68796C12.0186 2.68796 12.5906 2.82796 13.1026 3.10796C13.6146 3.38796 14.0186 3.78796 14.3146 4.30796C14.6106 4.82796 14.7586 5.42396 14.7586 6.09596C14.7586 6.76796 14.6066 7.36396 14.3026 7.88396C13.9986 8.40396 13.5826 8.80796 13.0546 9.09596C12.5346 9.37596 11.9586 9.51596 11.3266 9.51596ZM11.3266 8.32796C11.6786 8.32796 12.0066 8.24396 12.3106 8.07596C12.6226 7.90796 12.8746 7.65596 13.0666 7.31996C13.2586 6.98396 13.3546 6.57596 13.3546 6.09596C13.3546 5.61596 13.2626 5.21196 13.0786 4.88396C12.8946 4.54796 12.6506 4.29596 12.3466 4.12796C12.0426 3.95996 11.7146 3.87596 11.3626 3.87596C11.0106 3.87596 10.6826 3.95996 10.3786 4.12796C10.0826 4.29596 9.84659 4.54796 9.67059 4.88396C9.49459 5.21196 9.40659 5.61596 9.40659 6.09596C9.40659 6.80796 9.58659 7.35996 9.94659 7.75196C10.3146 8.13596 10.7746 8.32796 11.3266 8.32796ZM15.6549 6.07196C15.6549 5.40796 15.7909 4.81996 16.0629 4.30796C16.3429 3.79596 16.7189 3.39996 17.1909 3.11996C17.6709 2.83196 18.2029 2.68796 18.7869 2.68796C19.2189 2.68796 19.6429 2.78396 20.0589 2.97596C20.4829 3.15996 20.8189 3.40796 21.0669 3.71996V0.527959H22.4469V9.40796H21.0669V8.41196C20.8429 8.73196 20.5309 8.99596 20.1309 9.20396C19.7389 9.41196 19.2869 9.51596 18.7749 9.51596C18.1989 9.51596 17.6709 9.37196 17.1909 9.08396C16.7189 8.78796 16.3429 8.37996 16.0629 7.85996C15.7909 7.33196 15.6549 6.73596 15.6549 6.07196ZM21.0669 6.09596C21.0669 5.63996 20.9709 5.24396 20.7789 4.90796C20.5949 4.57196 20.3509 4.31596 20.0469 4.13996C19.7429 3.96396 19.4149 3.87596 19.0629 3.87596C18.7109 3.87596 18.3829 3.96396 18.0789 4.13996C17.7749 4.30796 17.5269 4.55996 17.3349 4.89596C17.1509 5.22396 17.0589 5.61596 17.0589 6.07196C17.0589 6.52796 17.1509 6.92796 17.3349 7.27196C17.5269 7.61596 17.7749 7.87996 18.0789 8.06396C18.3909 8.23996 18.7189 8.32796 19.0629 8.32796C19.4149 8.32796 19.7429 8.23996 20.0469 8.06396C20.3509 7.88796 20.5949 7.63196 20.7789 7.29596C20.9709 6.95196 21.0669 6.55196 21.0669 6.09596ZM30.1958 2.79596L26.1398 12.516H24.7238L26.0678 9.29996L23.4638 2.79596H24.9878L26.8478 7.83596L28.7798 2.79596H30.1958ZM39.7333 1.06796V2.18396H37.5133V9.40796H36.1453V2.18396H33.9133V1.06796H39.7333ZM47.0708 2.79596L43.0148 12.516H41.5988L42.9428 9.29996L40.3388 2.79596H41.8628L43.7228 7.83596L45.6548 2.79596H47.0708ZM49.4711 3.76796C49.7031 3.46396 50.0191 3.20796 50.4191 2.99996C50.8191 2.79196 51.2711 2.68796 51.7751 2.68796C52.3511 2.68796 52.8751 2.83196 53.3471 3.11996C53.8271 3.39996 54.2031 3.79596 54.4751 4.30796C54.7471 4.81996 54.8831 5.40796 54.8831 6.07196C54.8831 6.73596 54.7471 7.33196 54.4751 7.85996C54.2031 8.37996 53.8271 8.78796 53.3471 9.08396C52.8751 9.37196 52.3511 9.51596 51.7751 9.51596C51.2711 9.51596 50.8231 9.41596 50.4311 9.21596C50.0391 9.00796 49.7191 8.75196 49.4711 8.44796V12.552H48.1031V2.79596H49.4711V3.76796ZM53.4911 6.07196C53.4911 5.61596 53.3951 5.22396 53.2031 4.89596C53.0191 4.55996 52.7711 4.30796 52.4591 4.13996C52.1551 3.96396 51.8271 3.87596 51.4751 3.87596C51.1311 3.87596 50.8031 3.96396 50.4911 4.13996C50.1871 4.31596 49.9391 4.57196 49.7471 4.90796C49.5631 5.24396 49.4711 5.63996 49.4711 6.09596C49.4711 6.55196 49.5631 6.95196 49.7471 7.29596C49.9391 7.63196 50.1871 7.88796 50.4911 8.06396C50.8031 8.23996 51.1311 8.32796 51.4751 8.32796C51.8271 8.32796 52.1551 8.23996 52.4591 8.06396C52.7711 7.87996 53.0191 7.61596 53.2031 7.27196C53.3951 6.92796 53.4911 6.52796 53.4911 6.07196ZM62.2959 5.93996C62.2959 6.18796 62.2799 6.41196 62.2479 6.61196H57.1959C57.2359 7.13996 57.4319 7.56396 57.7839 7.88396C58.1359 8.20396 58.5679 8.36396 59.0799 8.36396C59.8159 8.36396 60.3359 8.05596 60.6399 7.43996H62.1159C61.9159 8.04796 61.5519 8.54796 61.0239 8.93996C60.5039 9.32396 59.8559 9.51596 59.0799 9.51596C58.4479 9.51596 57.8799 9.37596 57.3759 9.09596C56.8799 8.80796 56.4879 8.40796 56.1999 7.89596C55.9199 7.37596 55.7799 6.77596 55.7799 6.09596C55.7799 5.41596 55.9159 4.81996 56.1879 4.30796C56.4679 3.78796 56.8559 3.38796 57.3519 3.10796C57.8559 2.82796 58.4319 2.68796 59.0799 2.68796C59.7039 2.68796 60.2599 2.82396 60.7479 3.09596C61.2359 3.36796 61.6159 3.75196 61.8879 4.24796C62.1599 4.73596 62.2959 5.29996 62.2959 5.93996ZM60.8679 5.50796C60.8599 5.00396 60.6799 4.59996 60.3279 4.29596C59.9759 3.99196 59.5399 3.83996 59.0199 3.83996C58.5479 3.83996 58.1439 3.99196 57.8079 4.29596C57.4719 4.59196 57.2719 4.99596 57.2079 5.50796H60.8679Z" fill="#2E3740"/>
<path opacity="0.5" fill-rule="evenodd" clip-rule="evenodd" d="M0 27.408H315H0Z" stroke="#CBDCF6" stroke-linecap="round"/>
<path d="M271.466 1.03196V2.38796H269.234V9.40796H267.554V2.38796H265.322V1.03196H271.466ZM274.371 3.79196C274.587 3.43996 274.867 3.16396 275.211 2.96396C275.563 2.76396 275.963 2.66396 276.411 2.66396V4.42796H275.967C275.439 4.42796 275.039 4.55196 274.767 4.79996C274.503 5.04796 274.371 5.47996 274.371 6.09596V9.40796H272.691V2.75996H274.371V3.79196ZM278.395 1.96796C278.099 1.96796 277.851 1.87596 277.651 1.69196C277.459 1.49996 277.363 1.26396 277.363 0.983959C277.363 0.703959 277.459 0.471958 277.651 0.287958C277.851 0.0959585 278.099 -4.14848e-05 278.395 -4.14848e-05C278.691 -4.14848e-05 278.935 0.0959585 279.127 0.287958C279.327 0.471958 279.427 0.703959 279.427 0.983959C279.427 1.26396 279.327 1.49996 279.127 1.69196C278.935 1.87596 278.691 1.96796 278.395 1.96796ZM279.223 2.75996V9.40796H277.543V2.75996H279.223ZM280.451 6.05996C280.451 5.38796 280.583 4.79196 280.847 4.27196C281.119 3.75196 281.483 3.35196 281.939 3.07196C282.403 2.79196 282.919 2.65196 283.487 2.65196C283.983 2.65196 284.415 2.75196 284.783 2.95196C285.159 3.15196 285.459 3.40396 285.683 3.70796V2.75996H287.375V9.40796H285.683V8.43596C285.467 8.74796 285.167 9.00796 284.783 9.21596C284.407 9.41596 283.971 9.51596 283.475 9.51596C282.915 9.51596 282.403 9.37196 281.939 9.08396C281.483 8.79596 281.119 8.39196 280.847 7.87196C280.583 7.34396 280.451 6.73996 280.451 6.05996ZM285.683 6.08396C285.683 5.67596 285.603 5.32796 285.443 5.03996C285.283 4.74396 285.067 4.51996 284.795 4.36796C284.523 4.20796 284.231 4.12796 283.919 4.12796C283.607 4.12796 283.319 4.20396 283.055 4.35596C282.791 4.50796 282.575 4.73196 282.407 5.02796C282.247 5.31596 282.167 5.65996 282.167 6.05996C282.167 6.45996 282.247 6.81196 282.407 7.11596C282.575 7.41196 282.791 7.63996 283.055 7.79996C283.327 7.95996 283.615 8.03996 283.919 8.03996C284.231 8.03996 284.523 7.96396 284.795 7.81196C285.067 7.65196 285.283 7.42796 285.443 7.13996C285.603 6.84396 285.683 6.49196 285.683 6.08396ZM292.7 2.66396C293.492 2.66396 294.132 2.91596 294.62 3.41996C295.108 3.91596 295.352 4.61196 295.352 5.50796V9.40796H293.672V5.73596C293.672 5.20796 293.54 4.80396 293.276 4.52396C293.012 4.23596 292.652 4.09196 292.196 4.09196C291.732 4.09196 291.364 4.23596 291.092 4.52396C290.828 4.80396 290.696 5.20796 290.696 5.73596V9.40796H289.016V2.75996H290.696V3.58796C290.92 3.29996 291.204 3.07596 291.548 2.91596C291.9 2.74796 292.284 2.66396 292.7 2.66396ZM299.553 2.65196C300.049 2.65196 300.485 2.75196 300.861 2.95196C301.237 3.14396 301.533 3.39596 301.749 3.70796V2.75996H303.441V9.45596C303.441 10.072 303.317 10.62 303.069 11.1C302.821 11.588 302.449 11.972 301.953 12.252C301.457 12.54 300.857 12.684 300.153 12.684C299.209 12.684 298.433 12.464 297.825 12.024C297.225 11.584 296.885 10.984 296.805 10.224H298.473C298.561 10.528 298.749 10.768 299.037 10.944C299.333 11.128 299.689 11.22 300.105 11.22C300.593 11.22 300.989 11.072 301.293 10.776C301.597 10.488 301.749 10.048 301.749 9.45596V8.42396C301.533 8.73596 301.233 8.99596 300.849 9.20396C300.473 9.41196 300.041 9.51596 299.553 9.51596C298.993 9.51596 298.481 9.37196 298.017 9.08396C297.553 8.79596 297.185 8.39196 296.913 7.87196C296.649 7.34396 296.517 6.73996 296.517 6.05996C296.517 5.38796 296.649 4.79196 296.913 4.27196C297.185 3.75196 297.549 3.35196 298.005 3.07196C298.469 2.79196 298.985 2.65196 299.553 2.65196ZM301.749 6.08396C301.749 5.67596 301.669 5.32796 301.509 5.03996C301.349 4.74396 301.133 4.51996 300.861 4.36796C300.589 4.20796 300.297 4.12796 299.985 4.12796C299.673 4.12796 299.385 4.20396 299.121 4.35596C298.857 4.50796 298.641 4.73196 298.473 5.02796C298.313 5.31596 298.233 5.65996 298.233 6.05996C298.233 6.45996 298.313 6.81196 298.473 7.11596C298.641 7.41196 298.857 7.63996 299.121 7.79996C299.393 7.95996 299.681 8.03996 299.985 8.03996C300.297 8.03996 300.589 7.96396 300.861 7.81196C301.133 7.65196 301.349 7.42796 301.509 7.13996C301.669 6.84396 301.749 6.49196 301.749 6.08396ZM306.762 0.527959V9.40796H305.082V0.527959H306.762ZM314.602 5.93996C314.602 6.17996 314.586 6.39596 314.554 6.58796H309.694C309.734 7.06796 309.902 7.44396 310.198 7.71596C310.494 7.98796 310.858 8.12396 311.29 8.12396C311.914 8.12396 312.358 7.85596 312.622 7.31996H314.434C314.242 7.95996 313.874 8.48796 313.33 8.90396C312.786 9.31196 312.118 9.51596 311.326 9.51596C310.686 9.51596 310.11 9.37596 309.598 9.09596C309.094 8.80796 308.698 8.40396 308.41 7.88396C308.13 7.36396 307.99 6.76396 307.99 6.08396C307.99 5.39596 308.13 4.79196 308.41 4.27196C308.69 3.75196 309.082 3.35196 309.586 3.07196C310.09 2.79196 310.67 2.65196 311.326 2.65196C311.958 2.65196 312.522 2.78796 313.018 3.05996C313.522 3.33196 313.91 3.71996 314.182 4.22396C314.462 4.71996 314.602 5.29196 314.602 5.93996ZM312.862 5.45996C312.854 5.02796 312.698 4.68396 312.394 4.42796C312.09 4.16396 311.718 4.03196 311.278 4.03196C310.862 4.03196 310.51 4.15996 310.222 4.41596C309.942 4.66396 309.77 5.01196 309.706 5.45996H312.862Z" fill="#1E212D"/>
<path d="M2.268 50.172V52.62H5.148V53.736H2.268V56.292H5.508V57.408H0.9V49.056H5.508V50.172H2.268ZM10.025 54.06L12.161 57.408H10.613L9.18497 55.164L7.84097 57.408H6.41297L8.54897 54.156L6.41297 50.796H7.96097L9.38897 53.04L10.733 50.796H12.161L10.025 54.06ZM19.2413 53.94C19.2413 54.188 19.2253 54.412 19.1933 54.612H14.1413C14.1813 55.14 14.3773 55.564 14.7293 55.884C15.0813 56.204 15.5133 56.364 16.0253 56.364C16.7613 56.364 17.2813 56.056 17.5853 55.44H19.0612C18.8613 56.048 18.4973 56.548 17.9693 56.94C17.4493 57.324 16.8013 57.516 16.0253 57.516C15.3933 57.516 14.8253 57.376 14.3213 57.096C13.8253 56.808 13.4333 56.408 13.1453 55.896C12.8653 55.376 12.7253 54.776 12.7253 54.096C12.7253 53.416 12.8613 52.82 13.1333 52.308C13.4133 51.788 13.8013 51.388 14.2973 51.108C14.8013 50.828 15.3773 50.688 16.0253 50.688C16.6493 50.688 17.2053 50.824 17.6933 51.096C18.1813 51.368 18.5613 51.752 18.8333 52.248C19.1053 52.736 19.2413 53.3 19.2413 53.94ZM17.8133 53.508C17.8053 53.004 17.6253 52.6 17.2733 52.296C16.9213 51.992 16.4853 51.84 15.9653 51.84C15.4933 51.84 15.0893 51.992 14.7533 52.296C14.4173 52.592 14.2173 52.996 14.1533 53.508H17.8133ZM21.9555 51.756C22.1555 51.42 22.4195 51.16 22.7475 50.976C23.0835 50.784 23.4795 50.688 23.9355 50.688V52.104H23.5875C23.0515 52.104 22.6435 52.24 22.3635 52.512C22.0915 52.784 21.9555 53.256 21.9555 53.928V57.408H20.5875V50.796H21.9555V51.756ZM24.737 54.096C24.737 53.416 24.873 52.82 25.145 52.308C25.425 51.788 25.809 51.388 26.297 51.108C26.785 50.828 27.345 50.688 27.977 50.688C28.777 50.688 29.437 50.88 29.957 51.264C30.485 51.64 30.841 52.18 31.025 52.884H29.549C29.429 52.556 29.237 52.3 28.973 52.116C28.709 51.932 28.377 51.84 27.977 51.84C27.417 51.84 26.969 52.04 26.633 52.44C26.305 52.832 26.141 53.384 26.141 54.096C26.141 54.808 26.305 55.364 26.633 55.764C26.969 56.164 27.417 56.364 27.977 56.364C28.769 56.364 29.293 56.016 29.549 55.32H31.025C30.833 55.992 30.473 56.528 29.945 56.928C29.417 57.32 28.761 57.516 27.977 57.516C27.345 57.516 26.785 57.376 26.297 57.096C25.809 56.808 25.425 56.408 25.145 55.896C24.873 55.376 24.737 54.776 24.737 54.096ZM33.0843 49.92C32.8363 49.92 32.6283 49.836 32.4603 49.668C32.2923 49.5 32.2083 49.292 32.2083 49.044C32.2083 48.796 32.2923 48.588 32.4603 48.42C32.6283 48.252 32.8363 48.168 33.0843 48.168C33.3243 48.168 33.5283 48.252 33.6963 48.42C33.8643 48.588 33.9483 48.796 33.9483 49.044C33.9483 49.292 33.8643 49.5 33.6963 49.668C33.5283 49.836 33.3243 49.92 33.0843 49.92ZM33.7563 50.796V57.408H32.3883V50.796H33.7563ZM37.9523 57.516C37.4323 57.516 36.9643 57.424 36.5483 57.24C36.1403 57.048 35.8163 56.792 35.5763 56.472C35.3363 56.144 35.2083 55.78 35.1923 55.38H36.6083C36.6323 55.66 36.7643 55.896 37.0043 56.088C37.2523 56.272 37.5603 56.364 37.9283 56.364C38.3123 56.364 38.6083 56.292 38.8163 56.148C39.0323 55.996 39.1403 55.804 39.1403 55.572C39.1403 55.324 39.0203 55.14 38.7803 55.02C38.5483 54.9 38.1763 54.768 37.6643 54.624C37.1683 54.488 36.7643 54.356 36.4523 54.228C36.1403 54.1 35.8683 53.904 35.6363 53.64C35.4123 53.376 35.3003 53.028 35.3003 52.596C35.3003 52.244 35.4043 51.924 35.6123 51.636C35.8203 51.34 36.1163 51.108 36.5003 50.94C36.8923 50.772 37.3403 50.688 37.8443 50.688C38.5963 50.688 39.2003 50.88 39.6563 51.264C40.1203 51.64 40.3683 52.156 40.4003 52.812H39.0323C39.0083 52.516 38.8883 52.28 38.6723 52.104C38.4563 51.928 38.1643 51.84 37.7963 51.84C37.4363 51.84 37.1603 51.908 36.9683 52.044C36.7763 52.18 36.6803 52.36 36.6803 52.584C36.6803 52.76 36.7443 52.908 36.8723 53.028C37.0003 53.148 37.1563 53.244 37.3403 53.316C37.5243 53.38 37.7963 53.464 38.1563 53.568C38.6363 53.696 39.0283 53.828 39.3323 53.964C39.6443 54.092 39.9123 54.284 40.1363 54.54C40.3603 54.796 40.4763 55.136 40.4843 55.56C40.4843 55.936 40.3803 56.272 40.1723 56.568C39.9643 56.864 39.6683 57.096 39.2843 57.264C38.9083 57.432 38.4643 57.516 37.9523 57.516ZM48.0225 53.94C48.0225 54.188 48.0065 54.412 47.9745 54.612H42.9225C42.9625 55.14 43.1585 55.564 43.5105 55.884C43.8625 56.204 44.2945 56.364 44.8065 56.364C45.5425 56.364 46.0625 56.056 46.3665 55.44H47.8425C47.6425 56.048 47.2785 56.548 46.7505 56.94C46.2305 57.324 45.5825 57.516 44.8065 57.516C44.1745 57.516 43.6065 57.376 43.1025 57.096C42.6065 56.808 42.2145 56.408 41.9265 55.896C41.6465 55.376 41.5065 54.776 41.5065 54.096C41.5065 53.416 41.6425 52.82 41.9145 52.308C42.1945 51.788 42.5825 51.388 43.0785 51.108C43.5825 50.828 44.1585 50.688 44.8065 50.688C45.4305 50.688 45.9865 50.824 46.4745 51.096C46.9625 51.368 47.3425 51.752 47.6145 52.248C47.8865 52.736 48.0225 53.3 48.0225 53.94ZM46.5945 53.508C46.5865 53.004 46.4065 52.6 46.0545 52.296C45.7025 51.992 45.2665 51.84 44.7465 51.84C44.2745 51.84 43.8705 51.992 43.5345 52.296C43.1985 52.592 42.9985 52.996 42.9345 53.508H46.5945Z" fill="#2E3740"/>
<path opacity="0.5" fill-rule="evenodd" clip-rule="evenodd" d="M0 75.408H315H0Z" stroke="#CBDCF6" stroke-linecap="round"/>
<path d="M273.773 55.812H270.437L269.885 57.408H268.121L271.133 49.02H273.089L276.101 57.408H274.325L273.773 55.812ZM273.317 54.468L272.105 50.964L270.893 54.468H273.317ZM283.406 53.94C283.406 54.18 283.39 54.396 283.358 54.588H278.498C278.538 55.068 278.706 55.444 279.002 55.716C279.298 55.988 279.662 56.124 280.094 56.124C280.718 56.124 281.162 55.856 281.426 55.32H283.238C283.046 55.96 282.678 56.488 282.134 56.904C281.59 57.312 280.922 57.516 280.13 57.516C279.49 57.516 278.914 57.376 278.402 57.096C277.898 56.808 277.502 56.404 277.214 55.884C276.934 55.364 276.794 54.764 276.794 54.084C276.794 53.396 276.934 52.792 277.214 52.272C277.494 51.752 277.886 51.352 278.39 51.072C278.894 50.792 279.474 50.652 280.13 50.652C280.762 50.652 281.326 50.788 281.822 51.06C282.326 51.332 282.714 51.72 282.986 52.224C283.266 52.72 283.406 53.292 283.406 53.94ZM281.666 53.46C281.658 53.028 281.502 52.684 281.198 52.428C280.894 52.164 280.522 52.032 280.082 52.032C279.666 52.032 279.314 52.16 279.026 52.416C278.746 52.664 278.574 53.012 278.51 53.46H281.666ZM286.313 51.792C286.529 51.44 286.809 51.164 287.153 50.964C287.505 50.764 287.905 50.664 288.353 50.664V52.428H287.909C287.381 52.428 286.981 52.552 286.709 52.8C286.445 53.048 286.313 53.48 286.313 54.096V57.408H284.633V50.76H286.313V51.792ZM292.436 57.516C291.796 57.516 291.22 57.376 290.708 57.096C290.196 56.808 289.792 56.404 289.496 55.884C289.208 55.364 289.064 54.764 289.064 54.084C289.064 53.404 289.212 52.804 289.508 52.284C289.812 51.764 290.224 51.364 290.744 51.084C291.264 50.796 291.844 50.652 292.484 50.652C293.124 50.652 293.704 50.796 294.224 51.084C294.744 51.364 295.152 51.764 295.448 52.284C295.752 52.804 295.904 53.404 295.904 54.084C295.904 54.764 295.748 55.364 295.436 55.884C295.132 56.404 294.716 56.808 294.188 57.096C293.668 57.376 293.084 57.516 292.436 57.516ZM292.436 56.052C292.74 56.052 293.024 55.98 293.288 55.836C293.56 55.684 293.776 55.46 293.936 55.164C294.096 54.868 294.176 54.508 294.176 54.084C294.176 53.452 294.008 52.968 293.672 52.632C293.344 52.288 292.94 52.116 292.46 52.116C291.98 52.116 291.576 52.288 291.248 52.632C290.928 52.968 290.768 53.452 290.768 54.084C290.768 54.716 290.924 55.204 291.236 55.548C291.556 55.884 291.956 56.052 292.436 56.052ZM298.817 51.732C299.033 51.412 299.329 51.152 299.705 50.952C300.089 50.752 300.525 50.652 301.013 50.652C301.581 50.652 302.093 50.792 302.549 51.072C303.013 51.352 303.377 51.752 303.641 52.272C303.913 52.784 304.049 53.38 304.049 54.06C304.049 54.74 303.913 55.344 303.641 55.872C303.377 56.392 303.013 56.796 302.549 57.084C302.093 57.372 301.581 57.516 301.013 57.516C300.517 57.516 300.081 57.42 299.705 57.228C299.337 57.028 299.041 56.772 298.817 56.46V57.408H297.137V48.528H298.817V51.732ZM302.333 54.06C302.333 53.66 302.249 53.316 302.081 53.028C301.921 52.732 301.705 52.508 301.433 52.356C301.169 52.204 300.881 52.128 300.569 52.128C300.265 52.128 299.977 52.208 299.705 52.368C299.441 52.52 299.225 52.744 299.057 53.04C298.897 53.336 298.817 53.684 298.817 54.084C298.817 54.484 298.897 54.832 299.057 55.128C299.225 55.424 299.441 55.652 299.705 55.812C299.977 55.964 300.265 56.04 300.569 56.04C300.881 56.04 301.169 55.96 301.433 55.8C301.705 55.64 301.921 55.412 302.081 55.116C302.249 54.82 302.333 54.468 302.333 54.06ZM306.121 49.968C305.825 49.968 305.577 49.876 305.377 49.692C305.185 49.5 305.089 49.264 305.089 48.984C305.089 48.704 305.185 48.472 305.377 48.288C305.577 48.096 305.825 48 306.121 48C306.417 48 306.661 48.096 306.853 48.288C307.053 48.472 307.153 48.704 307.153 48.984C307.153 49.264 307.053 49.5 306.853 49.692C306.661 49.876 306.417 49.968 306.121 49.968ZM306.949 50.76V57.408H305.269V50.76H306.949ZM308.177 54.084C308.177 53.396 308.317 52.796 308.597 52.284C308.877 51.764 309.265 51.364 309.761 51.084C310.257 50.796 310.825 50.652 311.465 50.652C312.289 50.652 312.969 50.86 313.505 51.276C314.049 51.684 314.413 52.26 314.597 53.004H312.785C312.689 52.716 312.525 52.492 312.293 52.332C312.069 52.164 311.789 52.08 311.453 52.08C310.973 52.08 310.593 52.256 310.313 52.608C310.033 52.952 309.893 53.444 309.893 54.084C309.893 54.716 310.033 55.208 310.313 55.56C310.593 55.904 310.973 56.076 311.453 56.076C312.133 56.076 312.577 55.772 312.785 55.164H314.597C314.413 55.884 314.049 56.456 313.505 56.88C312.961 57.304 312.281 57.516 311.465 57.516C310.825 57.516 310.257 57.376 309.761 57.096C309.265 56.808 308.877 56.408 308.597 55.896C308.317 55.376 308.177 54.772 308.177 54.084Z" fill="#1E212D"/>
<path d="M5.496 105.408L2.268 101.676V105.408H0.9V97.068H2.268V100.872L5.508 97.068H7.224L3.6 101.244L7.284 105.408H5.496ZM9.18975 97.92C8.94175 97.92 8.73375 97.836 8.56575 97.668C8.39775 97.5 8.31375 97.292 8.31375 97.044C8.31375 96.796 8.39775 96.588 8.56575 96.42C8.73375 96.252 8.94175 96.168 9.18975 96.168C9.42975 96.168 9.63375 96.252 9.80175 96.42C9.96975 96.588 10.0538 96.796 10.0538 97.044C10.0538 97.292 9.96975 97.5 9.80175 97.668C9.63375 97.836 9.42975 97.92 9.18975 97.92ZM9.86175 98.796V105.408H8.49375V98.796H9.86175ZM11.2018 102.072C11.2018 101.408 11.3378 100.82 11.6098 100.308C11.8898 99.796 12.2658 99.4 12.7378 99.12C13.2178 98.832 13.7498 98.688 14.3338 98.688C14.7658 98.688 15.1898 98.784 15.6058 98.976C16.0298 99.16 16.3658 99.408 16.6138 99.72V96.528H17.9938V105.408H16.6138V104.412C16.3898 104.732 16.0778 104.996 15.6778 105.204C15.2858 105.412 14.8338 105.516 14.3218 105.516C13.7458 105.516 13.2178 105.372 12.7378 105.084C12.2658 104.788 11.8898 104.38 11.6098 103.86C11.3378 103.332 11.2018 102.736 11.2018 102.072ZM16.6138 102.096C16.6138 101.64 16.5178 101.244 16.3258 100.908C16.1418 100.572 15.8978 100.316 15.5938 100.14C15.2898 99.964 14.9618 99.876 14.6098 99.876C14.2578 99.876 13.9298 99.964 13.6258 100.14C13.3218 100.308 13.0738 100.56 12.8818 100.896C12.6978 101.224 12.6058 101.616 12.6058 102.072C12.6058 102.528 12.6978 102.928 12.8818 103.272C13.0738 103.616 13.3218 103.88 13.6258 104.064C13.9378 104.24 14.2658 104.328 14.6098 104.328C14.9618 104.328 15.2898 104.24 15.5938 104.064C15.8978 103.888 16.1418 103.632 16.3258 103.296C16.5178 102.952 16.6138 102.552 16.6138 102.096ZM22.1906 105.516C21.6706 105.516 21.2026 105.424 20.7866 105.24C20.3786 105.048 20.0546 104.792 19.8146 104.472C19.5746 104.144 19.4466 103.78 19.4306 103.38H20.8466C20.8706 103.66 21.0026 103.896 21.2426 104.088C21.4906 104.272 21.7986 104.364 22.1666 104.364C22.5506 104.364 22.8466 104.292 23.0546 104.148C23.2706 103.996 23.3786 103.804 23.3786 103.572C23.3786 103.324 23.2586 103.14 23.0186 103.02C22.7866 102.9 22.4146 102.768 21.9026 102.624C21.4066 102.488 21.0026 102.356 20.6906 102.228C20.3786 102.1 20.1066 101.904 19.8746 101.64C19.6506 101.376 19.5386 101.028 19.5386 100.596C19.5386 100.244 19.6426 99.924 19.8506 99.636C20.0586 99.34 20.3546 99.108 20.7386 98.94C21.1306 98.772 21.5786 98.688 22.0826 98.688C22.8346 98.688 23.4386 98.88 23.8946 99.264C24.3586 99.64 24.6066 100.156 24.6386 100.812H23.2706C23.2466 100.516 23.1266 100.28 22.9106 100.104C22.6946 99.928 22.4026 99.84 22.0346 99.84C21.6746 99.84 21.3986 99.908 21.2066 100.044C21.0146 100.18 20.9186 100.36 20.9186 100.584C20.9186 100.76 20.9826 100.908 21.1106 101.028C21.2386 101.148 21.3946 101.244 21.5786 101.316C21.7626 101.38 22.0346 101.464 22.3946 101.568C22.8746 101.696 23.2666 101.828 23.5706 101.964C23.8826 102.092 24.1506 102.284 24.3746 102.54C24.5986 102.796 24.7146 103.136 24.7226 103.56C24.7226 103.936 24.6186 104.272 24.4106 104.568C24.2026 104.864 23.9066 105.096 23.5226 105.264C23.1466 105.432 22.7026 105.516 22.1906 105.516Z" fill="#2E3740"/>
<path opacity="0.5" fill-rule="evenodd" clip-rule="evenodd" d="M0 123.408H315H0Z" stroke="#CBDCF6" stroke-linecap="round"/>
<path d="M277.687 105.408H276.007L272.203 99.66V105.408H270.523V97.02H272.203L276.007 102.78V97.02H277.687V105.408ZM282.3 105.516C281.66 105.516 281.084 105.376 280.572 105.096C280.06 104.808 279.656 104.404 279.36 103.884C279.072 103.364 278.928 102.764 278.928 102.084C278.928 101.404 279.076 100.804 279.372 100.284C279.676 99.764 280.088 99.364 280.608 99.084C281.128 98.796 281.708 98.652 282.348 98.652C282.988 98.652 283.568 98.796 284.088 99.084C284.608 99.364 285.016 99.764 285.312 100.284C285.616 100.804 285.768 101.404 285.768 102.084C285.768 102.764 285.612 103.364 285.3 103.884C284.996 104.404 284.58 104.808 284.052 105.096C283.532 105.376 282.948 105.516 282.3 105.516ZM282.3 104.052C282.604 104.052 282.888 103.98 283.152 103.836C283.424 103.684 283.64 103.46 283.8 103.164C283.96 102.868 284.04 102.508 284.04 102.084C284.04 101.452 283.872 100.968 283.536 100.632C283.208 100.288 282.804 100.116 282.324 100.116C281.844 100.116 281.44 100.288 281.112 100.632C280.792 100.968 280.632 101.452 280.632 102.084C280.632 102.716 280.788 103.204 281.1 103.548C281.42 103.884 281.82 104.052 282.3 104.052ZM294.587 105.408L291.539 101.676V105.408H289.859V97.032H291.539V100.788L294.587 97.032H296.615L293.159 101.184L296.711 105.408H294.587ZM298.668 97.968C298.372 97.968 298.124 97.876 297.924 97.692C297.732 97.5 297.636 97.264 297.636 96.984C297.636 96.704 297.732 96.472 297.924 96.288C298.124 96.096 298.372 96 298.668 96C298.964 96 299.208 96.096 299.4 96.288C299.6 96.472 299.7 96.704 299.7 96.984C299.7 97.264 299.6 97.5 299.4 97.692C299.208 97.876 298.964 97.968 298.668 97.968ZM299.496 98.76V105.408H297.816V98.76H299.496ZM300.724 102.06C300.724 101.388 300.856 100.792 301.12 100.272C301.392 99.752 301.76 99.352 302.224 99.072C302.688 98.792 303.204 98.652 303.772 98.652C304.204 98.652 304.616 98.748 305.008 98.94C305.4 99.124 305.712 99.372 305.944 99.684V96.528H307.648V105.408H305.944V104.424C305.736 104.752 305.444 105.016 305.068 105.216C304.692 105.416 304.256 105.516 303.76 105.516C303.2 105.516 302.688 105.372 302.224 105.084C301.76 104.796 301.392 104.392 301.12 103.872C300.856 103.344 300.724 102.74 300.724 102.06ZM305.956 102.084C305.956 101.676 305.876 101.328 305.716 101.04C305.556 100.744 305.34 100.52 305.068 100.368C304.796 100.208 304.504 100.128 304.192 100.128C303.88 100.128 303.592 100.204 303.328 100.356C303.064 100.508 302.848 100.732 302.68 101.028C302.52 101.316 302.44 101.66 302.44 102.06C302.44 102.46 302.52 102.812 302.68 103.116C302.848 103.412 303.064 103.64 303.328 103.8C303.6 103.96 303.888 104.04 304.192 104.04C304.504 104.04 304.796 103.964 305.068 103.812C305.34 103.652 305.556 103.428 305.716 103.14C305.876 102.844 305.956 102.492 305.956 102.084ZM311.833 105.516C311.289 105.516 310.801 105.42 310.369 105.228C309.937 105.028 309.593 104.76 309.337 104.424C309.089 104.088 308.953 103.716 308.929 103.308H310.621C310.653 103.564 310.777 103.776 310.993 103.944C311.217 104.112 311.493 104.196 311.821 104.196C312.141 104.196 312.389 104.132 312.565 104.004C312.749 103.876 312.841 103.712 312.841 103.512C312.841 103.296 312.729 103.136 312.505 103.032C312.289 102.92 311.941 102.8 311.461 102.672C310.965 102.552 310.557 102.428 310.237 102.3C309.925 102.172 309.653 101.976 309.421 101.712C309.197 101.448 309.085 101.092 309.085 100.644C309.085 100.276 309.189 99.94 309.397 99.636C309.613 99.332 309.917 99.092 310.309 98.916C310.709 98.74 311.177 98.652 311.713 98.652C312.505 98.652 313.137 98.852 313.609 99.252C314.081 99.644 314.341 100.176 314.389 100.848H312.781C312.757 100.584 312.645 100.376 312.445 100.224C312.253 100.064 311.993 99.984 311.665 99.984C311.361 99.984 311.125 100.04 310.957 100.152C310.797 100.264 310.717 100.42 310.717 100.62C310.717 100.844 310.829 101.016 311.053 101.136C311.277 101.248 311.625 101.364 312.097 101.484C312.577 101.604 312.973 101.728 313.285 101.856C313.597 101.984 313.865 102.184 314.089 102.456C314.321 102.72 314.441 103.072 314.449 103.512C314.449 103.896 314.341 104.24 314.125 104.544C313.917 104.848 313.613 105.088 313.213 105.264C312.821 105.432 312.361 105.516 311.833 105.516Z" fill="#1E212D"/>
<path d="M5.232 153.408L3.312 150.072H2.268V153.408H0.9V145.068H3.78C4.42 145.068 4.96 145.18 5.4 145.404C5.848 145.628 6.18 145.928 6.396 146.304C6.62 146.68 6.732 147.1 6.732 147.564C6.732 148.108 6.572 148.604 6.252 149.052C5.94 149.492 5.456 149.792 4.8 149.952L6.864 153.408H5.232ZM2.268 148.98H3.78C4.292 148.98 4.676 148.852 4.932 148.596C5.196 148.34 5.328 147.996 5.328 147.564C5.328 147.132 5.2 146.796 4.944 146.556C4.688 146.308 4.3 146.184 3.78 146.184H2.268V148.98ZM14.542 149.94C14.542 150.188 14.526 150.412 14.494 150.612H9.44203C9.48203 151.14 9.67803 151.564 10.03 151.884C10.382 152.204 10.814 152.364 11.326 152.364C12.062 152.364 12.582 152.056 12.886 151.44H14.362C14.162 152.048 13.798 152.548 13.27 152.94C12.75 153.324 12.102 153.516 11.326 153.516C10.694 153.516 10.126 153.376 9.62203 153.096C9.12603 152.808 8.73403 152.408 8.44603 151.896C8.16603 151.376 8.02603 150.776 8.02603 150.096C8.02603 149.416 8.16203 148.82 8.43403 148.308C8.71403 147.788 9.10203 147.388 9.59803 147.108C10.102 146.828 10.678 146.688 11.326 146.688C11.95 146.688 12.506 146.824 12.994 147.096C13.482 147.368 13.862 147.752 14.134 148.248C14.406 148.736 14.542 149.3 14.542 149.94ZM13.114 149.508C13.106 149.004 12.926 148.6 12.574 148.296C12.222 147.992 11.786 147.84 11.266 147.84C10.794 147.84 10.39 147.992 10.054 148.296C9.71803 148.592 9.51803 148.996 9.45403 149.508H13.114ZM17.2563 144.528V153.408H15.8883V144.528H17.2563ZM18.5963 150.072C18.5963 149.408 18.7323 148.82 19.0043 148.308C19.2843 147.796 19.6603 147.4 20.1323 147.12C20.6123 146.832 21.1403 146.688 21.7163 146.688C22.2363 146.688 22.6883 146.792 23.0723 147C23.4643 147.2 23.7763 147.452 24.0083 147.756V146.796H25.3883V153.408H24.0083V152.424C23.7763 152.736 23.4603 152.996 23.0603 153.204C22.6603 153.412 22.2043 153.516 21.6923 153.516C21.1243 153.516 20.6043 153.372 20.1323 153.084C19.6603 152.788 19.2843 152.38 19.0043 151.86C18.7323 151.332 18.5963 150.736 18.5963 150.072ZM24.0083 150.096C24.0083 149.64 23.9123 149.244 23.7203 148.908C23.5363 148.572 23.2923 148.316 22.9883 148.14C22.6843 147.964 22.3563 147.876 22.0043 147.876C21.6523 147.876 21.3243 147.964 21.0203 148.14C20.7163 148.308 20.4683 148.56 20.2763 148.896C20.0923 149.224 20.0003 149.616 20.0003 150.072C20.0003 150.528 20.0923 150.928 20.2763 151.272C20.4683 151.616 20.7163 151.88 21.0203 152.064C21.3323 152.24 21.6603 152.328 22.0043 152.328C22.3563 152.328 22.6843 152.24 22.9883 152.064C23.2923 151.888 23.5363 151.632 23.7203 151.296C23.9123 150.952 24.0083 150.552 24.0083 150.096ZM28.7812 147.912V151.572C28.7812 151.82 28.8372 152 28.9492 152.112C29.0692 152.216 29.2692 152.268 29.5492 152.268H30.3892V153.408H29.3092C28.6932 153.408 28.2212 153.264 27.8932 152.976C27.5652 152.688 27.4012 152.22 27.4012 151.572V147.912H26.6212V146.796H27.4012V145.152H28.7812V146.796H30.3892V147.912H28.7812ZM32.346 145.92C32.098 145.92 31.89 145.836 31.722 145.668C31.554 145.5 31.47 145.292 31.47 145.044C31.47 144.796 31.554 144.588 31.722 144.42C31.89 144.252 32.098 144.168 32.346 144.168C32.586 144.168 32.79 144.252 32.958 144.42C33.126 144.588 33.21 144.796 33.21 145.044C33.21 145.292 33.126 145.5 32.958 145.668C32.79 145.836 32.586 145.92 32.346 145.92ZM33.018 146.796V153.408H31.65V146.796H33.018ZM37.6821 153.516C37.0581 153.516 36.4941 153.376 35.9901 153.096C35.4861 152.808 35.0901 152.408 34.8021 151.896C34.5141 151.376 34.3701 150.776 34.3701 150.096C34.3701 149.424 34.5181 148.828 34.8141 148.308C35.1101 147.788 35.5141 147.388 36.0261 147.108C36.5381 146.828 37.1101 146.688 37.7421 146.688C38.3741 146.688 38.9461 146.828 39.4581 147.108C39.9701 147.388 40.3741 147.788 40.6701 148.308C40.9661 148.828 41.1141 149.424 41.1141 150.096C41.1141 150.768 40.9621 151.364 40.6581 151.884C40.3541 152.404 39.9381 152.808 39.4101 153.096C38.8901 153.376 38.3141 153.516 37.6821 153.516ZM37.6821 152.328C38.0341 152.328 38.3621 152.244 38.6661 152.076C38.9781 151.908 39.2301 151.656 39.4221 151.32C39.6141 150.984 39.7101 150.576 39.7101 150.096C39.7101 149.616 39.6181 149.212 39.4341 148.884C39.2501 148.548 39.0061 148.296 38.7021 148.128C38.3981 147.96 38.0701 147.876 37.7181 147.876C37.3661 147.876 37.0381 147.96 36.7341 148.128C36.4381 148.296 36.2021 148.548 36.0261 148.884C35.8501 149.212 35.7621 149.616 35.7621 150.096C35.7621 150.808 35.9421 151.36 36.3021 151.752C36.6701 152.136 37.1301 152.328 37.6821 152.328ZM45.8024 146.688C46.3224 146.688 46.7864 146.796 47.1944 147.012C47.6104 147.228 47.9344 147.548 48.1664 147.972C48.3984 148.396 48.5144 148.908 48.5144 149.508V153.408H47.1584V149.712C47.1584 149.12 47.0104 148.668 46.7144 148.356C46.4184 148.036 46.0144 147.876 45.5024 147.876C44.9904 147.876 44.5824 148.036 44.2784 148.356C43.9824 148.668 43.8344 149.12 43.8344 149.712V153.408H42.4664V146.796H43.8344V147.552C44.0584 147.28 44.3424 147.068 44.6864 146.916C45.0384 146.764 45.4104 146.688 45.8024 146.688ZM52.6594 153.516C52.1394 153.516 51.6714 153.424 51.2554 153.24C50.8474 153.048 50.5234 152.792 50.2834 152.472C50.0434 152.144 49.9154 151.78 49.8994 151.38H51.3154C51.3394 151.66 51.4714 151.896 51.7114 152.088C51.9594 152.272 52.2674 152.364 52.6354 152.364C53.0194 152.364 53.3154 152.292 53.5234 152.148C53.7394 151.996 53.8474 151.804 53.8474 151.572C53.8474 151.324 53.7274 151.14 53.4874 151.02C53.2554 150.9 52.8834 150.768 52.3714 150.624C51.8754 150.488 51.4714 150.356 51.1594 150.228C50.8474 150.1 50.5754 149.904 50.3434 149.64C50.1194 149.376 50.0074 149.028 50.0074 148.596C50.0074 148.244 50.1114 147.924 50.3194 147.636C50.5274 147.34 50.8234 147.108 51.2074 146.94C51.5994 146.772 52.0474 146.688 52.5514 146.688C53.3034 146.688 53.9074 146.88 54.3634 147.264C54.8274 147.64 55.0754 148.156 55.1074 148.812H53.7394C53.7154 148.516 53.5954 148.28 53.3794 148.104C53.1634 147.928 52.8714 147.84 52.5034 147.84C52.1434 147.84 51.8674 147.908 51.6754 148.044C51.4834 148.18 51.3874 148.36 51.3874 148.584C51.3874 148.76 51.4514 148.908 51.5794 149.028C51.7074 149.148 51.8634 149.244 52.0474 149.316C52.2314 149.38 52.5034 149.464 52.8634 149.568C53.3434 149.696 53.7354 149.828 54.0394 149.964C54.3514 150.092 54.6194 150.284 54.8434 150.54C55.0674 150.796 55.1834 151.136 55.1914 151.56C55.1914 151.936 55.0874 152.272 54.8794 152.568C54.6714 152.864 54.3754 153.096 53.9914 153.264C53.6154 153.432 53.1714 153.516 52.6594 153.516ZM60.0895 146.688C60.5935 146.688 61.0415 146.796 61.4335 147.012C61.8335 147.228 62.1455 147.548 62.3695 147.972C62.6015 148.396 62.7175 148.908 62.7175 149.508V153.408H61.3615V149.712C61.3615 149.12 61.2135 148.668 60.9175 148.356C60.6215 148.036 60.2175 147.876 59.7055 147.876C59.1935 147.876 58.7855 148.036 58.4815 148.356C58.1855 148.668 58.0375 149.12 58.0375 149.712V153.408H56.6695V144.528H58.0375V147.564C58.2695 147.284 58.5615 147.068 58.9135 146.916C59.2735 146.764 59.6655 146.688 60.0895 146.688ZM65.1585 145.92C64.9105 145.92 64.7025 145.836 64.5345 145.668C64.3665 145.5 64.2825 145.292 64.2825 145.044C64.2825 144.796 64.3665 144.588 64.5345 144.42C64.7025 144.252 64.9105 144.168 65.1585 144.168C65.3985 144.168 65.6025 144.252 65.7705 144.42C65.9385 144.588 66.0225 144.796 66.0225 145.044C66.0225 145.292 65.9385 145.5 65.7705 145.668C65.6025 145.836 65.3985 145.92 65.1585 145.92ZM65.8305 146.796V153.408H64.4625V146.796H65.8305ZM68.9946 147.768C69.2266 147.464 69.5426 147.208 69.9426 147C70.3426 146.792 70.7946 146.688 71.2986 146.688C71.8746 146.688 72.3986 146.832 72.8706 147.12C73.3506 147.4 73.7266 147.796 73.9986 148.308C74.2706 148.82 74.4066 149.408 74.4066 150.072C74.4066 150.736 74.2706 151.332 73.9986 151.86C73.7266 152.38 73.3506 152.788 72.8706 153.084C72.3986 153.372 71.8746 153.516 71.2986 153.516C70.7946 153.516 70.3466 153.416 69.9546 153.216C69.5626 153.008 69.2426 152.752 68.9946 152.448V156.552H67.6266V146.796H68.9946V147.768ZM73.0146 150.072C73.0146 149.616 72.9186 149.224 72.7266 148.896C72.5426 148.56 72.2946 148.308 71.9826 148.14C71.6786 147.964 71.3506 147.876 70.9986 147.876C70.6546 147.876 70.3266 147.964 70.0146 148.14C69.7106 148.316 69.4626 148.572 69.2706 148.908C69.0866 149.244 68.9946 149.64 68.9946 150.096C68.9946 150.552 69.0866 150.952 69.2706 151.296C69.4626 151.632 69.7106 151.888 70.0146 152.064C70.3266 152.24 70.6546 152.328 70.9986 152.328C71.3506 152.328 71.6786 152.24 71.9826 152.064C72.2946 151.88 72.5426 151.616 72.7266 151.272C72.9186 150.928 73.0146 150.528 73.0146 150.072ZM84.9126 147.468C84.6966 147.052 84.3966 146.74 84.0126 146.532C83.6286 146.316 83.1846 146.208 82.6806 146.208C82.1286 146.208 81.6366 146.332 81.2046 146.58C80.7726 146.828 80.4326 147.18 80.1846 147.636C79.9446 148.092 79.8246 148.62 79.8246 149.22C79.8246 149.82 79.9446 150.352 80.1846 150.816C80.4326 151.272 80.7726 151.624 81.2046 151.872C81.6366 152.12 82.1286 152.244 82.6806 152.244C83.4246 152.244 84.0286 152.036 84.4926 151.62C84.9566 151.204 85.2406 150.64 85.3446 149.928H82.2126V148.836H86.8086V149.904C86.7206 150.552 86.4886 151.148 86.1126 151.692C85.7446 152.236 85.2606 152.672 84.6606 153C84.0686 153.32 83.4086 153.48 82.6806 153.48C81.8966 153.48 81.1806 153.3 80.5326 152.94C79.8846 152.572 79.3686 152.064 78.9846 151.416C78.6086 150.768 78.4206 150.036 78.4206 149.22C78.4206 148.404 78.6086 147.672 78.9846 147.024C79.3686 146.376 79.8846 145.872 80.5326 145.512C81.1886 145.144 81.9046 144.96 82.6806 144.96C83.5686 144.96 84.3566 145.18 85.0446 145.62C85.7406 146.052 86.2446 146.668 86.5566 147.468H84.9126ZM91.0258 153.516C90.4018 153.516 89.8378 153.376 89.3338 153.096C88.8298 152.808 88.4338 152.408 88.1458 151.896C87.8578 151.376 87.7138 150.776 87.7138 150.096C87.7138 149.424 87.8618 148.828 88.1578 148.308C88.4538 147.788 88.8578 147.388 89.3698 147.108C89.8818 146.828 90.4538 146.688 91.0858 146.688C91.7178 146.688 92.2898 146.828 92.8018 147.108C93.3138 147.388 93.7178 147.788 94.0138 148.308C94.3098 148.828 94.4578 149.424 94.4578 150.096C94.4578 150.768 94.3058 151.364 94.0018 151.884C93.6978 152.404 93.2818 152.808 92.7538 153.096C92.2338 153.376 91.6578 153.516 91.0258 153.516ZM91.0258 152.328C91.3778 152.328 91.7058 152.244 92.0098 152.076C92.3218 151.908 92.5738 151.656 92.7658 151.32C92.9578 150.984 93.0538 150.576 93.0538 150.096C93.0538 149.616 92.9618 149.212 92.7778 148.884C92.5938 148.548 92.3498 148.296 92.0458 148.128C91.7418 147.96 91.4138 147.876 91.0618 147.876C90.7098 147.876 90.3818 147.96 90.0778 148.128C89.7818 148.296 89.5458 148.548 89.3698 148.884C89.1938 149.212 89.1058 149.616 89.1058 150.096C89.1058 150.808 89.2858 151.36 89.6458 151.752C90.0138 152.136 90.4738 152.328 91.0258 152.328ZM95.3542 150.072C95.3542 149.408 95.4902 148.82 95.7622 148.308C96.0422 147.796 96.4182 147.4 96.8902 147.12C97.3702 146.832 97.8982 146.688 98.4742 146.688C98.9942 146.688 99.4462 146.792 99.8302 147C100.222 147.2 100.534 147.452 100.766 147.756V146.796H102.146V153.408H100.766V152.424C100.534 152.736 100.218 152.996 99.8182 153.204C99.4182 153.412 98.9622 153.516 98.4502 153.516C97.8822 153.516 97.3622 153.372 96.8902 153.084C96.4182 152.788 96.0422 152.38 95.7622 151.86C95.4902 151.332 95.3542 150.736 95.3542 150.072ZM100.766 150.096C100.766 149.64 100.67 149.244 100.478 148.908C100.294 148.572 100.05 148.316 99.7462 148.14C99.4422 147.964 99.1142 147.876 98.7622 147.876C98.4102 147.876 98.0822 147.964 97.7782 148.14C97.4742 148.308 97.2262 148.56 97.0342 148.896C96.8502 149.224 96.7582 149.616 96.7582 150.072C96.7582 150.528 96.8502 150.928 97.0342 151.272C97.2262 151.616 97.4742 151.88 97.7782 152.064C98.0902 152.24 98.4182 152.328 98.7622 152.328C99.1142 152.328 99.4422 152.24 99.7462 152.064C100.05 151.888 100.294 151.632 100.478 151.296C100.67 150.952 100.766 150.552 100.766 150.096ZM105.311 144.528V153.408H103.943V144.528H105.311ZM109.507 153.516C108.987 153.516 108.519 153.424 108.103 153.24C107.695 153.048 107.371 152.792 107.131 152.472C106.891 152.144 106.763 151.78 106.747 151.38H108.163C108.187 151.66 108.319 151.896 108.559 152.088C108.807 152.272 109.115 152.364 109.483 152.364C109.867 152.364 110.163 152.292 110.371 152.148C110.587 151.996 110.695 151.804 110.695 151.572C110.695 151.324 110.575 151.14 110.335 151.02C110.103 150.9 109.731 150.768 109.219 150.624C108.723 150.488 108.319 150.356 108.007 150.228C107.695 150.1 107.423 149.904 107.191 149.64C106.967 149.376 106.855 149.028 106.855 148.596C106.855 148.244 106.959 147.924 107.167 147.636C107.375 147.34 107.671 147.108 108.055 146.94C108.447 146.772 108.895 146.688 109.399 146.688C110.151 146.688 110.755 146.88 111.211 147.264C111.675 147.64 111.923 148.156 111.955 148.812H110.587C110.563 148.516 110.443 148.28 110.227 148.104C110.011 147.928 109.719 147.84 109.351 147.84C108.991 147.84 108.715 147.908 108.523 148.044C108.331 148.18 108.235 148.36 108.235 148.584C108.235 148.76 108.299 148.908 108.427 149.028C108.555 149.148 108.711 149.244 108.895 149.316C109.079 149.38 109.351 149.464 109.711 149.568C110.191 149.696 110.583 149.828 110.887 149.964C111.199 150.092 111.467 150.284 111.691 150.54C111.915 150.796 112.031 151.136 112.039 151.56C112.039 151.936 111.935 152.272 111.727 152.568C111.519 152.864 111.223 153.096 110.839 153.264C110.463 153.432 110.019 153.516 109.507 153.516Z" fill="#2E3740"/>
<path opacity="0.5" fill-rule="evenodd" clip-rule="evenodd" d="M0 171.408H315H0Z" stroke="#CBDCF6" stroke-linecap="round"/>
<path d="M249.129 152.076H251.889V153.408H247.449V145.032H249.129V152.076ZM253.809 145.968C253.513 145.968 253.265 145.876 253.065 145.692C252.873 145.5 252.777 145.264 252.777 144.984C252.777 144.704 252.873 144.472 253.065 144.288C253.265 144.096 253.513 144 253.809 144C254.105 144 254.349 144.096 254.541 144.288C254.741 144.472 254.841 144.704 254.841 144.984C254.841 145.264 254.741 145.5 254.541 145.692C254.349 145.876 254.105 145.968 253.809 145.968ZM254.637 146.76V153.408H252.957V146.76H254.637ZM259.345 148.14H258.181V153.408H256.477V148.14H255.721V146.76H256.477V146.424C256.477 145.608 256.709 145.008 257.173 144.624C257.637 144.24 258.337 144.06 259.273 144.084V145.5C258.865 145.492 258.581 145.56 258.421 145.704C258.261 145.848 258.181 146.108 258.181 146.484V146.76H259.345V148.14ZM266.613 149.94C266.613 150.18 266.597 150.396 266.565 150.588H261.705C261.745 151.068 261.913 151.444 262.209 151.716C262.505 151.988 262.869 152.124 263.301 152.124C263.925 152.124 264.369 151.856 264.633 151.32H266.445C266.253 151.96 265.885 152.488 265.341 152.904C264.797 153.312 264.129 153.516 263.337 153.516C262.697 153.516 262.121 153.376 261.609 153.096C261.105 152.808 260.709 152.404 260.421 151.884C260.141 151.364 260.001 150.764 260.001 150.084C260.001 149.396 260.141 148.792 260.421 148.272C260.701 147.752 261.093 147.352 261.597 147.072C262.101 146.792 262.681 146.652 263.337 146.652C263.969 146.652 264.533 146.788 265.029 147.06C265.533 147.332 265.921 147.72 266.193 148.224C266.473 148.72 266.613 149.292 266.613 149.94ZM264.873 149.46C264.865 149.028 264.709 148.684 264.405 148.428C264.101 148.164 263.729 148.032 263.289 148.032C262.873 148.032 262.521 148.16 262.233 148.416C261.953 148.664 261.781 149.012 261.717 149.46H264.873ZM276.807 147.624C276.807 148.072 276.699 148.492 276.483 148.884C276.275 149.276 275.943 149.592 275.487 149.832C275.039 150.072 274.471 150.192 273.783 150.192H272.379V153.408H270.699V145.032H273.783C274.431 145.032 274.983 145.144 275.439 145.368C275.895 145.592 276.235 145.9 276.459 146.292C276.691 146.684 276.807 147.128 276.807 147.624ZM273.711 148.836C274.175 148.836 274.519 148.732 274.743 148.524C274.967 148.308 275.079 148.008 275.079 147.624C275.079 146.808 274.623 146.4 273.711 146.4H272.379V148.836H273.711ZM277.568 150.06C277.568 149.388 277.7 148.792 277.964 148.272C278.236 147.752 278.6 147.352 279.056 147.072C279.52 146.792 280.036 146.652 280.604 146.652C281.1 146.652 281.532 146.752 281.9 146.952C282.276 147.152 282.576 147.404 282.8 147.708V146.76H284.492V153.408H282.8V152.436C282.584 152.748 282.284 153.008 281.9 153.216C281.524 153.416 281.088 153.516 280.592 153.516C280.032 153.516 279.52 153.372 279.056 153.084C278.6 152.796 278.236 152.392 277.964 151.872C277.7 151.344 277.568 150.74 277.568 150.06ZM282.8 150.084C282.8 149.676 282.72 149.328 282.56 149.04C282.4 148.744 282.184 148.52 281.912 148.368C281.64 148.208 281.348 148.128 281.036 148.128C280.724 148.128 280.436 148.204 280.172 148.356C279.908 148.508 279.692 148.732 279.524 149.028C279.364 149.316 279.284 149.66 279.284 150.06C279.284 150.46 279.364 150.812 279.524 151.116C279.692 151.412 279.908 151.64 280.172 151.8C280.444 151.96 280.732 152.04 281.036 152.04C281.348 152.04 281.64 151.964 281.912 151.812C282.184 151.652 282.4 151.428 282.56 151.14C282.72 150.844 282.8 150.492 282.8 150.084ZM287.813 147.792C288.029 147.44 288.309 147.164 288.653 146.964C289.005 146.764 289.405 146.664 289.853 146.664V148.428H289.409C288.881 148.428 288.481 148.552 288.209 148.8C287.945 149.048 287.813 149.48 287.813 150.096V153.408H286.133V146.76H287.813V147.792ZM292.94 148.14V151.356C292.94 151.58 292.992 151.744 293.096 151.848C293.208 151.944 293.392 151.992 293.648 151.992H294.428V153.408H293.372C291.956 153.408 291.248 152.72 291.248 151.344V148.14H290.456V146.76H291.248V145.116H292.94V146.76H294.428V148.14H292.94ZM299.321 146.664C300.113 146.664 300.753 146.916 301.241 147.42C301.729 147.916 301.973 148.612 301.973 149.508V153.408H300.293V149.736C300.293 149.208 300.161 148.804 299.897 148.524C299.633 148.236 299.273 148.092 298.817 148.092C298.353 148.092 297.985 148.236 297.713 148.524C297.449 148.804 297.317 149.208 297.317 149.736V153.408H295.637V146.76H297.317V147.588C297.541 147.3 297.825 147.076 298.169 146.916C298.521 146.748 298.905 146.664 299.321 146.664ZM309.75 149.94C309.75 150.18 309.734 150.396 309.702 150.588H304.842C304.882 151.068 305.05 151.444 305.346 151.716C305.642 151.988 306.006 152.124 306.438 152.124C307.062 152.124 307.506 151.856 307.77 151.32H309.582C309.39 151.96 309.022 152.488 308.478 152.904C307.934 153.312 307.266 153.516 306.474 153.516C305.834 153.516 305.258 153.376 304.746 153.096C304.242 152.808 303.846 152.404 303.558 151.884C303.278 151.364 303.138 150.764 303.138 150.084C303.138 149.396 303.278 148.792 303.558 148.272C303.838 147.752 304.23 147.352 304.734 147.072C305.238 146.792 305.818 146.652 306.474 146.652C307.106 146.652 307.67 146.788 308.166 147.06C308.67 147.332 309.058 147.72 309.33 148.224C309.61 148.72 309.75 149.292 309.75 149.94ZM308.01 149.46C308.002 149.028 307.846 148.684 307.542 148.428C307.238 148.164 306.866 148.032 306.426 148.032C306.01 148.032 305.658 148.16 305.37 148.416C305.09 148.664 304.918 149.012 304.854 149.46H308.01ZM312.656 147.792C312.872 147.44 313.152 147.164 313.496 146.964C313.848 146.764 314.248 146.664 314.696 146.664V148.428H314.252C313.724 148.428 313.324 148.552 313.052 148.8C312.788 149.048 312.656 149.48 312.656 150.096V153.408H310.976V146.76H312.656V147.792Z" fill="#1E212D"/>
<path d="M2.268 194.172V196.62H5.148V197.736H2.268V200.292H5.508V201.408H0.9V193.056H5.508V194.172H2.268ZM8.78897 195.912V199.572C8.78897 199.82 8.84497 200 8.95697 200.112C9.07697 200.216 9.27697 200.268 9.55697 200.268H10.397V201.408H9.31697C8.70097 201.408 8.22897 201.264 7.90097 200.976C7.57297 200.688 7.40897 200.22 7.40897 199.572V195.912H6.62897V194.796H7.40897V193.152H8.78897V194.796H10.397V195.912H8.78897ZM15.0778 194.688C15.5818 194.688 16.0298 194.796 16.4218 195.012C16.8218 195.228 17.1338 195.548 17.3578 195.972C17.5898 196.396 17.7058 196.908 17.7058 197.508V201.408H16.3498V197.712C16.3498 197.12 16.2018 196.668 15.9058 196.356C15.6098 196.036 15.2058 195.876 14.6938 195.876C14.1818 195.876 13.7738 196.036 13.4698 196.356C13.1738 196.668 13.0258 197.12 13.0258 197.712V201.408H11.6578V192.528H13.0258V195.564C13.2578 195.284 13.5498 195.068 13.9018 194.916C14.2618 194.764 14.6538 194.688 15.0778 194.688ZM22.7868 194.688C23.3068 194.688 23.7708 194.796 24.1788 195.012C24.5948 195.228 24.9188 195.548 25.1508 195.972C25.3828 196.396 25.4988 196.908 25.4988 197.508V201.408H24.1428V197.712C24.1428 197.12 23.9948 196.668 23.6988 196.356C23.4028 196.036 22.9988 195.876 22.4868 195.876C21.9748 195.876 21.5668 196.036 21.2628 196.356C20.9668 196.668 20.8188 197.12 20.8188 197.712V201.408H19.4508V194.796H20.8188V195.552C21.0428 195.28 21.3268 195.068 21.6708 194.916C22.0228 194.764 22.3948 194.688 22.7868 194.688ZM27.9398 193.92C27.6918 193.92 27.4838 193.836 27.3158 193.668C27.1478 193.5 27.0638 193.292 27.0638 193.044C27.0638 192.796 27.1478 192.588 27.3158 192.42C27.4838 192.252 27.6918 192.168 27.9398 192.168C28.1798 192.168 28.3838 192.252 28.5518 192.42C28.7198 192.588 28.8038 192.796 28.8038 193.044C28.8038 193.292 28.7198 193.5 28.5518 193.668C28.3838 193.836 28.1798 193.92 27.9398 193.92ZM28.6118 194.796V201.408H27.2438V194.796H28.6118ZM29.9518 198.096C29.9518 197.416 30.0878 196.82 30.3598 196.308C30.6398 195.788 31.0238 195.388 31.5118 195.108C31.9998 194.828 32.5598 194.688 33.1918 194.688C33.9918 194.688 34.6518 194.88 35.1718 195.264C35.6998 195.64 36.0558 196.18 36.2398 196.884H34.7638C34.6438 196.556 34.4518 196.3 34.1878 196.116C33.9238 195.932 33.5918 195.84 33.1918 195.84C32.6318 195.84 32.1838 196.04 31.8478 196.44C31.5198 196.832 31.3558 197.384 31.3558 198.096C31.3558 198.808 31.5198 199.364 31.8478 199.764C32.1838 200.164 32.6318 200.364 33.1918 200.364C33.9838 200.364 34.5078 200.016 34.7638 199.32H36.2398C36.0478 199.992 35.6878 200.528 35.1598 200.928C34.6318 201.32 33.9758 201.516 33.1918 201.516C32.5598 201.516 31.9998 201.376 31.5118 201.096C31.0238 200.808 30.6398 200.408 30.3598 199.896C30.0878 199.376 29.9518 198.776 29.9518 198.096ZM38.2991 193.92C38.0511 193.92 37.8431 193.836 37.6751 193.668C37.5071 193.5 37.4231 193.292 37.4231 193.044C37.4231 192.796 37.5071 192.588 37.6751 192.42C37.8431 192.252 38.0511 192.168 38.2991 192.168C38.5391 192.168 38.7431 192.252 38.9111 192.42C39.0791 192.588 39.1631 192.796 39.1631 193.044C39.1631 193.292 39.0791 193.5 38.9111 193.668C38.7431 193.836 38.5391 193.92 38.2991 193.92ZM38.9711 194.796V201.408H37.6031V194.796H38.9711ZM42.3632 195.912V199.572C42.3632 199.82 42.4192 200 42.5312 200.112C42.6512 200.216 42.8512 200.268 43.1312 200.268H43.9712V201.408H42.8912C42.2752 201.408 41.8032 201.264 41.4752 200.976C41.1472 200.688 40.9832 200.22 40.9832 199.572V195.912H40.2032V194.796H40.9832V193.152H42.3632V194.796H43.9712V195.912H42.3632ZM51.184 194.796L47.128 204.516H45.712L47.056 201.3L44.452 194.796H45.976L47.836 199.836L49.768 194.796H51.184Z" fill="#2E3740"/>
<path opacity="0.5" fill-rule="evenodd" clip-rule="evenodd" d="M0 219.408H315H0Z" stroke="#CBDCF6" stroke-linecap="round"/>
<path d="M247.5 200.076H250.26V201.408H245.82V193.032H247.5V200.076ZM250.896 198.06C250.896 197.388 251.028 196.792 251.292 196.272C251.564 195.752 251.928 195.352 252.384 195.072C252.848 194.792 253.364 194.652 253.932 194.652C254.428 194.652 254.86 194.752 255.228 194.952C255.604 195.152 255.904 195.404 256.128 195.708V194.76H257.82V201.408H256.128V200.436C255.912 200.748 255.612 201.008 255.228 201.216C254.852 201.416 254.416 201.516 253.92 201.516C253.36 201.516 252.848 201.372 252.384 201.084C251.928 200.796 251.564 200.392 251.292 199.872C251.028 199.344 250.896 198.74 250.896 198.06ZM256.128 198.084C256.128 197.676 256.048 197.328 255.888 197.04C255.728 196.744 255.512 196.52 255.24 196.368C254.968 196.208 254.676 196.128 254.364 196.128C254.052 196.128 253.764 196.204 253.5 196.356C253.236 196.508 253.02 196.732 252.852 197.028C252.692 197.316 252.612 197.66 252.612 198.06C252.612 198.46 252.692 198.812 252.852 199.116C253.02 199.412 253.236 199.64 253.5 199.8C253.772 199.96 254.06 200.04 254.364 200.04C254.676 200.04 254.968 199.964 255.24 199.812C255.512 199.652 255.728 199.428 255.888 199.14C256.048 198.844 256.128 198.492 256.128 198.084ZM261.417 196.14V199.356C261.417 199.58 261.469 199.744 261.573 199.848C261.685 199.944 261.869 199.992 262.125 199.992H262.905V201.408H261.849C260.433 201.408 259.725 200.72 259.725 199.344V196.14H258.933V194.76H259.725V193.116H261.417V194.76H262.905V196.14H261.417ZM264.965 193.968C264.669 193.968 264.421 193.876 264.221 193.692C264.029 193.5 263.933 193.264 263.933 192.984C263.933 192.704 264.029 192.472 264.221 192.288C264.421 192.096 264.669 192 264.965 192C265.261 192 265.505 192.096 265.697 192.288C265.897 192.472 265.997 192.704 265.997 192.984C265.997 193.264 265.897 193.5 265.697 193.692C265.505 193.876 265.261 193.968 264.965 193.968ZM265.793 194.76V201.408H264.113V194.76H265.793ZM271.137 194.664C271.929 194.664 272.569 194.916 273.057 195.42C273.545 195.916 273.789 196.612 273.789 197.508V201.408H272.109V197.736C272.109 197.208 271.977 196.804 271.713 196.524C271.449 196.236 271.089 196.092 270.633 196.092C270.169 196.092 269.801 196.236 269.529 196.524C269.265 196.804 269.133 197.208 269.133 197.736V201.408H267.453V194.76H269.133V195.588C269.357 195.3 269.641 195.076 269.985 194.916C270.337 194.748 270.721 194.664 271.137 194.664ZM277.223 199.644L275.819 203.016H274.739L275.519 199.644H277.223ZM286.429 199.812H283.093L282.541 201.408H280.777L283.789 193.02H285.745L288.757 201.408H286.981L286.429 199.812ZM285.973 198.468L284.761 194.964L283.549 198.468H285.973ZM292.427 201.516C291.883 201.516 291.395 201.42 290.963 201.228C290.531 201.028 290.187 200.76 289.931 200.424C289.683 200.088 289.547 199.716 289.523 199.308H291.215C291.247 199.564 291.371 199.776 291.587 199.944C291.811 200.112 292.087 200.196 292.415 200.196C292.735 200.196 292.983 200.132 293.159 200.004C293.343 199.876 293.435 199.712 293.435 199.512C293.435 199.296 293.323 199.136 293.099 199.032C292.883 198.92 292.535 198.8 292.055 198.672C291.559 198.552 291.151 198.428 290.831 198.3C290.519 198.172 290.247 197.976 290.015 197.712C289.791 197.448 289.679 197.092 289.679 196.644C289.679 196.276 289.783 195.94 289.991 195.636C290.207 195.332 290.511 195.092 290.903 194.916C291.303 194.74 291.771 194.652 292.307 194.652C293.099 194.652 293.731 194.852 294.203 195.252C294.675 195.644 294.935 196.176 294.983 196.848H293.375C293.351 196.584 293.239 196.376 293.039 196.224C292.847 196.064 292.587 195.984 292.259 195.984C291.955 195.984 291.719 196.04 291.551 196.152C291.391 196.264 291.311 196.42 291.311 196.62C291.311 196.844 291.423 197.016 291.647 197.136C291.871 197.248 292.219 197.364 292.691 197.484C293.171 197.604 293.567 197.728 293.879 197.856C294.191 197.984 294.459 198.184 294.683 198.456C294.915 198.72 295.035 199.072 295.043 199.512C295.043 199.896 294.935 200.24 294.719 200.544C294.511 200.848 294.207 201.088 293.807 201.264C293.415 201.432 292.955 201.516 292.427 201.516ZM297.274 193.968C296.978 193.968 296.73 193.876 296.53 193.692C296.338 193.5 296.242 193.264 296.242 192.984C296.242 192.704 296.338 192.472 296.53 192.288C296.73 192.096 296.978 192 297.274 192C297.57 192 297.814 192.096 298.006 192.288C298.206 192.472 298.306 192.704 298.306 192.984C298.306 193.264 298.206 193.5 298.006 193.692C297.814 193.876 297.57 193.968 297.274 193.968ZM298.102 194.76V201.408H296.422V194.76H298.102ZM299.33 198.06C299.33 197.388 299.462 196.792 299.726 196.272C299.998 195.752 300.362 195.352 300.818 195.072C301.282 194.792 301.798 194.652 302.366 194.652C302.862 194.652 303.294 194.752 303.662 194.952C304.038 195.152 304.338 195.404 304.562 195.708V194.76H306.254V201.408H304.562V200.436C304.346 200.748 304.046 201.008 303.662 201.216C303.286 201.416 302.85 201.516 302.354 201.516C301.794 201.516 301.282 201.372 300.818 201.084C300.362 200.796 299.998 200.392 299.726 199.872C299.462 199.344 299.33 198.74 299.33 198.06ZM304.562 198.084C304.562 197.676 304.482 197.328 304.322 197.04C304.162 196.744 303.946 196.52 303.674 196.368C303.402 196.208 303.11 196.128 302.798 196.128C302.486 196.128 302.198 196.204 301.934 196.356C301.67 196.508 301.454 196.732 301.286 197.028C301.126 197.316 301.046 197.66 301.046 198.06C301.046 198.46 301.126 198.812 301.286 199.116C301.454 199.412 301.67 199.64 301.934 199.8C302.206 199.96 302.494 200.04 302.798 200.04C303.11 200.04 303.402 199.964 303.674 199.812C303.946 199.652 304.162 199.428 304.322 199.14C304.482 198.844 304.562 198.492 304.562 198.084ZM311.578 194.664C312.37 194.664 313.01 194.916 313.498 195.42C313.986 195.916 314.23 196.612 314.23 197.508V201.408H312.55V197.736C312.55 197.208 312.418 196.804 312.154 196.524C311.89 196.236 311.53 196.092 311.074 196.092C310.61 196.092 310.242 196.236 309.97 196.524C309.706 196.804 309.574 197.208 309.574 197.736V201.408H307.894V194.76H309.574V195.588C309.798 195.3 310.082 195.076 310.426 194.916C310.778 194.748 311.162 194.664 311.578 194.664Z" fill="#1E212D"/>
<path d="M5.232 249.408L3.312 246.072H2.268V249.408H0.9V241.068H3.78C4.42 241.068 4.96 241.18 5.4 241.404C5.848 241.628 6.18 241.928 6.396 242.304C6.62 242.68 6.732 243.1 6.732 243.564C6.732 244.108 6.572 244.604 6.252 245.052C5.94 245.492 5.456 245.792 4.8 245.952L6.864 249.408H5.232ZM2.268 244.98H3.78C4.292 244.98 4.676 244.852 4.932 244.596C5.196 244.34 5.328 243.996 5.328 243.564C5.328 243.132 5.2 242.796 4.944 242.556C4.688 242.308 4.3 242.184 3.78 242.184H2.268V244.98ZM14.542 245.94C14.542 246.188 14.526 246.412 14.494 246.612H9.44203C9.48203 247.14 9.67803 247.564 10.03 247.884C10.382 248.204 10.814 248.364 11.326 248.364C12.062 248.364 12.582 248.056 12.886 247.44H14.362C14.162 248.048 13.798 248.548 13.27 248.94C12.75 249.324 12.102 249.516 11.326 249.516C10.694 249.516 10.126 249.376 9.62203 249.096C9.12603 248.808 8.73403 248.408 8.44603 247.896C8.16603 247.376 8.02603 246.776 8.02603 246.096C8.02603 245.416 8.16203 244.82 8.43403 244.308C8.71403 243.788 9.10203 243.388 9.59803 243.108C10.102 242.828 10.678 242.688 11.326 242.688C11.95 242.688 12.506 242.824 12.994 243.096C13.482 243.368 13.862 243.752 14.134 244.248C14.406 244.736 14.542 245.3 14.542 245.94ZM13.114 245.508C13.106 245.004 12.926 244.6 12.574 244.296C12.222 243.992 11.786 243.84 11.266 243.84C10.794 243.84 10.39 243.992 10.054 244.296C9.71803 244.592 9.51803 244.996 9.45403 245.508H13.114ZM17.2563 240.528V249.408H15.8883V240.528H17.2563ZM19.7483 241.92C19.5003 241.92 19.2923 241.836 19.1243 241.668C18.9563 241.5 18.8723 241.292 18.8723 241.044C18.8723 240.796 18.9563 240.588 19.1243 240.42C19.2923 240.252 19.5003 240.168 19.7483 240.168C19.9883 240.168 20.1923 240.252 20.3603 240.42C20.5283 240.588 20.6123 240.796 20.6123 241.044C20.6123 241.292 20.5283 241.5 20.3603 241.668C20.1923 241.836 19.9883 241.92 19.7483 241.92ZM20.4203 242.796V249.408H19.0523V242.796H20.4203ZM24.8804 242.688C25.3924 242.688 25.8444 242.792 26.2364 243C26.6364 243.2 26.9484 243.452 27.1724 243.756V242.796H28.5524V249.516C28.5524 250.124 28.4244 250.664 28.1684 251.136C27.9124 251.616 27.5404 251.992 27.0524 252.264C26.5724 252.536 25.9964 252.672 25.3244 252.672C24.4284 252.672 23.6844 252.46 23.0924 252.036C22.5004 251.62 22.1644 251.052 22.0844 250.332H23.4404C23.5444 250.676 23.7644 250.952 24.1004 251.16C24.4444 251.376 24.8524 251.484 25.3244 251.484C25.8764 251.484 26.3204 251.316 26.6564 250.98C27.0004 250.644 27.1724 250.156 27.1724 249.516V248.412C26.9404 248.724 26.6244 248.988 26.2244 249.204C25.8324 249.412 25.3844 249.516 24.8804 249.516C24.3044 249.516 23.7764 249.372 23.2964 249.084C22.8244 248.788 22.4484 248.38 22.1684 247.86C21.8964 247.332 21.7604 246.736 21.7604 246.072C21.7604 245.408 21.8964 244.82 22.1684 244.308C22.4484 243.796 22.8244 243.4 23.2964 243.12C23.7764 242.832 24.3044 242.688 24.8804 242.688ZM27.1724 246.096C27.1724 245.64 27.0764 245.244 26.8844 244.908C26.7004 244.572 26.4564 244.316 26.1524 244.14C25.8484 243.964 25.5204 243.876 25.1684 243.876C24.8164 243.876 24.4884 243.964 24.1844 244.14C23.8804 244.308 23.6324 244.56 23.4404 244.896C23.2564 245.224 23.1644 245.616 23.1644 246.072C23.1644 246.528 23.2564 246.928 23.4404 247.272C23.6324 247.616 23.8804 247.88 24.1844 248.064C24.4964 248.24 24.8244 248.328 25.1684 248.328C25.5204 248.328 25.8484 248.24 26.1524 248.064C26.4564 247.888 26.7004 247.632 26.8844 247.296C27.0764 246.952 27.1724 246.552 27.1724 246.096ZM31.0452 241.92C30.7972 241.92 30.5892 241.836 30.4212 241.668C30.2532 241.5 30.1692 241.292 30.1692 241.044C30.1692 240.796 30.2532 240.588 30.4212 240.42C30.5892 240.252 30.7972 240.168 31.0452 240.168C31.2852 240.168 31.4892 240.252 31.6572 240.42C31.8252 240.588 31.9092 240.796 31.9092 241.044C31.9092 241.292 31.8252 241.5 31.6572 241.668C31.4892 241.836 31.2852 241.92 31.0452 241.92ZM31.7172 242.796V249.408H30.3492V242.796H31.7172ZM36.3813 249.516C35.7573 249.516 35.1933 249.376 34.6893 249.096C34.1853 248.808 33.7893 248.408 33.5013 247.896C33.2133 247.376 33.0693 246.776 33.0693 246.096C33.0693 245.424 33.2173 244.828 33.5133 244.308C33.8093 243.788 34.2133 243.388 34.7253 243.108C35.2373 242.828 35.8093 242.688 36.4413 242.688C37.0733 242.688 37.6453 242.828 38.1573 243.108C38.6693 243.388 39.0733 243.788 39.3693 244.308C39.6653 244.828 39.8133 245.424 39.8133 246.096C39.8133 246.768 39.6613 247.364 39.3573 247.884C39.0533 248.404 38.6373 248.808 38.1093 249.096C37.5893 249.376 37.0133 249.516 36.3813 249.516ZM36.3813 248.328C36.7333 248.328 37.0613 248.244 37.3653 248.076C37.6773 247.908 37.9293 247.656 38.1213 247.32C38.3133 246.984 38.4093 246.576 38.4093 246.096C38.4093 245.616 38.3173 245.212 38.1333 244.884C37.9493 244.548 37.7053 244.296 37.4013 244.128C37.0973 243.96 36.7693 243.876 36.4173 243.876C36.0653 243.876 35.7373 243.96 35.4333 244.128C35.1373 244.296 34.9013 244.548 34.7253 244.884C34.5493 245.212 34.4613 245.616 34.4613 246.096C34.4613 246.808 34.6413 247.36 35.0013 247.752C35.3693 248.136 35.8293 248.328 36.3813 248.328ZM44.5016 242.688C45.0216 242.688 45.4856 242.796 45.8936 243.012C46.3096 243.228 46.6336 243.548 46.8656 243.972C47.0976 244.396 47.2136 244.908 47.2136 245.508V249.408H45.8576V245.712C45.8576 245.12 45.7096 244.668 45.4136 244.356C45.1176 244.036 44.7136 243.876 44.2016 243.876C43.6896 243.876 43.2816 244.036 42.9776 244.356C42.6816 244.668 42.5336 245.12 42.5336 245.712V249.408H41.1656V242.796H42.5336V243.552C42.7576 243.28 43.0416 243.068 43.3856 242.916C43.7376 242.764 44.1096 242.688 44.5016 242.688Z" fill="#2E3740"/>
<path d="M217.639 245.208C217.639 244.384 217.823 243.648 218.191 243C218.567 242.344 219.075 241.836 219.715 241.476C220.363 241.108 221.087 240.924 221.887 240.924C222.823 240.924 223.643 241.164 224.347 241.644C225.051 242.124 225.543 242.788 225.823 243.636H223.891C223.699 243.236 223.427 242.936 223.075 242.736C222.731 242.536 222.331 242.436 221.875 242.436C221.387 242.436 220.951 242.552 220.567 242.784C220.191 243.008 219.895 243.328 219.679 243.744C219.471 244.16 219.367 244.648 219.367 245.208C219.367 245.76 219.471 246.248 219.679 246.672C219.895 247.088 220.191 247.412 220.567 247.644C220.951 247.868 221.387 247.98 221.875 247.98C222.331 247.98 222.731 247.88 223.075 247.68C223.427 247.472 223.699 247.168 223.891 246.768H225.823C225.543 247.624 225.051 248.292 224.347 248.772C223.651 249.244 222.831 249.48 221.887 249.48C221.087 249.48 220.363 249.3 219.715 248.94C219.075 248.572 218.567 248.064 218.191 247.416C217.823 246.768 217.639 246.032 217.639 245.208ZM231.002 242.664C231.506 242.664 231.954 242.776 232.346 243C232.738 243.216 233.042 243.54 233.258 243.972C233.482 244.396 233.594 244.908 233.594 245.508V249.408H231.914V245.736C231.914 245.208 231.782 244.804 231.518 244.524C231.254 244.236 230.894 244.092 230.438 244.092C229.974 244.092 229.606 244.236 229.334 244.524C229.07 244.804 228.938 245.208 228.938 245.736V249.408H227.258V240.528H228.938V243.588C229.154 243.3 229.442 243.076 229.802 242.916C230.162 242.748 230.562 242.664 231.002 242.664ZM236.871 243.792C237.087 243.44 237.367 243.164 237.711 242.964C238.063 242.764 238.463 242.664 238.911 242.664V244.428H238.467C237.939 244.428 237.539 244.552 237.267 244.8C237.003 245.048 236.871 245.48 236.871 246.096V249.408H235.191V242.76H236.871V243.792ZM240.895 241.968C240.599 241.968 240.351 241.876 240.151 241.692C239.959 241.5 239.863 241.264 239.863 240.984C239.863 240.704 239.959 240.472 240.151 240.288C240.351 240.096 240.599 240 240.895 240C241.191 240 241.435 240.096 241.627 240.288C241.827 240.472 241.927 240.704 241.927 240.984C241.927 241.264 241.827 241.5 241.627 241.692C241.435 241.876 241.191 241.968 240.895 241.968ZM241.723 242.76V249.408H240.043V242.76H241.723ZM245.927 249.516C245.383 249.516 244.895 249.42 244.463 249.228C244.031 249.028 243.687 248.76 243.431 248.424C243.183 248.088 243.047 247.716 243.023 247.308H244.715C244.747 247.564 244.871 247.776 245.087 247.944C245.311 248.112 245.587 248.196 245.915 248.196C246.235 248.196 246.483 248.132 246.659 248.004C246.843 247.876 246.935 247.712 246.935 247.512C246.935 247.296 246.823 247.136 246.599 247.032C246.383 246.92 246.035 246.8 245.555 246.672C245.059 246.552 244.651 246.428 244.331 246.3C244.019 246.172 243.747 245.976 243.515 245.712C243.291 245.448 243.179 245.092 243.179 244.644C243.179 244.276 243.283 243.94 243.491 243.636C243.707 243.332 244.011 243.092 244.403 242.916C244.803 242.74 245.271 242.652 245.807 242.652C246.599 242.652 247.231 242.852 247.703 243.252C248.175 243.644 248.435 244.176 248.483 244.848H246.875C246.851 244.584 246.739 244.376 246.539 244.224C246.347 244.064 246.087 243.984 245.759 243.984C245.455 243.984 245.219 244.04 245.051 244.152C244.891 244.264 244.811 244.42 244.811 244.62C244.811 244.844 244.923 245.016 245.147 245.136C245.371 245.248 245.719 245.364 246.191 245.484C246.671 245.604 247.067 245.728 247.379 245.856C247.691 245.984 247.959 246.184 248.183 246.456C248.415 246.72 248.535 247.072 248.543 247.512C248.543 247.896 248.435 248.24 248.219 248.544C248.011 248.848 247.707 249.088 247.307 249.264C246.915 249.432 246.455 249.516 245.927 249.516ZM251.878 244.14V247.356C251.878 247.58 251.93 247.744 252.034 247.848C252.146 247.944 252.33 247.992 252.586 247.992H253.366V249.408H252.31C250.894 249.408 250.186 248.72 250.186 247.344V244.14H249.394V242.76H250.186V241.116H251.878V242.76H253.366V244.14H251.878ZM255.426 241.968C255.13 241.968 254.882 241.876 254.682 241.692C254.49 241.5 254.394 241.264 254.394 240.984C254.394 240.704 254.49 240.472 254.682 240.288C254.882 240.096 255.13 240 255.426 240C255.722 240 255.966 240.096 256.158 240.288C256.358 240.472 256.458 240.704 256.458 240.984C256.458 241.264 256.358 241.5 256.158 241.692C255.966 241.876 255.722 241.968 255.426 241.968ZM256.254 242.76V249.408H254.574V242.76H256.254ZM257.482 246.06C257.482 245.388 257.614 244.792 257.878 244.272C258.15 243.752 258.514 243.352 258.97 243.072C259.434 242.792 259.95 242.652 260.518 242.652C261.014 242.652 261.446 242.752 261.814 242.952C262.19 243.152 262.49 243.404 262.714 243.708V242.76H264.406V249.408H262.714V248.436C262.498 248.748 262.198 249.008 261.814 249.216C261.438 249.416 261.002 249.516 260.506 249.516C259.946 249.516 259.434 249.372 258.97 249.084C258.514 248.796 258.15 248.392 257.878 247.872C257.614 247.344 257.482 246.74 257.482 246.06ZM262.714 246.084C262.714 245.676 262.634 245.328 262.474 245.04C262.314 244.744 262.098 244.52 261.826 244.368C261.554 244.208 261.262 244.128 260.95 244.128C260.638 244.128 260.35 244.204 260.086 244.356C259.822 244.508 259.606 244.732 259.438 245.028C259.278 245.316 259.198 245.66 259.198 246.06C259.198 246.46 259.278 246.812 259.438 247.116C259.606 247.412 259.822 247.64 260.086 247.8C260.358 247.96 260.646 248.04 260.95 248.04C261.262 248.04 261.554 247.964 261.826 247.812C262.098 247.652 262.314 247.428 262.474 247.14C262.634 246.844 262.714 246.492 262.714 246.084ZM269.731 242.664C270.523 242.664 271.163 242.916 271.651 243.42C272.139 243.916 272.383 244.612 272.383 245.508V249.408H270.703V245.736C270.703 245.208 270.571 244.804 270.307 244.524C270.043 244.236 269.683 244.092 269.227 244.092C268.763 244.092 268.395 244.236 268.123 244.524C267.859 244.804 267.727 245.208 267.727 245.736V249.408H266.047V242.76H267.727V243.588C267.951 243.3 268.235 243.076 268.579 242.916C268.931 242.748 269.315 242.664 269.731 242.664ZM275.816 247.644L274.412 251.016H273.332L274.112 247.644H275.816ZM286.835 241.032V249.408H285.155V245.844H281.567V249.408H279.887V241.032H281.567V244.476H285.155V241.032H286.835ZM289.34 241.968C289.044 241.968 288.796 241.876 288.596 241.692C288.404 241.5 288.308 241.264 288.308 240.984C288.308 240.704 288.404 240.472 288.596 240.288C288.796 240.096 289.044 240 289.34 240C289.636 240 289.88 240.096 290.072 240.288C290.272 240.472 290.372 240.704 290.372 240.984C290.372 241.264 290.272 241.5 290.072 241.692C289.88 241.876 289.636 241.968 289.34 241.968ZM290.168 242.76V249.408H288.488V242.76H290.168ZM295.512 242.664C296.304 242.664 296.944 242.916 297.432 243.42C297.92 243.916 298.164 244.612 298.164 245.508V249.408H296.484V245.736C296.484 245.208 296.352 244.804 296.088 244.524C295.824 244.236 295.464 244.092 295.008 244.092C294.544 244.092 294.176 244.236 293.904 244.524C293.64 244.804 293.508 245.208 293.508 245.736V249.408H291.828V242.76H293.508V243.588C293.732 243.3 294.016 243.076 294.36 242.916C294.712 242.748 295.096 242.664 295.512 242.664ZM299.33 246.06C299.33 245.388 299.462 244.792 299.726 244.272C299.998 243.752 300.366 243.352 300.83 243.072C301.294 242.792 301.81 242.652 302.378 242.652C302.81 242.652 303.222 242.748 303.614 242.94C304.006 243.124 304.318 243.372 304.55 243.684V240.528H306.254V249.408H304.55V248.424C304.342 248.752 304.05 249.016 303.674 249.216C303.298 249.416 302.862 249.516 302.366 249.516C301.806 249.516 301.294 249.372 300.83 249.084C300.366 248.796 299.998 248.392 299.726 247.872C299.462 247.344 299.33 246.74 299.33 246.06ZM304.562 246.084C304.562 245.676 304.482 245.328 304.322 245.04C304.162 244.744 303.946 244.52 303.674 244.368C303.402 244.208 303.11 244.128 302.798 244.128C302.486 244.128 302.198 244.204 301.934 244.356C301.67 244.508 301.454 244.732 301.286 245.028C301.126 245.316 301.046 245.66 301.046 246.06C301.046 246.46 301.126 246.812 301.286 247.116C301.454 247.412 301.67 247.64 301.934 247.8C302.206 247.96 302.494 248.04 302.798 248.04C303.11 248.04 303.402 247.964 303.674 247.812C303.946 247.652 304.162 247.428 304.322 247.14C304.482 246.844 304.562 246.492 304.562 246.084ZM314.17 242.76V249.408H312.478V248.568C312.262 248.856 311.978 249.084 311.626 249.252C311.282 249.412 310.906 249.492 310.498 249.492C309.978 249.492 309.518 249.384 309.118 249.168C308.718 248.944 308.402 248.62 308.17 248.196C307.946 247.764 307.834 247.252 307.834 246.66V242.76H309.514V246.42C309.514 246.948 309.646 247.356 309.91 247.644C310.174 247.924 310.534 248.064 310.99 248.064C311.454 248.064 311.818 247.924 312.082 247.644C312.346 247.356 312.478 246.948 312.478 246.42V242.76H314.17Z" fill="#1E212D"/>
</g>
</svg>
