<svg width="23" height="23" viewBox="0 0 23 23" fill="none" xmlns="http://www.w3.org/2000/svg">
<mask id="mask0_0_1730" style="mask-type:luminance" maskUnits="userSpaceOnUse" x="0" y="0" width="23" height="23">
<path fill-rule="evenodd" clip-rule="evenodd" d="M0 0H22.4561V23H0V0Z" fill="white"/>
</mask>
<g mask="url(#mask0_0_1730)">
<path fill-rule="evenodd" clip-rule="evenodd" d="M1.24978 6.37776C3.10298 2.36281 7.73378 -0.310272 12.2419 0.0289569C14.6515 0.210457 16.8139 1.0122 18.6965 2.5487C19.0833 2.86414 19.139 3.10822 18.7566 3.47123C18.0099 4.18159 17.242 4.88131 16.581 5.66741C16.1029 6.2357 15.7367 6.1149 15.2561 5.7519C14.552 5.22117 13.7559 4.88257 12.8909 4.70983C9.75282 4.08333 6.66416 5.69056 5.32606 8.64404C5.23531 8.8462 5.14894 9.05148 5.06132 9.25489C4.87606 9.13409 4.68079 9.02581 4.50617 8.89189C3.41779 8.05698 2.33441 7.21644 1.24978 6.37778" fill="#E94235"/>
<path fill-rule="evenodd" clip-rule="evenodd" d="M5.04193 13.7204C5.91563 15.9598 7.42022 17.552 9.77849 18.2022C11.7919 18.7574 13.6958 18.4057 15.4783 17.3404C15.6116 17.4606 15.7386 17.5889 15.8788 17.6997C16.9459 18.5465 18.0162 19.3902 19.0851 20.2344C16.8408 22.328 14.1139 23.1285 11.131 22.9839C6.65854 22.7667 3.3502 20.6194 1.24978 16.6464C2.51403 15.6713 3.77829 14.6955 5.04192 13.7204" fill="#34A753"/>
<path fill-rule="evenodd" clip-rule="evenodd" d="M5.04129 13.7199C3.77765 14.695 2.5134 15.6708 1.24915 16.6459C-0.411895 13.223 -0.421288 9.80014 1.25041 6.3779C2.33504 7.21656 3.41841 8.05648 4.50617 8.89138C4.68078 9.02595 4.87605 9.13423 5.06132 9.25438C4.58941 10.7414 4.59379 12.2298 5.04129 13.7199Z" fill="#F9BB07"/>
<path fill-rule="evenodd" clip-rule="evenodd" d="M22.428 10.2401C22.4355 9.81891 22.5376 9.34763 21.8203 9.34513C18.4675 9.33324 15.2355 9.34325 11.8828 9.33636C11.5899 9.33573 11.501 9.44213 11.5041 9.7269C11.5154 10.9592 11.5066 12.1916 11.5104 13.4239C11.511 13.5885 11.4434 13.8226 11.7582 13.7781C13.7403 13.79 15.7218 13.8026 17.704 13.8144C17.7102 13.8558 17.7159 13.8971 17.7221 13.9384C17.386 15.3441 16.6394 16.4788 15.4771 17.3399C15.6104 17.4601 15.7375 17.5884 15.8777 17.6992C16.9454 18.546 18.015 19.3897 19.0846 20.234C20.9159 18.5698 21.9405 16.4844 22.3085 14.0566C22.5494 12.3042 22.4205 10.6613 22.428 10.2401" fill="#4385F4"/>
</g>
</svg>
