<svg width="22" height="20" viewBox="0 0 22 20" fill="none" xmlns="http://www.w3.org/2000/svg">
<path d="M10.1031 4.10229L10.7996 5.58564L11.4957 4.10209C12.3324 2.31868 14.0729 0.769183 15.928 0.769183C18.6327 0.769183 20.8284 2.965 20.8284 5.67006C20.8284 8.41346 19.3757 10.2376 17.226 12.2373C16.7834 12.6491 16.3098 13.0685 15.8182 13.5041C14.1852 14.9507 12.3521 16.5747 10.7854 18.6818C9.1944 16.6255 7.39867 15.0531 5.80619 13.6587C5.26981 13.189 4.75648 12.7395 4.28181 12.2985C2.17752 10.3436 0.769183 8.5266 0.769183 5.67006C0.769183 2.96499 2.96485 0.769183 5.66954 0.769183C7.52482 0.769183 9.2656 2.31877 10.1031 4.10229Z" stroke="#0668FC" stroke-width="1.5"/>
</svg>
