<svg width="16" height="16" viewBox="0 0 16 16" fill="none" xmlns="http://www.w3.org/2000/svg">
<path fill-rule="evenodd" clip-rule="evenodd" d="M15.5379 12.5274C14.9256 11.9151 13.4553 10.9946 12.7305 10.6489C11.8892 10.2449 11.581 10.2532 10.9853 10.6822C10.4897 11.0404 10.169 11.3736 9.59834 11.2487C9.02771 11.1279 7.90312 10.274 6.81184 9.18689C5.72057 8.09561 4.87087 6.97102 4.75008 6.40039C4.62929 5.8256 4.9625 5.50904 5.31654 5.01339C5.74555 4.41777 5.75805 4.10955 5.34986 3.26818C5.00415 2.53928 4.08781 1.07314 3.47137 0.460861C2.85909 -0.151419 2.72164 -0.0181289 2.38426 0.102661C2.38426 0.102661 1.88444 0.302591 1.38878 0.631641C0.776499 1.03983 0.434959 1.38137 0.193379 1.89369C-0.0440311 2.40601 -0.318941 3.35983 1.08056 5.8506C2.20932 7.86238 3.31726 9.38683 4.9625 11.0279C4.9625 11.0279 4.9625 11.0279 4.96667 11.0321C4.96667 11.0321 4.96667 11.0321 4.97084 11.0362C6.61608 12.6815 8.13637 13.7894 10.1481 14.9182C12.6389 16.3177 13.5927 16.0428 14.1051 15.8054C14.6174 15.5679 14.9589 15.2264 15.3671 14.61C15.6962 14.1143 15.8961 13.6145 15.8961 13.6145C16.0169 13.2771 16.1543 13.1396 15.5379 12.5274H15.5379Z" fill="#1E212D"/>
</svg>
