<svg width="13" height="27" viewBox="0 0 13 27" fill="none" xmlns="http://www.w3.org/2000/svg">
<path fill-rule="evenodd" clip-rule="evenodd" d="M7.34995 20.0478C7.16341 18.3918 6.97335 16.7363 6.79689 15.0793C6.78234 14.9424 6.84716 14.7909 6.89721 14.6542C8.07506 11.4367 9.25603 8.22019 10.4364 5.00348C10.4868 4.86619 10.5373 4.72873 10.6048 4.5448C10.4564 4.49037 10.3334 4.44522 10.2103 4.4C8.70047 3.84567 7.19282 3.28504 5.67845 2.74348C5.44177 2.65891 5.35831 2.54017 5.33642 2.29891C5.2686 1.55151 5.17528 0.806425 5.08513 0C5.24577 0.05896 5.35603 0.0994284 5.46636 0.139897C7.40604 0.851722 9.34618 1.5622 11.2853 2.27573C12.6798 2.78891 13.2893 4.08603 12.782 5.47025C11.0324 10.2437 9.2799 15.016 7.52848 19.7888C7.49541 19.8788 7.46238 19.9689 7.42935 20.0589C7.40291 20.0552 7.37641 20.0515 7.34996 20.0478" fill="#A9B1C1"/>
<path fill-rule="evenodd" clip-rule="evenodd" d="M0 25.9643C1.89396 25.6361 3.74647 25.6707 5.51583 25.1677C5.2569 26.4674 3.84915 27.309 2.55018 26.8928C1.71703 26.626 0.904132 26.2961 0 25.9643Z" fill="#A9B1C1"/>
</svg>
