<svg width="23" height="23" viewBox="0 0 23 23" fill="none" xmlns="http://www.w3.org/2000/svg">
<path fill-rule="evenodd" clip-rule="evenodd" d="M21.7222 15.9722C20.125 15.9722 18.5914 15.7164 17.1863 15.2697C16.739 15.1418 16.228 15.2055 15.9086 15.5892L13.0972 18.3999C9.4554 16.5475 6.51679 13.6083 4.66373 9.96643L7.47519 7.1557C7.79455 6.83627 7.92213 6.3253 7.79455 5.87794C7.28322 4.40863 7.02776 2.875 7.02776 1.27776C7.02776 0.575247 6.45282 0 5.75 0H1.27776C0.574939 0 0 0.575236 0 1.27776C0 13.2887 9.71127 23 21.7222 23C22.4248 23 23 22.4248 23 21.7222V17.25C23 16.5475 22.4248 15.9722 21.7222 15.9722L21.7222 15.9722Z" fill="black"/>
</svg>
