<svg width="335" height="286" viewBox="0 0 335 286" fill="none" xmlns="http://www.w3.org/2000/svg">
<mask id="mask0_0_5048" style="mask-type:luminance" maskUnits="userSpaceOnUse" x="-1" y="-5" width="337" height="291">
<path fill-rule="evenodd" clip-rule="evenodd" d="M-0.5 -4.21997H335.5V285.78H-0.5V-4.21997Z" fill="white"/>
</mask>
<g mask="url(#mask0_0_5048)">
<path d="M8.82 1.05003V10.78H7.224V6.52403H2.646V10.78H1.05V1.05003H2.646V5.22203H7.224V1.05003H8.82ZM11.7331 2.04403C11.4438 2.04403 11.2011 1.94603 11.0051 1.75003C10.8091 1.55403 10.7111 1.31136 10.7111 1.02203C10.7111 0.732695 10.8091 0.490029 11.0051 0.294029C11.2011 0.0980289 11.4438 2.87294e-05 11.7331 2.87294e-05C12.0131 2.87294e-05 12.2511 0.0980289 12.4471 0.294029C12.6431 0.490029 12.7411 0.732695 12.7411 1.02203C12.7411 1.31136 12.6431 1.55403 12.4471 1.75003C12.2511 1.94603 12.0131 2.04403 11.7331 2.04403ZM12.5171 3.06603V10.78H10.9211V3.06603H12.5171ZM17.7205 2.94003C18.3178 2.94003 18.8452 3.06136 19.3025 3.30403C19.7692 3.53736 20.1332 3.83136 20.3945 4.18603V3.06603H22.0045V10.906C22.0045 11.6154 21.8552 12.2454 21.5565 12.796C21.2578 13.356 20.8238 13.7947 20.2545 14.112C19.6945 14.4294 19.0225 14.588 18.2385 14.588C17.1932 14.588 16.3252 14.3407 15.6345 13.846C14.9438 13.3607 14.5518 12.698 14.4585 11.858H16.0405C16.1618 12.2594 16.4185 12.5814 16.8105 12.824C17.2118 13.076 17.6878 13.202 18.2385 13.202C18.8825 13.202 19.4005 13.006 19.7925 12.614C20.1938 12.222 20.3945 11.6527 20.3945 10.906V9.61803C20.1238 9.98203 19.7552 10.29 19.2885 10.542C18.8312 10.7847 18.3085 10.906 17.7205 10.906C17.0485 10.906 16.4325 10.738 15.8725 10.402C15.3218 10.0567 14.8832 9.5807 14.5565 8.97403C14.2392 8.35803 14.0805 7.6627 14.0805 6.88803C14.0805 6.11336 14.2392 5.42736 14.5565 4.83003C14.8832 4.2327 15.3218 3.7707 15.8725 3.44403C16.4325 3.10803 17.0485 2.94003 17.7205 2.94003ZM20.3945 6.91603C20.3945 6.38403 20.2825 5.92203 20.0585 5.53003C19.8438 5.13803 19.5592 4.83936 19.2045 4.63403C18.8498 4.4287 18.4672 4.32603 18.0565 4.32603C17.6458 4.32603 17.2632 4.4287 16.9085 4.63403C16.5538 4.83003 16.2645 5.12403 16.0405 5.51603C15.8258 5.8987 15.7185 6.35603 15.7185 6.88803C15.7185 7.42003 15.8258 7.8867 16.0405 8.28803C16.2645 8.68936 16.5538 8.99736 16.9085 9.21203C17.2725 9.41736 17.6552 9.52003 18.0565 9.52003C18.4672 9.52003 18.8498 9.41736 19.2045 9.21203C19.5592 9.0067 19.8438 8.70803 20.0585 8.31603C20.2825 7.9147 20.3945 7.44803 20.3945 6.91603ZM28.0908 2.94003C28.6788 2.94003 29.2014 3.06603 29.6588 3.31803C30.1254 3.57003 30.4894 3.94336 30.7508 4.43803C31.0214 4.9327 31.1568 5.53003 31.1568 6.23003V10.78H29.5748V6.46803C29.5748 5.77736 29.4021 5.25003 29.0568 4.88603C28.7114 4.5127 28.2401 4.32603 27.6428 4.32603C27.0454 4.32603 26.5694 4.5127 26.2148 4.88603C25.8694 5.25003 25.6968 5.77736 25.6968 6.46803V10.78H24.1008V0.420029H25.6968V3.96203C25.9674 3.63536 26.3081 3.38336 26.7188 3.20603C27.1388 3.0287 27.5961 2.94003 28.0908 2.94003ZM39.6293 10.906C39.0226 10.906 38.4766 10.7987 37.9913 10.584C37.5153 10.36 37.1373 10.0614 36.8573 9.68803C36.5773 9.30536 36.428 8.8807 36.4093 8.41403H38.0613C38.0893 8.7407 38.2433 9.01603 38.5233 9.24003C38.8126 9.4547 39.172 9.56203 39.6013 9.56203C40.0493 9.56203 40.3946 9.47803 40.6373 9.31003C40.8893 9.1327 41.0153 8.9087 41.0153 8.63803C41.0153 8.3487 40.8753 8.13403 40.5953 7.99403C40.3246 7.85403 39.8906 7.70003 39.2933 7.53203C38.7146 7.37336 38.2433 7.21936 37.8793 7.07003C37.5153 6.9207 37.198 6.69203 36.9273 6.38403C36.666 6.07603 36.5353 5.67003 36.5353 5.16603C36.5353 4.75536 36.6566 4.38203 36.8993 4.04603C37.142 3.7007 37.4873 3.43003 37.9353 3.23403C38.3926 3.03803 38.9153 2.94003 39.5033 2.94003C40.3806 2.94003 41.0853 3.16403 41.6173 3.61203C42.1586 4.0507 42.448 4.6527 42.4853 5.41803H40.8893C40.8613 5.0727 40.7213 4.79736 40.4693 4.59203C40.2173 4.3867 39.8766 4.28403 39.4473 4.28403C39.0273 4.28403 38.7053 4.36336 38.4813 4.52203C38.2573 4.6807 38.1453 4.8907 38.1453 5.15203C38.1453 5.35736 38.22 5.53003 38.3693 5.67003C38.5186 5.81003 38.7006 5.92203 38.9153 6.00603C39.13 6.0807 39.4473 6.1787 39.8673 6.30003C40.4273 6.44936 40.8846 6.60336 41.2393 6.76203C41.6033 6.91136 41.916 7.13536 42.1773 7.43403C42.4386 7.7327 42.574 8.12936 42.5833 8.62403C42.5833 9.0627 42.462 9.4547 42.2193 9.80003C41.9766 10.1454 41.6313 10.416 41.1833 10.612C40.7446 10.808 40.2266 10.906 39.6293 10.906ZM43.7758 6.91603C43.7758 6.1227 43.9345 5.42736 44.2518 4.83003C44.5785 4.22336 45.0265 3.7567 45.5958 3.43003C46.1651 3.10336 46.8185 2.94003 47.5558 2.94003C48.4891 2.94003 49.2591 3.16403 49.8658 3.61203C50.4818 4.0507 50.8971 4.6807 51.1118 5.50203H49.3898C49.2498 5.11936 49.0258 4.8207 48.7178 4.60603C48.4098 4.39136 48.0225 4.28403 47.5558 4.28403C46.9025 4.28403 46.3798 4.51736 45.9878 4.98403C45.6051 5.44136 45.4138 6.08536 45.4138 6.91603C45.4138 7.7467 45.6051 8.39536 45.9878 8.86203C46.3798 9.3287 46.9025 9.56203 47.5558 9.56203C48.4798 9.56203 49.0911 9.15603 49.3898 8.34403H51.1118C50.8878 9.12803 50.4678 9.75336 49.8518 10.22C49.2358 10.6774 48.4705 10.906 47.5558 10.906C46.8185 10.906 46.1651 10.7427 45.5958 10.416C45.0265 10.08 44.5785 9.61336 44.2518 9.01603C43.9345 8.40936 43.7758 7.70936 43.7758 6.91603ZM56.6923 2.94003C57.2803 2.94003 57.803 3.06603 58.2603 3.31803C58.727 3.57003 59.091 3.94336 59.3523 4.43803C59.623 4.9327 59.7583 5.53003 59.7583 6.23003V10.78H58.1763V6.46803C58.1763 5.77736 58.0037 5.25003 57.6583 4.88603C57.313 4.5127 56.8417 4.32603 56.2443 4.32603C55.647 4.32603 55.171 4.5127 54.8163 4.88603C54.471 5.25003 54.2983 5.77736 54.2983 6.46803V10.78H52.7023V0.420029H54.2983V3.96203C54.569 3.63536 54.9097 3.38336 55.3203 3.20603C55.7403 3.0287 56.1977 2.94003 56.6923 2.94003ZM65.1401 10.906C64.4121 10.906 63.7541 10.7427 63.1661 10.416C62.5781 10.08 62.1161 9.61336 61.7801 9.01603C61.4441 8.40936 61.2761 7.70936 61.2761 6.91603C61.2761 6.13203 61.4488 5.4367 61.7941 4.83003C62.1395 4.22336 62.6108 3.7567 63.2081 3.43003C63.8055 3.10336 64.4728 2.94003 65.2101 2.94003C65.9475 2.94003 66.6148 3.10336 67.2121 3.43003C67.8095 3.7567 68.2808 4.22336 68.6261 4.83003C68.9715 5.4367 69.1441 6.13203 69.1441 6.91603C69.1441 7.70003 68.9668 8.39536 68.6121 9.00203C68.2575 9.6087 67.7721 10.08 67.1561 10.416C66.5495 10.7427 65.8775 10.906 65.1401 10.906ZM65.1401 9.52003C65.5508 9.52003 65.9335 9.42203 66.2881 9.22603C66.6521 9.03003 66.9461 8.73603 67.1701 8.34403C67.3941 7.95203 67.5061 7.47603 67.5061 6.91603C67.5061 6.35603 67.3988 5.8847 67.1841 5.50203C66.9695 5.11003 66.6848 4.81603 66.3301 4.62003C65.9755 4.42403 65.5928 4.32603 65.1821 4.32603C64.7715 4.32603 64.3888 4.42403 64.0341 4.62003C63.6888 4.81603 63.4135 5.11003 63.2081 5.50203C63.0028 5.8847 62.9001 6.35603 62.9001 6.91603C62.9001 7.7467 63.1101 8.3907 63.5301 8.84803C63.9595 9.29603 64.4961 9.52003 65.1401 9.52003ZM74.0679 10.906C73.3399 10.906 72.6819 10.7427 72.0939 10.416C71.5059 10.08 71.0439 9.61336 70.7079 9.01603C70.3719 8.40936 70.2039 7.70936 70.2039 6.91603C70.2039 6.13203 70.3765 5.4367 70.7219 4.83003C71.0672 4.22336 71.5385 3.7567 72.1359 3.43003C72.7332 3.10336 73.4005 2.94003 74.1379 2.94003C74.8752 2.94003 75.5425 3.10336 76.1399 3.43003C76.7372 3.7567 77.2085 4.22336 77.5539 4.83003C77.8992 5.4367 78.0719 6.13203 78.0719 6.91603C78.0719 7.70003 77.8945 8.39536 77.5399 9.00203C77.1852 9.6087 76.6999 10.08 76.0839 10.416C75.4772 10.7427 74.8052 10.906 74.0679 10.906ZM74.0679 9.52003C74.4785 9.52003 74.8612 9.42203 75.2159 9.22603C75.5799 9.03003 75.8739 8.73603 76.0979 8.34403C76.3219 7.95203 76.4339 7.47603 76.4339 6.91603C76.4339 6.35603 76.3265 5.8847 76.1119 5.50203C75.8972 5.11003 75.6125 4.81603 75.2579 4.62003C74.9032 4.42403 74.5205 4.32603 74.1099 4.32603C73.6992 4.32603 73.3165 4.42403 72.9619 4.62003C72.6165 4.81603 72.3412 5.11003 72.1359 5.50203C71.9305 5.8847 71.8279 6.35603 71.8279 6.91603C71.8279 7.7467 72.0379 8.3907 72.4579 8.84803C72.8872 9.29603 73.4239 9.52003 74.0679 9.52003ZM81.2456 0.420029V10.78H79.6496V0.420029H81.2456Z" fill="#2E3740"/>
<path fill-rule="evenodd" clip-rule="evenodd" d="M0 30.78H335H0Z" stroke="#CBDCF6" stroke-linecap="round"/>
<path d="M7.336 52.05V53.352H4.746V61.78H3.15V53.352H0.546V52.05H7.336ZM10.5483 55.186C10.7817 54.794 11.0897 54.4907 11.4723 54.276C11.8643 54.052 12.3263 53.94 12.8583 53.94V55.592H12.4523C11.827 55.592 11.351 55.7507 11.0243 56.068C10.707 56.3854 10.5483 56.936 10.5483 57.72V61.78H8.95234V54.066H10.5483V55.186ZM13.7934 57.888C13.7934 57.1134 13.9521 56.4274 14.2694 55.83C14.5961 55.2327 15.0347 54.7707 15.5854 54.444C16.1454 54.108 16.7614 53.94 17.4334 53.94C18.0401 53.94 18.5674 54.0614 19.0154 54.304C19.4727 54.5374 19.8367 54.8314 20.1074 55.186V54.066H21.7174V61.78H20.1074V60.632C19.8367 60.996 19.4681 61.2994 19.0014 61.542C18.5347 61.7847 18.0027 61.906 17.4054 61.906C16.7427 61.906 16.1361 61.738 15.5854 61.402C15.0347 61.0567 14.5961 60.5807 14.2694 59.974C13.9521 59.358 13.7934 58.6627 13.7934 57.888ZM20.1074 57.916C20.1074 57.384 19.9954 56.922 19.7714 56.53C19.5567 56.138 19.2721 55.8394 18.9174 55.634C18.5627 55.4287 18.1801 55.326 17.7694 55.326C17.3587 55.326 16.9761 55.4287 16.6214 55.634C16.2667 55.83 15.9774 56.124 15.7534 56.516C15.5387 56.8987 15.4314 57.356 15.4314 57.888C15.4314 58.42 15.5387 58.8867 15.7534 59.288C15.9774 59.6894 16.2667 59.9974 16.6214 60.212C16.9854 60.4174 17.3681 60.52 17.7694 60.52C18.1801 60.52 18.5627 60.4174 18.9174 60.212C19.2721 60.0067 19.5567 59.708 19.7714 59.316C19.9954 58.9147 20.1074 58.448 20.1074 57.916ZM23.2817 57.888C23.2817 57.1134 23.4403 56.4274 23.7577 55.83C24.0843 55.2327 24.523 54.7707 25.0737 54.444C25.6337 54.108 26.2543 53.94 26.9357 53.94C27.4397 53.94 27.9343 54.052 28.4197 54.276C28.9143 54.4907 29.3063 54.78 29.5957 55.144V51.42H31.2057V61.78H29.5957V60.618C29.3343 60.9914 28.9703 61.2994 28.5037 61.542C28.0463 61.7847 27.519 61.906 26.9217 61.906C26.2497 61.906 25.6337 61.738 25.0737 61.402C24.523 61.0567 24.0843 60.5807 23.7577 59.974C23.4403 59.358 23.2817 58.6627 23.2817 57.888ZM29.5957 57.916C29.5957 57.384 29.4837 56.922 29.2597 56.53C29.045 56.138 28.7603 55.8394 28.4057 55.634C28.051 55.4287 27.6683 55.326 27.2577 55.326C26.847 55.326 26.4643 55.4287 26.1097 55.634C25.755 55.83 25.4657 56.124 25.2417 56.516C25.027 56.8987 24.9197 57.356 24.9197 57.888C24.9197 58.42 25.027 58.8867 25.2417 59.288C25.4657 59.6894 25.755 59.9974 26.1097 60.212C26.4737 60.4174 26.8563 60.52 27.2577 60.52C27.6683 60.52 28.051 60.4174 28.4057 60.212C28.7603 60.0067 29.045 59.708 29.2597 59.316C29.4837 58.9147 29.5957 58.448 29.5957 57.916ZM40.372 57.734C40.372 58.0234 40.3533 58.2847 40.316 58.518H34.422C34.4686 59.134 34.6973 59.6287 35.108 60.002C35.5186 60.3754 36.0226 60.562 36.62 60.562C37.4786 60.562 38.0853 60.2027 38.44 59.484H40.162C39.9286 60.1934 39.504 60.7767 38.888 61.234C38.2813 61.682 37.5253 61.906 36.62 61.906C35.8826 61.906 35.22 61.7427 34.632 61.416C34.0533 61.08 33.596 60.6134 33.26 60.016C32.9333 59.4094 32.77 58.7094 32.77 57.916C32.77 57.1227 32.9286 56.4274 33.246 55.83C33.5726 55.2234 34.0253 54.7567 34.604 54.43C35.192 54.1034 35.864 53.94 36.62 53.94C37.348 53.94 37.9966 54.0987 38.566 54.416C39.1353 54.7334 39.5786 55.1814 39.896 55.76C40.2133 56.3294 40.372 56.9874 40.372 57.734ZM38.706 57.23C38.6966 56.642 38.4866 56.1707 38.076 55.816C37.6653 55.4614 37.1566 55.284 36.55 55.284C35.9993 55.284 35.528 55.4614 35.136 55.816C34.744 56.1614 34.5106 56.6327 34.436 57.23H38.706ZM47.1226 48.564L43.3146 64.23H41.7466L45.5406 48.564H47.1226ZM50.996 55.368V59.638C50.996 59.9274 51.0613 60.1374 51.192 60.268C51.332 60.3894 51.5653 60.45 51.892 60.45H52.872V61.78H51.612C50.8933 61.78 50.3427 61.612 49.96 61.276C49.5773 60.94 49.386 60.394 49.386 59.638V55.368H48.476V54.066H49.386V52.148H50.996V54.066H52.872V55.368H50.996ZM61.413 57.734C61.413 58.0234 61.3943 58.2847 61.357 58.518H55.463C55.5096 59.134 55.7383 59.6287 56.149 60.002C56.5596 60.3754 57.0636 60.562 57.661 60.562C58.5196 60.562 59.1263 60.2027 59.481 59.484H61.203C60.9696 60.1934 60.545 60.7767 59.929 61.234C59.3223 61.682 58.5663 61.906 57.661 61.906C56.9236 61.906 56.261 61.7427 55.673 61.416C55.0943 61.08 54.637 60.6134 54.301 60.016C53.9743 59.4094 53.811 58.7094 53.811 57.916C53.811 57.1227 53.9696 56.4274 54.287 55.83C54.6136 55.2234 55.0663 54.7567 55.645 54.43C56.233 54.1034 56.905 53.94 57.661 53.94C58.389 53.94 59.0376 54.0987 59.607 54.416C60.1763 54.7334 60.6196 55.1814 60.937 55.76C61.2543 56.3294 61.413 56.9874 61.413 57.734ZM59.747 57.23C59.7376 56.642 59.5276 56.1707 59.117 55.816C58.7063 55.4614 58.1976 55.284 57.591 55.284C57.0403 55.284 56.569 55.4614 56.177 55.816C55.785 56.1614 55.5516 56.6327 55.477 57.23H59.747ZM62.4516 57.916C62.4516 57.1227 62.6103 56.4274 62.9276 55.83C63.2543 55.2234 63.7023 54.7567 64.2716 54.43C64.8409 54.1034 65.4943 53.94 66.2316 53.94C67.1649 53.94 67.9349 54.164 68.5416 54.612C69.1576 55.0507 69.5729 55.6807 69.7876 56.502H68.0656C67.9256 56.1194 67.7016 55.8207 67.3936 55.606C67.0856 55.3914 66.6983 55.284 66.2316 55.284C65.5783 55.284 65.0556 55.5174 64.6636 55.984C64.2809 56.4414 64.0896 57.0854 64.0896 57.916C64.0896 58.7467 64.2809 59.3954 64.6636 59.862C65.0556 60.3287 65.5783 60.562 66.2316 60.562C67.1556 60.562 67.7669 60.156 68.0656 59.344H69.7876C69.5636 60.128 69.1436 60.7534 68.5276 61.22C67.9116 61.6774 67.1463 61.906 66.2316 61.906C65.4943 61.906 64.8409 61.7427 64.2716 61.416C63.7023 61.08 63.2543 60.6134 62.9276 60.016C62.6103 59.4094 62.4516 58.7094 62.4516 57.916ZM75.3681 53.94C75.9561 53.94 76.4788 54.066 76.9361 54.318C77.4028 54.57 77.7668 54.9434 78.0281 55.438C78.2988 55.9327 78.4341 56.53 78.4341 57.23V61.78H76.8521V57.468C76.8521 56.7774 76.6795 56.25 76.3341 55.886C75.9888 55.5127 75.5175 55.326 74.9201 55.326C74.3228 55.326 73.8468 55.5127 73.4921 55.886C73.1468 56.25 72.9741 56.7774 72.9741 57.468V61.78H71.3781V51.42H72.9741V54.962C73.2448 54.6354 73.5855 54.3834 73.9961 54.206C74.4161 54.0287 74.8735 53.94 75.3681 53.94ZM86.9066 61.906C86.3 61.906 85.754 61.7987 85.2686 61.584C84.7926 61.36 84.4146 61.0614 84.1346 60.688C83.8546 60.3054 83.7053 59.8807 83.6866 59.414H85.3386C85.3666 59.7407 85.5206 60.016 85.8006 60.24C86.09 60.4547 86.4493 60.562 86.8786 60.562C87.3266 60.562 87.672 60.478 87.9146 60.31C88.1666 60.1327 88.2926 59.9087 88.2926 59.638C88.2926 59.3487 88.1526 59.134 87.8726 58.994C87.602 58.854 87.168 58.7 86.5706 58.532C85.992 58.3734 85.5206 58.2194 85.1566 58.07C84.7926 57.9207 84.4753 57.692 84.2046 57.384C83.9433 57.076 83.8126 56.67 83.8126 56.166C83.8126 55.7554 83.934 55.382 84.1766 55.046C84.4193 54.7007 84.7646 54.43 85.2126 54.234C85.67 54.038 86.1926 53.94 86.7806 53.94C87.658 53.94 88.3626 54.164 88.8946 54.612C89.436 55.0507 89.7253 55.6527 89.7626 56.418H88.1666C88.1386 56.0727 87.9986 55.7974 87.7466 55.592C87.4946 55.3867 87.154 55.284 86.7246 55.284C86.3046 55.284 85.9826 55.3634 85.7586 55.522C85.5346 55.6807 85.4226 55.8907 85.4226 56.152C85.4226 56.3574 85.4973 56.53 85.6466 56.67C85.796 56.81 85.978 56.922 86.1926 57.006C86.4073 57.0807 86.7246 57.1787 87.1446 57.3C87.7046 57.4494 88.162 57.6034 88.5166 57.762C88.8806 57.9114 89.1933 58.1354 89.4546 58.434C89.716 58.7327 89.8513 59.1294 89.8606 59.624C89.8606 60.0627 89.7393 60.4547 89.4966 60.8C89.254 61.1454 88.9086 61.416 88.4606 61.612C88.022 61.808 87.504 61.906 86.9066 61.906ZM91.0532 57.916C91.0532 57.1227 91.2118 56.4274 91.5292 55.83C91.8558 55.2234 92.3038 54.7567 92.8732 54.43C93.4425 54.1034 94.0958 53.94 94.8332 53.94C95.7665 53.94 96.5365 54.164 97.1432 54.612C97.7592 55.0507 98.1745 55.6807 98.3892 56.502H96.6672C96.5272 56.1194 96.3032 55.8207 95.9952 55.606C95.6872 55.3914 95.2998 55.284 94.8332 55.284C94.1798 55.284 93.6572 55.5174 93.2652 55.984C92.8825 56.4414 92.6912 57.0854 92.6912 57.916C92.6912 58.7467 92.8825 59.3954 93.2652 59.862C93.6572 60.3287 94.1798 60.562 94.8332 60.562C95.7572 60.562 96.3685 60.156 96.6672 59.344H98.3892C98.1652 60.128 97.7452 60.7534 97.1292 61.22C96.5132 61.6774 95.7478 61.906 94.8332 61.906C94.0958 61.906 93.4425 61.7427 92.8732 61.416C92.3038 61.08 91.8558 60.6134 91.5292 60.016C91.2118 59.4094 91.0532 58.7094 91.0532 57.916ZM103.97 53.94C104.558 53.94 105.08 54.066 105.538 54.318C106.004 54.57 106.368 54.9434 106.63 55.438C106.9 55.9327 107.036 56.53 107.036 57.23V61.78H105.454V57.468C105.454 56.7774 105.281 56.25 104.936 55.886C104.59 55.5127 104.119 55.326 103.522 55.326C102.924 55.326 102.448 55.5127 102.094 55.886C101.748 56.25 101.576 56.7774 101.576 57.468V61.78H99.9797V51.42H101.576V54.962C101.846 54.6354 102.187 54.3834 102.598 54.206C103.018 54.0287 103.475 53.94 103.97 53.94ZM112.417 61.906C111.689 61.906 111.031 61.7427 110.443 61.416C109.855 61.08 109.393 60.6134 109.057 60.016C108.721 59.4094 108.553 58.7094 108.553 57.916C108.553 57.132 108.726 56.4367 109.071 55.83C109.417 55.2234 109.888 54.7567 110.485 54.43C111.083 54.1034 111.75 53.94 112.487 53.94C113.225 53.94 113.892 54.1034 114.489 54.43C115.087 54.7567 115.558 55.2234 115.903 55.83C116.249 56.4367 116.421 57.132 116.421 57.916C116.421 58.7 116.244 59.3954 115.889 60.002C115.535 60.6087 115.049 61.08 114.433 61.416C113.827 61.7427 113.155 61.906 112.417 61.906ZM112.417 60.52C112.828 60.52 113.211 60.422 113.565 60.226C113.929 60.03 114.223 59.736 114.447 59.344C114.671 58.952 114.783 58.476 114.783 57.916C114.783 57.356 114.676 56.8847 114.461 56.502C114.247 56.11 113.962 55.816 113.607 55.62C113.253 55.424 112.87 55.326 112.459 55.326C112.049 55.326 111.666 55.424 111.311 55.62C110.966 55.816 110.691 56.11 110.485 56.502C110.28 56.8847 110.177 57.356 110.177 57.916C110.177 58.7467 110.387 59.3907 110.807 59.848C111.237 60.296 111.773 60.52 112.417 60.52ZM121.345 61.906C120.617 61.906 119.959 61.7427 119.371 61.416C118.783 61.08 118.321 60.6134 117.985 60.016C117.649 59.4094 117.481 58.7094 117.481 57.916C117.481 57.132 117.654 56.4367 117.999 55.83C118.345 55.2234 118.816 54.7567 119.413 54.43C120.011 54.1034 120.678 53.94 121.415 53.94C122.153 53.94 122.82 54.1034 123.417 54.43C124.015 54.7567 124.486 55.2234 124.831 55.83C125.177 56.4367 125.349 57.132 125.349 57.916C125.349 58.7 125.172 59.3954 124.817 60.002C124.463 60.6087 123.977 61.08 123.361 61.416C122.755 61.7427 122.083 61.906 121.345 61.906ZM121.345 60.52C121.756 60.52 122.139 60.422 122.493 60.226C122.857 60.03 123.151 59.736 123.375 59.344C123.599 58.952 123.711 58.476 123.711 57.916C123.711 57.356 123.604 56.8847 123.389 56.502C123.175 56.11 122.89 55.816 122.535 55.62C122.181 55.424 121.798 55.326 121.387 55.326C120.977 55.326 120.594 55.424 120.239 55.62C119.894 55.816 119.619 56.11 119.413 56.502C119.208 56.8847 119.105 57.356 119.105 57.916C119.105 58.7467 119.315 59.3907 119.735 59.848C120.165 60.296 120.701 60.52 121.345 60.52ZM128.523 51.42V61.78H126.927V51.42H128.523Z" fill="#2E3740"/>
<path fill-rule="evenodd" clip-rule="evenodd" d="M0 81.78H335H0Z" stroke="#CBDCF6" stroke-linecap="round"/>
<path d="M2.646 103.05V112.78H1.05V103.05H2.646ZM8.63341 104.94C9.24007 104.94 9.78141 105.066 10.2574 105.318C10.7427 105.57 11.1207 105.943 11.3914 106.438C11.6621 106.933 11.7974 107.53 11.7974 108.23V112.78H10.2154V108.468C10.2154 107.777 10.0427 107.25 9.69741 106.886C9.35207 106.513 8.88074 106.326 8.28341 106.326C7.68607 106.326 7.21007 106.513 6.85541 106.886C6.51007 107.25 6.33741 107.777 6.33741 108.468V112.78H4.74141V105.066H6.33741V105.948C6.59874 105.631 6.93007 105.383 7.33141 105.206C7.74207 105.029 8.17607 104.94 8.63341 104.94ZM16.9379 107.894C16.9379 106.942 17.1573 106.088 17.5959 105.332C18.0439 104.576 18.6459 103.988 19.4019 103.568C20.1673 103.139 21.0026 102.924 21.9079 102.924C22.9439 102.924 23.8633 103.181 24.6659 103.694C25.4779 104.198 26.0659 104.917 26.4299 105.85H24.5119C24.2599 105.337 23.9099 104.954 23.4619 104.702C23.0139 104.45 22.4959 104.324 21.9079 104.324C21.2639 104.324 20.6899 104.469 20.1859 104.758C19.6819 105.047 19.2853 105.463 18.9959 106.004C18.7159 106.545 18.5759 107.175 18.5759 107.894C18.5759 108.613 18.7159 109.243 18.9959 109.784C19.2853 110.325 19.6819 110.745 20.1859 111.044C20.6899 111.333 21.2639 111.478 21.9079 111.478C22.4959 111.478 23.0139 111.352 23.4619 111.1C23.9099 110.848 24.2599 110.465 24.5119 109.952H26.4299C26.0659 110.885 25.4779 111.604 24.6659 112.108C23.8633 112.612 22.9439 112.864 21.9079 112.864C20.9933 112.864 20.1579 112.654 19.4019 112.234C18.6459 111.805 18.0439 111.212 17.5959 110.456C17.1573 109.7 16.9379 108.846 16.9379 107.894ZM31.644 112.906C30.916 112.906 30.258 112.743 29.67 112.416C29.082 112.08 28.62 111.613 28.284 111.016C27.948 110.409 27.78 109.709 27.78 108.916C27.78 108.132 27.9527 107.437 28.298 106.83C28.6434 106.223 29.1147 105.757 29.712 105.43C30.3094 105.103 30.9767 104.94 31.714 104.94C32.4514 104.94 33.1187 105.103 33.716 105.43C34.3134 105.757 34.7847 106.223 35.13 106.83C35.4754 107.437 35.648 108.132 35.648 108.916C35.648 109.7 35.4707 110.395 35.116 111.002C34.7614 111.609 34.276 112.08 33.66 112.416C33.0534 112.743 32.3814 112.906 31.644 112.906ZM31.644 111.52C32.0547 111.52 32.4374 111.422 32.792 111.226C33.156 111.03 33.45 110.736 33.674 110.344C33.898 109.952 34.01 109.476 34.01 108.916C34.01 108.356 33.9027 107.885 33.688 107.502C33.4734 107.11 33.1887 106.816 32.834 106.62C32.4794 106.424 32.0967 106.326 31.686 106.326C31.2754 106.326 30.8927 106.424 30.538 106.62C30.1927 106.816 29.9174 107.11 29.712 107.502C29.5067 107.885 29.404 108.356 29.404 108.916C29.404 109.747 29.614 110.391 30.034 110.848C30.4634 111.296 31 111.52 31.644 111.52ZM38.8218 102.42V112.78H37.2258V102.42H38.8218ZM42.5132 102.42V112.78H40.9172V102.42H42.5132ZM51.6786 108.734C51.6786 109.023 51.6599 109.285 51.6226 109.518H45.7286C45.7753 110.134 46.0039 110.629 46.4146 111.002C46.8253 111.375 47.3293 111.562 47.9266 111.562C48.7853 111.562 49.3919 111.203 49.7466 110.484H51.4686C51.2353 111.193 50.8106 111.777 50.1946 112.234C49.5879 112.682 48.8319 112.906 47.9266 112.906C47.1893 112.906 46.5266 112.743 45.9386 112.416C45.3599 112.08 44.9026 111.613 44.5666 111.016C44.2399 110.409 44.0766 109.709 44.0766 108.916C44.0766 108.123 44.2353 107.427 44.5526 106.83C44.8793 106.223 45.3319 105.757 45.9106 105.43C46.4986 105.103 47.1706 104.94 47.9266 104.94C48.6546 104.94 49.3033 105.099 49.8726 105.416C50.4419 105.733 50.8853 106.181 51.2026 106.76C51.5199 107.329 51.6786 107.987 51.6786 108.734ZM50.0126 108.23C50.0033 107.642 49.7933 107.171 49.3826 106.816C48.9719 106.461 48.4633 106.284 47.8566 106.284C47.3059 106.284 46.8346 106.461 46.4426 106.816C46.0506 107.161 45.8173 107.633 45.7426 108.23H50.0126ZM56.3572 104.94C56.9546 104.94 57.4819 105.061 57.9392 105.304C58.4059 105.537 58.7699 105.831 59.0312 106.186V105.066H60.6412V112.906C60.6412 113.615 60.4919 114.245 60.1932 114.796C59.8946 115.356 59.4606 115.795 58.8912 116.112C58.3312 116.429 57.6592 116.588 56.8752 116.588C55.8299 116.588 54.9619 116.341 54.2712 115.846C53.5806 115.361 53.1886 114.698 53.0952 113.858H54.6772C54.7986 114.259 55.0552 114.581 55.4472 114.824C55.8486 115.076 56.3246 115.202 56.8752 115.202C57.5192 115.202 58.0372 115.006 58.4292 114.614C58.8306 114.222 59.0312 113.653 59.0312 112.906V111.618C58.7606 111.982 58.3919 112.29 57.9252 112.542C57.4679 112.785 56.9452 112.906 56.3572 112.906C55.6852 112.906 55.0692 112.738 54.5092 112.402C53.9586 112.057 53.5199 111.581 53.1932 110.974C52.8759 110.358 52.7172 109.663 52.7172 108.888C52.7172 108.113 52.8759 107.427 53.1932 106.83C53.5199 106.233 53.9586 105.771 54.5092 105.444C55.0692 105.108 55.6852 104.94 56.3572 104.94ZM59.0312 108.916C59.0312 108.384 58.9192 107.922 58.6952 107.53C58.4806 107.138 58.1959 106.839 57.8412 106.634C57.4866 106.429 57.1039 106.326 56.6932 106.326C56.2826 106.326 55.8999 106.429 55.5452 106.634C55.1906 106.83 54.9012 107.124 54.6772 107.516C54.4626 107.899 54.3552 108.356 54.3552 108.888C54.3552 109.42 54.4626 109.887 54.6772 110.288C54.9012 110.689 55.1906 110.997 55.5452 111.212C55.9092 111.417 56.2919 111.52 56.6932 111.52C57.1039 111.52 57.4866 111.417 57.8412 111.212C58.1959 111.007 58.4806 110.708 58.6952 110.316C58.9192 109.915 59.0312 109.448 59.0312 108.916ZM69.8075 108.734C69.8075 109.023 69.7888 109.285 69.7515 109.518H63.8575C63.9042 110.134 64.1328 110.629 64.5435 111.002C64.9542 111.375 65.4582 111.562 66.0555 111.562C66.9142 111.562 67.5208 111.203 67.8755 110.484H69.5975C69.3642 111.193 68.9395 111.777 68.3235 112.234C67.7168 112.682 66.9608 112.906 66.0555 112.906C65.3182 112.906 64.6555 112.743 64.0675 112.416C63.4888 112.08 63.0315 111.613 62.6955 111.016C62.3688 110.409 62.2055 109.709 62.2055 108.916C62.2055 108.123 62.3642 107.427 62.6815 106.83C63.0082 106.223 63.4608 105.757 64.0395 105.43C64.6275 105.103 65.2995 104.94 66.0555 104.94C66.7835 104.94 67.4322 105.099 68.0015 105.416C68.5708 105.733 69.0142 106.181 69.3315 106.76C69.6488 107.329 69.8075 107.987 69.8075 108.734ZM68.1415 108.23C68.1322 107.642 67.9222 107.171 67.5115 106.816C67.1008 106.461 66.5922 106.284 65.9855 106.284C65.4348 106.284 64.9635 106.461 64.5715 106.816C64.1795 107.161 63.9462 107.633 63.8715 108.23H68.1415Z" fill="#2E3740"/>
<path fill-rule="evenodd" clip-rule="evenodd" d="M0 132.78H335H0Z" stroke="#CBDCF6" stroke-linecap="round"/>
<path d="M2.632 154.05V160.252C2.632 160.989 2.82333 161.545 3.206 161.918C3.598 162.291 4.13933 162.478 4.83 162.478C5.53 162.478 6.07133 162.291 6.454 161.918C6.846 161.545 7.042 160.989 7.042 160.252V154.05H8.638V160.224C8.638 161.017 8.46533 161.689 8.12 162.24C7.77467 162.791 7.31267 163.201 6.734 163.472C6.15533 163.743 5.516 163.878 4.816 163.878C4.116 163.878 3.47667 163.743 2.898 163.472C2.32867 163.201 1.876 162.791 1.54 162.24C1.204 161.689 1.036 161.017 1.036 160.224V154.05H2.632ZM14.608 155.94C15.2147 155.94 15.756 156.066 16.232 156.318C16.7173 156.57 17.0953 156.943 17.366 157.438C17.6367 157.933 17.772 158.53 17.772 159.23V163.78H16.19V159.468C16.19 158.777 16.0173 158.25 15.672 157.886C15.3267 157.513 14.8553 157.326 14.258 157.326C13.6607 157.326 13.1847 157.513 12.83 157.886C12.4847 158.25 12.312 158.777 12.312 159.468V163.78H10.716V156.066H12.312V156.948C12.5733 156.631 12.9047 156.383 13.306 156.206C13.7167 156.029 14.1507 155.94 14.608 155.94ZM19.2758 159.888C19.2758 159.113 19.4345 158.427 19.7518 157.83C20.0785 157.233 20.5171 156.771 21.0678 156.444C21.6278 156.108 22.2485 155.94 22.9298 155.94C23.4338 155.94 23.9285 156.052 24.4138 156.276C24.9085 156.491 25.3005 156.78 25.5898 157.144V153.42H27.1998V163.78H25.5898V162.618C25.3285 162.991 24.9645 163.299 24.4978 163.542C24.0405 163.785 23.5131 163.906 22.9158 163.906C22.2438 163.906 21.6278 163.738 21.0678 163.402C20.5171 163.057 20.0785 162.581 19.7518 161.974C19.4345 161.358 19.2758 160.663 19.2758 159.888ZM25.5898 159.916C25.5898 159.384 25.4778 158.922 25.2538 158.53C25.0391 158.138 24.7545 157.839 24.3998 157.634C24.0451 157.429 23.6625 157.326 23.2518 157.326C22.8411 157.326 22.4585 157.429 22.1038 157.634C21.7491 157.83 21.4598 158.124 21.2358 158.516C21.0211 158.899 20.9138 159.356 20.9138 159.888C20.9138 160.42 21.0211 160.887 21.2358 161.288C21.4598 161.689 21.7491 161.997 22.1038 162.212C22.4678 162.417 22.8505 162.52 23.2518 162.52C23.6625 162.52 24.0451 162.417 24.3998 162.212C24.7545 162.007 25.0391 161.708 25.2538 161.316C25.4778 160.915 25.5898 160.448 25.5898 159.916ZM36.3661 159.734C36.3661 160.023 36.3474 160.285 36.3101 160.518H30.4161C30.4628 161.134 30.6914 161.629 31.1021 162.002C31.5128 162.375 32.0168 162.562 32.6141 162.562C33.4728 162.562 34.0794 162.203 34.4341 161.484H36.1561C35.9228 162.193 35.4981 162.777 34.8821 163.234C34.2754 163.682 33.5194 163.906 32.6141 163.906C31.8768 163.906 31.2141 163.743 30.6261 163.416C30.0474 163.08 29.5901 162.613 29.2541 162.016C28.9274 161.409 28.7641 160.709 28.7641 159.916C28.7641 159.123 28.9228 158.427 29.2401 157.83C29.5668 157.223 30.0194 156.757 30.5981 156.43C31.1861 156.103 31.8581 155.94 32.6141 155.94C33.3421 155.94 33.9908 156.099 34.5601 156.416C35.1294 156.733 35.5728 157.181 35.8901 157.76C36.2074 158.329 36.3661 158.987 36.3661 159.734ZM34.7001 159.23C34.6908 158.642 34.4808 158.171 34.0701 157.816C33.6594 157.461 33.1508 157.284 32.5441 157.284C31.9934 157.284 31.5221 157.461 31.1301 157.816C30.7381 158.161 30.5048 158.633 30.4301 159.23H34.7001ZM39.5327 157.186C39.7661 156.794 40.0741 156.491 40.4567 156.276C40.8487 156.052 41.3107 155.94 41.8427 155.94V157.592H41.4367C40.8114 157.592 40.3354 157.751 40.0087 158.068C39.6914 158.385 39.5327 158.936 39.5327 159.72V163.78H37.9367V156.066H39.5327V157.186ZM46.4178 155.94C47.0151 155.94 47.5424 156.061 47.9998 156.304C48.4664 156.537 48.8304 156.831 49.0918 157.186V156.066H50.7018V163.906C50.7018 164.615 50.5524 165.245 50.2538 165.796C49.9551 166.356 49.5211 166.795 48.9518 167.112C48.3918 167.429 47.7198 167.588 46.9358 167.588C45.8904 167.588 45.0224 167.341 44.3318 166.846C43.6411 166.361 43.2491 165.698 43.1558 164.858H44.7378C44.8591 165.259 45.1158 165.581 45.5078 165.824C45.9091 166.076 46.3851 166.202 46.9358 166.202C47.5798 166.202 48.0978 166.006 48.4898 165.614C48.8911 165.222 49.0918 164.653 49.0918 163.906V162.618C48.8211 162.982 48.4524 163.29 47.9858 163.542C47.5284 163.785 47.0058 163.906 46.4178 163.906C45.7458 163.906 45.1298 163.738 44.5698 163.402C44.0191 163.057 43.5804 162.581 43.2538 161.974C42.9364 161.358 42.7778 160.663 42.7778 159.888C42.7778 159.113 42.9364 158.427 43.2538 157.83C43.5804 157.233 44.0191 156.771 44.5698 156.444C45.1298 156.108 45.7458 155.94 46.4178 155.94ZM49.0918 159.916C49.0918 159.384 48.9798 158.922 48.7558 158.53C48.5411 158.138 48.2564 157.839 47.9018 157.634C47.5471 157.429 47.1644 157.326 46.7538 157.326C46.3431 157.326 45.9604 157.429 45.6058 157.634C45.2511 157.83 44.9618 158.124 44.7378 158.516C44.5231 158.899 44.4158 159.356 44.4158 159.888C44.4158 160.42 44.5231 160.887 44.7378 161.288C44.9618 161.689 45.2511 161.997 45.6058 162.212C45.9698 162.417 46.3524 162.52 46.7538 162.52C47.1644 162.52 47.5471 162.417 47.9018 162.212C48.2564 162.007 48.5411 161.708 48.7558 161.316C48.9798 160.915 49.0918 160.448 49.0918 159.916ZM54.394 157.186C54.6274 156.794 54.9354 156.491 55.318 156.276C55.71 156.052 56.172 155.94 56.704 155.94V157.592H56.298C55.6727 157.592 55.1967 157.751 54.87 158.068C54.5527 158.385 54.394 158.936 54.394 159.72V163.78H52.798V156.066H54.394V157.186ZM57.6391 159.888C57.6391 159.113 57.7978 158.427 58.1151 157.83C58.4418 157.233 58.8804 156.771 59.4311 156.444C59.9911 156.108 60.6071 155.94 61.2791 155.94C61.8858 155.94 62.4131 156.061 62.8611 156.304C63.3184 156.537 63.6824 156.831 63.9531 157.186V156.066H65.5631V163.78H63.9531V162.632C63.6824 162.996 63.3138 163.299 62.8471 163.542C62.3804 163.785 61.8484 163.906 61.2511 163.906C60.5884 163.906 59.9818 163.738 59.4311 163.402C58.8804 163.057 58.4418 162.581 58.1151 161.974C57.7978 161.358 57.6391 160.663 57.6391 159.888ZM63.9531 159.916C63.9531 159.384 63.8411 158.922 63.6171 158.53C63.4024 158.138 63.1178 157.839 62.7631 157.634C62.4084 157.429 62.0258 157.326 61.6151 157.326C61.2044 157.326 60.8218 157.429 60.4671 157.634C60.1124 157.83 59.8231 158.124 59.5991 158.516C59.3844 158.899 59.2771 159.356 59.2771 159.888C59.2771 160.42 59.3844 160.887 59.5991 161.288C59.8231 161.689 60.1124 161.997 60.4671 162.212C60.8311 162.417 61.2138 162.52 61.6151 162.52C62.0258 162.52 62.4084 162.417 62.7631 162.212C63.1178 162.007 63.4024 161.708 63.6171 161.316C63.8411 160.915 63.9531 160.448 63.9531 159.916ZM67.1274 159.888C67.1274 159.113 67.286 158.427 67.6034 157.83C67.93 157.233 68.3687 156.771 68.9194 156.444C69.4794 156.108 70.1 155.94 70.7814 155.94C71.2854 155.94 71.78 156.052 72.2654 156.276C72.76 156.491 73.152 156.78 73.4414 157.144V153.42H75.0514V163.78H73.4414V162.618C73.18 162.991 72.816 163.299 72.3494 163.542C71.892 163.785 71.3647 163.906 70.7674 163.906C70.0954 163.906 69.4794 163.738 68.9194 163.402C68.3687 163.057 67.93 162.581 67.6034 161.974C67.286 161.358 67.1274 160.663 67.1274 159.888ZM73.4414 159.916C73.4414 159.384 73.3294 158.922 73.1054 158.53C72.8907 158.138 72.606 157.839 72.2514 157.634C71.8967 157.429 71.514 157.326 71.1034 157.326C70.6927 157.326 70.31 157.429 69.9554 157.634C69.6007 157.83 69.3114 158.124 69.0874 158.516C68.8727 158.899 68.7654 159.356 68.7654 159.888C68.7654 160.42 68.8727 160.887 69.0874 161.288C69.3114 161.689 69.6007 161.997 69.9554 162.212C70.3194 162.417 70.702 162.52 71.1034 162.52C71.514 162.52 71.8967 162.417 72.2514 162.212C72.606 162.007 72.8907 161.708 73.1054 161.316C73.3294 160.915 73.4414 160.448 73.4414 159.916ZM84.1337 156.066V163.78H82.5377V162.87C82.2857 163.187 81.9543 163.439 81.5437 163.626C81.1423 163.803 80.713 163.892 80.2557 163.892C79.649 163.892 79.103 163.766 78.6177 163.514C78.1417 163.262 77.7637 162.889 77.4837 162.394C77.213 161.899 77.0777 161.302 77.0777 160.602V156.066H78.6597V160.364C78.6597 161.055 78.8323 161.587 79.1777 161.96C79.523 162.324 79.9943 162.506 80.5917 162.506C81.189 162.506 81.6603 162.324 82.0057 161.96C82.3603 161.587 82.5377 161.055 82.5377 160.364V156.066H84.1337ZM85.7075 159.888C85.7075 159.113 85.8661 158.427 86.1835 157.83C86.5101 157.233 86.9488 156.771 87.4995 156.444C88.0595 156.108 88.6755 155.94 89.3475 155.94C89.9541 155.94 90.4815 156.061 90.9295 156.304C91.3868 156.537 91.7508 156.831 92.0215 157.186V156.066H93.6315V163.78H92.0215V162.632C91.7508 162.996 91.3821 163.299 90.9155 163.542C90.4488 163.785 89.9168 163.906 89.3195 163.906C88.6568 163.906 88.0501 163.738 87.4995 163.402C86.9488 163.057 86.5101 162.581 86.1835 161.974C85.8661 161.358 85.7075 160.663 85.7075 159.888ZM92.0215 159.916C92.0215 159.384 91.9095 158.922 91.6855 158.53C91.4708 158.138 91.1861 157.839 90.8315 157.634C90.4768 157.429 90.0941 157.326 89.6835 157.326C89.2728 157.326 88.8901 157.429 88.5355 157.634C88.1808 157.83 87.8915 158.124 87.6675 158.516C87.4528 158.899 87.3455 159.356 87.3455 159.888C87.3455 160.42 87.4528 160.887 87.6675 161.288C87.8915 161.689 88.1808 161.997 88.5355 162.212C88.8995 162.417 89.2821 162.52 89.6835 162.52C90.0941 162.52 90.4768 162.417 90.8315 162.212C91.1861 162.007 91.4708 161.708 91.6855 161.316C91.9095 160.915 92.0215 160.448 92.0215 159.916ZM97.5897 157.368V161.638C97.5897 161.927 97.6551 162.137 97.7857 162.268C97.9257 162.389 98.1591 162.45 98.4857 162.45H99.4657V163.78H98.2057C97.4871 163.78 96.9364 163.612 96.5537 163.276C96.1711 162.94 95.9797 162.394 95.9797 161.638V157.368H95.0697V156.066H95.9797V154.148H97.5897V156.066H99.4657V157.368H97.5897ZM108.007 159.734C108.007 160.023 107.988 160.285 107.951 160.518H102.057C102.103 161.134 102.332 161.629 102.743 162.002C103.153 162.375 103.657 162.562 104.255 162.562C105.113 162.562 105.72 162.203 106.075 161.484H107.797C107.563 162.193 107.139 162.777 106.523 163.234C105.916 163.682 105.16 163.906 104.255 163.906C103.517 163.906 102.855 163.743 102.267 163.416C101.688 163.08 101.231 162.613 100.895 162.016C100.568 161.409 100.405 160.709 100.405 159.916C100.405 159.123 100.563 158.427 100.881 157.83C101.207 157.223 101.66 156.757 102.239 156.43C102.827 156.103 103.499 155.94 104.255 155.94C104.983 155.94 105.631 156.099 106.201 156.416C106.77 156.733 107.213 157.181 107.531 157.76C107.848 158.329 108.007 158.987 108.007 159.734ZM106.341 159.23C106.331 158.642 106.121 158.171 105.711 157.816C105.3 157.461 104.791 157.284 104.185 157.284C103.634 157.284 103.163 157.461 102.771 157.816C102.379 158.161 102.145 158.633 102.071 159.23H106.341ZM116.392 154.05C117.428 154.05 118.333 154.251 119.108 154.652C119.892 155.044 120.494 155.613 120.914 156.36C121.343 157.097 121.558 157.961 121.558 158.95C121.558 159.939 121.343 160.798 120.914 161.526C120.494 162.254 119.892 162.814 119.108 163.206C118.333 163.589 117.428 163.78 116.392 163.78H113.214V154.05H116.392ZM116.392 162.478C117.531 162.478 118.403 162.17 119.01 161.554C119.617 160.938 119.92 160.07 119.92 158.95C119.92 157.821 119.617 156.939 119.01 156.304C118.403 155.669 117.531 155.352 116.392 155.352H114.81V162.478H116.392ZM130.21 159.734C130.21 160.023 130.191 160.285 130.154 160.518H124.26C124.307 161.134 124.535 161.629 124.946 162.002C125.357 162.375 125.861 162.562 126.458 162.562C127.317 162.562 127.923 162.203 128.278 161.484H130C129.767 162.193 129.342 162.777 128.726 163.234C128.119 163.682 127.363 163.906 126.458 163.906C125.721 163.906 125.058 163.743 124.47 163.416C123.891 163.08 123.434 162.613 123.098 162.016C122.771 161.409 122.608 160.709 122.608 159.916C122.608 159.123 122.767 158.427 123.084 157.83C123.411 157.223 123.863 156.757 124.442 156.43C125.03 156.103 125.702 155.94 126.458 155.94C127.186 155.94 127.835 156.099 128.404 156.416C128.973 156.733 129.417 157.181 129.734 157.76C130.051 158.329 130.21 158.987 130.21 159.734ZM128.544 159.23C128.535 158.642 128.325 158.171 127.914 157.816C127.503 157.461 126.995 157.284 126.388 157.284C125.837 157.284 125.366 157.461 124.974 157.816C124.582 158.161 124.349 158.633 124.274 159.23H128.544ZM134.888 155.94C135.486 155.94 136.013 156.061 136.47 156.304C136.937 156.537 137.301 156.831 137.562 157.186V156.066H139.172V163.906C139.172 164.615 139.023 165.245 138.724 165.796C138.426 166.356 137.992 166.795 137.422 167.112C136.862 167.429 136.19 167.588 135.406 167.588C134.361 167.588 133.493 167.341 132.802 166.846C132.112 166.361 131.72 165.698 131.626 164.858H133.208C133.33 165.259 133.586 165.581 133.978 165.824C134.38 166.076 134.856 166.202 135.406 166.202C136.05 166.202 136.568 166.006 136.96 165.614C137.362 165.222 137.562 164.653 137.562 163.906V162.618C137.292 162.982 136.923 163.29 136.456 163.542C135.999 163.785 135.476 163.906 134.888 163.906C134.216 163.906 133.6 163.738 133.04 163.402C132.49 163.057 132.051 162.581 131.724 161.974C131.407 161.358 131.248 160.663 131.248 159.888C131.248 159.113 131.407 158.427 131.724 157.83C132.051 157.233 132.49 156.771 133.04 156.444C133.6 156.108 134.216 155.94 134.888 155.94ZM137.562 159.916C137.562 159.384 137.45 158.922 137.226 158.53C137.012 158.138 136.727 157.839 136.372 157.634C136.018 157.429 135.635 157.326 135.224 157.326C134.814 157.326 134.431 157.429 134.076 157.634C133.722 157.83 133.432 158.124 133.208 158.516C132.994 158.899 132.886 159.356 132.886 159.888C132.886 160.42 132.994 160.887 133.208 161.288C133.432 161.689 133.722 161.997 134.076 162.212C134.44 162.417 134.823 162.52 135.224 162.52C135.635 162.52 136.018 162.417 136.372 162.212C136.727 162.007 137.012 161.708 137.226 161.316C137.45 160.915 137.562 160.448 137.562 159.916ZM142.865 157.186C143.098 156.794 143.406 156.491 143.789 156.276C144.181 156.052 144.643 155.94 145.175 155.94V157.592H144.769C144.143 157.592 143.667 157.751 143.341 158.068C143.023 158.385 142.865 158.936 142.865 159.72V163.78H141.269V156.066H142.865V157.186ZM153.712 159.734C153.712 160.023 153.693 160.285 153.656 160.518H147.762C147.808 161.134 148.037 161.629 148.448 162.002C148.858 162.375 149.362 162.562 149.96 162.562C150.818 162.562 151.425 162.203 151.78 161.484H153.502C153.268 162.193 152.844 162.777 152.228 163.234C151.621 163.682 150.865 163.906 149.96 163.906C149.222 163.906 148.56 163.743 147.972 163.416C147.393 163.08 146.936 162.613 146.6 162.016C146.273 161.409 146.11 160.709 146.11 159.916C146.11 159.123 146.268 158.427 146.586 157.83C146.912 157.223 147.365 156.757 147.944 156.43C148.532 156.103 149.204 155.94 149.96 155.94C150.688 155.94 151.336 156.099 151.906 156.416C152.475 156.733 152.918 157.181 153.236 157.76C153.553 158.329 153.712 158.987 153.712 159.734ZM152.046 159.23C152.036 158.642 151.826 158.171 151.416 157.816C151.005 157.461 150.496 157.284 149.89 157.284C149.339 157.284 148.868 157.461 148.476 157.816C148.084 158.161 147.85 158.633 147.776 159.23H152.046ZM162.352 159.734C162.352 160.023 162.334 160.285 162.296 160.518H156.402C156.449 161.134 156.678 161.629 157.088 162.002C157.499 162.375 158.003 162.562 158.6 162.562C159.459 162.562 160.066 162.203 160.42 161.484H162.142C161.909 162.193 161.484 162.777 160.868 163.234C160.262 163.682 159.506 163.906 158.6 163.906C157.863 163.906 157.2 163.743 156.612 163.416C156.034 163.08 155.576 162.613 155.24 162.016C154.914 161.409 154.75 160.709 154.75 159.916C154.75 159.123 154.909 158.427 155.226 157.83C155.553 157.223 156.006 156.757 156.584 156.43C157.172 156.103 157.844 155.94 158.6 155.94C159.328 155.94 159.977 156.099 160.546 156.416C161.116 156.733 161.559 157.181 161.876 157.76C162.194 158.329 162.352 158.987 162.352 159.734ZM160.686 159.23C160.677 158.642 160.467 158.171 160.056 157.816C159.646 157.461 159.137 157.284 158.53 157.284C157.98 157.284 157.508 157.461 157.116 157.816C156.724 158.161 156.491 158.633 156.416 159.23H160.686Z" fill="#2E3740"/>
<path fill-rule="evenodd" clip-rule="evenodd" d="M0 183.78H335H0Z" stroke="#CBDCF6" stroke-linecap="round"/>
<path d="M8.092 207.85C7.84 207.365 7.49 207.001 7.042 206.758C6.594 206.506 6.076 206.38 5.488 206.38C4.844 206.38 4.27 206.525 3.766 206.814C3.262 207.103 2.86533 207.514 2.576 208.046C2.296 208.578 2.156 209.194 2.156 209.894C2.156 210.594 2.296 211.215 2.576 211.756C2.86533 212.288 3.262 212.699 3.766 212.988C4.27 213.277 4.844 213.422 5.488 213.422C6.356 213.422 7.06067 213.179 7.602 212.694C8.14333 212.209 8.47467 211.551 8.596 210.72H4.942V209.446H10.304V210.692C10.2013 211.448 9.93067 212.143 9.492 212.778C9.06267 213.413 8.498 213.921 7.798 214.304C7.10733 214.677 6.33733 214.864 5.488 214.864C4.57333 214.864 3.738 214.654 2.982 214.234C2.226 213.805 1.624 213.212 1.176 212.456C0.737333 211.7 0.518 210.846 0.518 209.894C0.518 208.942 0.737333 208.088 1.176 207.332C1.624 206.576 2.226 205.988 2.982 205.568C3.74733 205.139 4.58267 204.924 5.488 204.924C6.524 204.924 7.44333 205.181 8.246 205.694C9.058 206.198 9.646 206.917 10.01 207.85H8.092ZM13.4741 208.186C13.7075 207.794 14.0155 207.491 14.3981 207.276C14.7901 207.052 15.2521 206.94 15.7841 206.94V208.592H15.3781C14.7528 208.592 14.2768 208.751 13.9501 209.068C13.6328 209.385 13.4741 209.936 13.4741 210.72V214.78H11.8781V207.066H13.4741V208.186ZM16.7192 210.888C16.7192 210.113 16.8778 209.427 17.1952 208.83C17.5218 208.233 17.9605 207.771 18.5112 207.444C19.0712 207.108 19.6872 206.94 20.3592 206.94C20.9658 206.94 21.4932 207.061 21.9412 207.304C22.3985 207.537 22.7625 207.831 23.0332 208.186V207.066H24.6432V214.78H23.0332V213.632C22.7625 213.996 22.3938 214.299 21.9272 214.542C21.4605 214.785 20.9285 214.906 20.3312 214.906C19.6685 214.906 19.0618 214.738 18.5112 214.402C17.9605 214.057 17.5218 213.581 17.1952 212.974C16.8778 212.358 16.7192 211.663 16.7192 210.888ZM23.0332 210.916C23.0332 210.384 22.9212 209.922 22.6972 209.53C22.4825 209.138 22.1978 208.839 21.8432 208.634C21.4885 208.429 21.1058 208.326 20.6952 208.326C20.2845 208.326 19.9018 208.429 19.5472 208.634C19.1925 208.83 18.9032 209.124 18.6792 209.516C18.4645 209.899 18.3572 210.356 18.3572 210.888C18.3572 211.42 18.4645 211.887 18.6792 212.288C18.9032 212.689 19.1925 212.997 19.5472 213.212C19.9112 213.417 20.2938 213.52 20.6952 213.52C21.1058 213.52 21.4885 213.417 21.8432 213.212C22.1978 213.007 22.4825 212.708 22.6972 212.316C22.9212 211.915 23.0332 211.448 23.0332 210.916ZM26.2075 210.888C26.2075 210.113 26.3661 209.427 26.6835 208.83C27.0101 208.233 27.4488 207.771 27.9995 207.444C28.5595 207.108 29.1801 206.94 29.8615 206.94C30.3655 206.94 30.8601 207.052 31.3455 207.276C31.8401 207.491 32.2321 207.78 32.5215 208.144V204.42H34.1315V214.78H32.5215V213.618C32.2601 213.991 31.8961 214.299 31.4295 214.542C30.9721 214.785 30.4448 214.906 29.8475 214.906C29.1755 214.906 28.5595 214.738 27.9995 214.402C27.4488 214.057 27.0101 213.581 26.6835 212.974C26.3661 212.358 26.2075 211.663 26.2075 210.888ZM32.5215 210.916C32.5215 210.384 32.4095 209.922 32.1855 209.53C31.9708 209.138 31.6861 208.839 31.3315 208.634C30.9768 208.429 30.5941 208.326 30.1835 208.326C29.7728 208.326 29.3901 208.429 29.0355 208.634C28.6808 208.83 28.3915 209.124 28.1675 209.516C27.9528 209.899 27.8455 210.356 27.8455 210.888C27.8455 211.42 27.9528 211.887 28.1675 212.288C28.3915 212.689 28.6808 212.997 29.0355 213.212C29.3995 213.417 29.7821 213.52 30.1835 213.52C30.5941 213.52 30.9768 213.417 31.3315 213.212C31.6861 213.007 31.9708 212.708 32.1855 212.316C32.4095 211.915 32.5215 211.448 32.5215 210.916ZM43.2137 207.066V214.78H41.6177V213.87C41.3657 214.187 41.0344 214.439 40.6237 214.626C40.2224 214.803 39.7931 214.892 39.3357 214.892C38.7291 214.892 38.1831 214.766 37.6977 214.514C37.2217 214.262 36.8437 213.889 36.5637 213.394C36.2931 212.899 36.1577 212.302 36.1577 211.602V207.066H37.7397V211.364C37.7397 212.055 37.9124 212.587 38.2577 212.96C38.6031 213.324 39.0744 213.506 39.6717 213.506C40.2691 213.506 40.7404 213.324 41.0857 212.96C41.4404 212.587 41.6177 212.055 41.6177 211.364V207.066H43.2137ZM44.7875 210.888C44.7875 210.113 44.9462 209.427 45.2635 208.83C45.5902 208.233 46.0289 207.771 46.5795 207.444C47.1395 207.108 47.7555 206.94 48.4275 206.94C49.0342 206.94 49.5615 207.061 50.0095 207.304C50.4669 207.537 50.8309 207.831 51.1015 208.186V207.066H52.7115V214.78H51.1015V213.632C50.8309 213.996 50.4622 214.299 49.9955 214.542C49.5289 214.785 48.9969 214.906 48.3995 214.906C47.7369 214.906 47.1302 214.738 46.5795 214.402C46.0289 214.057 45.5902 213.581 45.2635 212.974C44.9462 212.358 44.7875 211.663 44.7875 210.888ZM51.1015 210.916C51.1015 210.384 50.9895 209.922 50.7655 209.53C50.5509 209.138 50.2662 208.839 49.9115 208.634C49.5569 208.429 49.1742 208.326 48.7635 208.326C48.3529 208.326 47.9702 208.429 47.6155 208.634C47.2609 208.83 46.9715 209.124 46.7475 209.516C46.5329 209.899 46.4255 210.356 46.4255 210.888C46.4255 211.42 46.5329 211.887 46.7475 212.288C46.9715 212.689 47.2609 212.997 47.6155 213.212C47.9795 213.417 48.3622 213.52 48.7635 213.52C49.1742 213.52 49.5569 213.417 49.9115 213.212C50.2662 213.007 50.5509 212.708 50.7655 212.316C50.9895 211.915 51.1015 211.448 51.1015 210.916ZM56.6698 208.368V212.638C56.6698 212.927 56.7351 213.137 56.8658 213.268C57.0058 213.389 57.2391 213.45 57.5658 213.45H58.5458V214.78H57.2858C56.5671 214.78 56.0165 214.612 55.6338 214.276C55.2511 213.94 55.0598 213.394 55.0598 212.638V208.368H54.1498V207.066H55.0598V205.148H56.6698V207.066H58.5458V208.368H56.6698ZM67.0868 210.734C67.0868 211.023 67.0681 211.285 67.0308 211.518H61.1368C61.1835 212.134 61.4121 212.629 61.8228 213.002C62.2335 213.375 62.7375 213.562 63.3348 213.562C64.1935 213.562 64.8001 213.203 65.1548 212.484H66.8768C66.6435 213.193 66.2188 213.777 65.6028 214.234C64.9961 214.682 64.2401 214.906 63.3348 214.906C62.5975 214.906 61.9348 214.743 61.3468 214.416C60.7681 214.08 60.3108 213.613 59.9748 213.016C59.6481 212.409 59.4848 211.709 59.4848 210.916C59.4848 210.123 59.6435 209.427 59.9608 208.83C60.2875 208.223 60.7401 207.757 61.3188 207.43C61.9068 207.103 62.5788 206.94 63.3348 206.94C64.0628 206.94 64.7115 207.099 65.2808 207.416C65.8501 207.733 66.2935 208.181 66.6108 208.76C66.9281 209.329 67.0868 209.987 67.0868 210.734ZM65.4208 210.23C65.4115 209.642 65.2015 209.171 64.7908 208.816C64.3801 208.461 63.8715 208.284 63.2648 208.284C62.7141 208.284 62.2428 208.461 61.8508 208.816C61.4588 209.161 61.2255 209.633 61.1508 210.23H65.4208ZM75.4721 205.05C76.5081 205.05 77.4135 205.251 78.1881 205.652C78.9721 206.044 79.5741 206.613 79.9941 207.36C80.4235 208.097 80.6381 208.961 80.6381 209.95C80.6381 210.939 80.4235 211.798 79.9941 212.526C79.5741 213.254 78.9721 213.814 78.1881 214.206C77.4135 214.589 76.5081 214.78 75.4721 214.78H72.2941V205.05H75.4721ZM75.4721 213.478C76.6108 213.478 77.4835 213.17 78.0901 212.554C78.6968 211.938 79.0001 211.07 79.0001 209.95C79.0001 208.821 78.6968 207.939 78.0901 207.304C77.4835 206.669 76.6108 206.352 75.4721 206.352H73.8901V213.478H75.4721ZM89.2899 210.734C89.2899 211.023 89.2713 211.285 89.2339 211.518H83.3399C83.3866 212.134 83.6153 212.629 84.0259 213.002C84.4366 213.375 84.9406 213.562 85.5379 213.562C86.3966 213.562 87.0033 213.203 87.3579 212.484H89.0799C88.8466 213.193 88.4219 213.777 87.8059 214.234C87.1993 214.682 86.4433 214.906 85.5379 214.906C84.8006 214.906 84.1379 214.743 83.5499 214.416C82.9713 214.08 82.5139 213.613 82.1779 213.016C81.8513 212.409 81.6879 211.709 81.6879 210.916C81.6879 210.123 81.8466 209.427 82.1639 208.83C82.4906 208.223 82.9433 207.757 83.5219 207.43C84.1099 207.103 84.7819 206.94 85.5379 206.94C86.2659 206.94 86.9146 207.099 87.4839 207.416C88.0533 207.733 88.4966 208.181 88.8139 208.76C89.1313 209.329 89.2899 209.987 89.2899 210.734ZM87.6239 210.23C87.6146 209.642 87.4046 209.171 86.9939 208.816C86.5833 208.461 86.0746 208.284 85.4679 208.284C84.9173 208.284 84.4459 208.461 84.0539 208.816C83.6619 209.161 83.4286 209.633 83.3539 210.23H87.6239ZM93.9685 206.94C94.5659 206.94 95.0932 207.061 95.5505 207.304C96.0172 207.537 96.3812 207.831 96.6425 208.186V207.066H98.2525V214.906C98.2525 215.615 98.1032 216.245 97.8045 216.796C97.5059 217.356 97.0719 217.795 96.5025 218.112C95.9425 218.429 95.2705 218.588 94.4865 218.588C93.4412 218.588 92.5732 218.341 91.8825 217.846C91.1919 217.361 90.7999 216.698 90.7065 215.858H92.2885C92.4099 216.259 92.6665 216.581 93.0585 216.824C93.4599 217.076 93.9359 217.202 94.4865 217.202C95.1305 217.202 95.6485 217.006 96.0405 216.614C96.4419 216.222 96.6425 215.653 96.6425 214.906V213.618C96.3719 213.982 96.0032 214.29 95.5365 214.542C95.0792 214.785 94.5565 214.906 93.9685 214.906C93.2965 214.906 92.6805 214.738 92.1205 214.402C91.5699 214.057 91.1312 213.581 90.8045 212.974C90.4872 212.358 90.3285 211.663 90.3285 210.888C90.3285 210.113 90.4872 209.427 90.8045 208.83C91.1312 208.233 91.5699 207.771 92.1205 207.444C92.6805 207.108 93.2965 206.94 93.9685 206.94ZM96.6425 210.916C96.6425 210.384 96.5305 209.922 96.3065 209.53C96.0919 209.138 95.8072 208.839 95.4525 208.634C95.0979 208.429 94.7152 208.326 94.3045 208.326C93.8939 208.326 93.5112 208.429 93.1565 208.634C92.8019 208.83 92.5125 209.124 92.2885 209.516C92.0739 209.899 91.9665 210.356 91.9665 210.888C91.9665 211.42 92.0739 211.887 92.2885 212.288C92.5125 212.689 92.8019 212.997 93.1565 213.212C93.5205 213.417 93.9032 213.52 94.3045 213.52C94.7152 213.52 95.0979 213.417 95.4525 213.212C95.8072 213.007 96.0919 212.708 96.3065 212.316C96.5305 211.915 96.6425 211.448 96.6425 210.916ZM101.945 208.186C102.178 207.794 102.486 207.491 102.869 207.276C103.261 207.052 103.723 206.94 104.255 206.94V208.592H103.849C103.223 208.592 102.747 208.751 102.421 209.068C102.103 209.385 101.945 209.936 101.945 210.72V214.78H100.349V207.066H101.945V208.186ZM112.792 210.734C112.792 211.023 112.773 211.285 112.736 211.518H106.842C106.889 212.134 107.117 212.629 107.528 213.002C107.939 213.375 108.443 213.562 109.04 213.562C109.899 213.562 110.505 213.203 110.86 212.484H112.582C112.349 213.193 111.924 213.777 111.308 214.234C110.701 214.682 109.945 214.906 109.04 214.906C108.303 214.906 107.64 214.743 107.052 214.416C106.473 214.08 106.016 213.613 105.68 213.016C105.353 212.409 105.19 211.709 105.19 210.916C105.19 210.123 105.349 209.427 105.666 208.83C105.993 208.223 106.445 207.757 107.024 207.43C107.612 207.103 108.284 206.94 109.04 206.94C109.768 206.94 110.417 207.099 110.986 207.416C111.555 207.733 111.999 208.181 112.316 208.76C112.633 209.329 112.792 209.987 112.792 210.734ZM111.126 210.23C111.117 209.642 110.907 209.171 110.496 208.816C110.085 208.461 109.577 208.284 108.97 208.284C108.419 208.284 107.948 208.461 107.556 208.816C107.164 209.161 106.931 209.633 106.856 210.23H111.126ZM121.433 210.734C121.433 211.023 121.414 211.285 121.377 211.518H115.483C115.529 212.134 115.758 212.629 116.169 213.002C116.579 213.375 117.083 213.562 117.681 213.562C118.539 213.562 119.146 213.203 119.501 212.484H121.222C120.989 213.193 120.565 213.777 119.949 214.234C119.342 214.682 118.586 214.906 117.681 214.906C116.943 214.906 116.281 214.743 115.693 214.416C115.114 214.08 114.657 213.613 114.321 213.016C113.994 212.409 113.831 211.709 113.831 210.916C113.831 210.123 113.989 209.427 114.307 208.83C114.633 208.223 115.086 207.757 115.665 207.43C116.253 207.103 116.925 206.94 117.681 206.94C118.409 206.94 119.057 207.099 119.627 207.416C120.196 207.733 120.639 208.181 120.957 208.76C121.274 209.329 121.433 209.987 121.433 210.734ZM119.767 210.23C119.757 209.642 119.547 209.171 119.137 208.816C118.726 208.461 118.217 208.284 117.611 208.284C117.06 208.284 116.589 208.461 116.197 208.816C115.805 209.161 115.571 209.633 115.497 210.23H119.767Z" fill="#2E3740"/>
<path fill-rule="evenodd" clip-rule="evenodd" d="M0 234.78H335H0Z" stroke="#CBDCF6" stroke-linecap="round"/>
<path d="M2.646 256.05V265.78H1.05V256.05H2.646ZM8.63341 257.94C9.24007 257.94 9.78141 258.066 10.2574 258.318C10.7427 258.57 11.1207 258.943 11.3914 259.438C11.6621 259.933 11.7974 260.53 11.7974 261.23V265.78H10.2154V261.468C10.2154 260.777 10.0427 260.25 9.69741 259.886C9.35207 259.513 8.88074 259.326 8.28341 259.326C7.68607 259.326 7.21007 259.513 6.85541 259.886C6.51007 260.25 6.33741 260.777 6.33741 261.468V265.78H4.74141V258.066H6.33741V258.948C6.59874 258.631 6.93007 258.383 7.33141 258.206C7.74207 258.029 8.17607 257.94 8.63341 257.94ZM24.5119 258.85C24.2599 258.365 23.9099 258.001 23.4619 257.758C23.0139 257.506 22.4959 257.38 21.9079 257.38C21.2639 257.38 20.6899 257.525 20.1859 257.814C19.6819 258.103 19.2853 258.514 18.9959 259.046C18.7159 259.578 18.5759 260.194 18.5759 260.894C18.5759 261.594 18.7159 262.215 18.9959 262.756C19.2853 263.288 19.6819 263.699 20.1859 263.988C20.6899 264.277 21.2639 264.422 21.9079 264.422C22.7759 264.422 23.4806 264.179 24.0219 263.694C24.5633 263.209 24.8946 262.551 25.0159 261.72H21.3619V260.446H26.7239V261.692C26.6213 262.448 26.3506 263.143 25.9119 263.778C25.4826 264.413 24.9179 264.921 24.2179 265.304C23.5273 265.677 22.7573 265.864 21.9079 265.864C20.9933 265.864 20.1579 265.654 19.4019 265.234C18.6459 264.805 18.0439 264.212 17.5959 263.456C17.1573 262.7 16.9379 261.846 16.9379 260.894C16.9379 259.942 17.1573 259.088 17.5959 258.332C18.0439 257.576 18.6459 256.988 19.4019 256.568C20.1673 256.139 21.0026 255.924 21.9079 255.924C22.9439 255.924 23.8633 256.181 24.6659 256.694C25.4779 257.198 26.0659 257.917 26.4299 258.85H24.5119ZM29.894 259.186C30.1274 258.794 30.4354 258.491 30.818 258.276C31.21 258.052 31.672 257.94 32.204 257.94V259.592H31.798C31.1727 259.592 30.6967 259.751 30.37 260.068C30.0527 260.385 29.894 260.936 29.894 261.72V265.78H28.298V258.066H29.894V259.186ZM33.1391 261.888C33.1391 261.113 33.2978 260.427 33.6151 259.83C33.9418 259.233 34.3804 258.771 34.9311 258.444C35.4911 258.108 36.1071 257.94 36.7791 257.94C37.3858 257.94 37.9131 258.061 38.3611 258.304C38.8184 258.537 39.1824 258.831 39.4531 259.186V258.066H41.0631V265.78H39.4531V264.632C39.1824 264.996 38.8138 265.299 38.3471 265.542C37.8804 265.785 37.3484 265.906 36.7511 265.906C36.0884 265.906 35.4818 265.738 34.9311 265.402C34.3804 265.057 33.9418 264.581 33.6151 263.974C33.2978 263.358 33.1391 262.663 33.1391 261.888ZM39.4531 261.916C39.4531 261.384 39.3411 260.922 39.1171 260.53C38.9024 260.138 38.6178 259.839 38.2631 259.634C37.9084 259.429 37.5258 259.326 37.1151 259.326C36.7044 259.326 36.3218 259.429 35.9671 259.634C35.6124 259.83 35.3231 260.124 35.0991 260.516C34.8844 260.899 34.7771 261.356 34.7771 261.888C34.7771 262.42 34.8844 262.887 35.0991 263.288C35.3231 263.689 35.6124 263.997 35.9671 264.212C36.3311 264.417 36.7138 264.52 37.1151 264.52C37.5258 264.52 37.9084 264.417 38.2631 264.212C38.6178 264.007 38.9024 263.708 39.1171 263.316C39.3411 262.915 39.4531 262.448 39.4531 261.916ZM42.6274 261.888C42.6274 261.113 42.786 260.427 43.1034 259.83C43.43 259.233 43.8687 258.771 44.4194 258.444C44.9794 258.108 45.6 257.94 46.2814 257.94C46.7854 257.94 47.28 258.052 47.7654 258.276C48.26 258.491 48.652 258.78 48.9414 259.144V255.42H50.5514V265.78H48.9414V264.618C48.68 264.991 48.316 265.299 47.8494 265.542C47.392 265.785 46.8647 265.906 46.2674 265.906C45.5954 265.906 44.9794 265.738 44.4194 265.402C43.8687 265.057 43.43 264.581 43.1034 263.974C42.786 263.358 42.6274 262.663 42.6274 261.888ZM48.9414 261.916C48.9414 261.384 48.8294 260.922 48.6054 260.53C48.3907 260.138 48.106 259.839 47.7514 259.634C47.3967 259.429 47.014 259.326 46.6034 259.326C46.1927 259.326 45.81 259.429 45.4554 259.634C45.1007 259.83 44.8114 260.124 44.5874 260.516C44.3727 260.899 44.2654 261.356 44.2654 261.888C44.2654 262.42 44.3727 262.887 44.5874 263.288C44.8114 263.689 45.1007 263.997 45.4554 264.212C45.8194 264.417 46.202 264.52 46.6034 264.52C47.014 264.52 47.3967 264.417 47.7514 264.212C48.106 264.007 48.3907 263.708 48.6054 263.316C48.8294 262.915 48.9414 262.448 48.9414 261.916ZM59.4904 265.878C58.837 265.878 58.249 265.766 57.7264 265.542C57.2037 265.309 56.793 264.982 56.4944 264.562C56.1957 264.142 56.0464 263.652 56.0464 263.092H57.7544C57.7917 263.512 57.955 263.857 58.2444 264.128C58.543 264.399 58.9584 264.534 59.4904 264.534C60.041 264.534 60.4704 264.403 60.7784 264.142C61.0864 263.871 61.2404 263.526 61.2404 263.106C61.2404 262.779 61.1424 262.513 60.9464 262.308C60.7597 262.103 60.5217 261.944 60.2324 261.832C59.9524 261.72 59.5604 261.599 59.0564 261.468C58.4217 261.3 57.9037 261.132 57.5024 260.964C57.1104 260.787 56.7744 260.516 56.4944 260.152C56.2144 259.788 56.0744 259.303 56.0744 258.696C56.0744 258.136 56.2144 257.646 56.4944 257.226C56.7744 256.806 57.1664 256.484 57.6704 256.26C58.1744 256.036 58.7577 255.924 59.4204 255.924C60.363 255.924 61.133 256.162 61.7304 256.638C62.337 257.105 62.673 257.749 62.7384 258.57H60.9744C60.9464 258.215 60.7784 257.912 60.4704 257.66C60.1624 257.408 59.7564 257.282 59.2524 257.282C58.795 257.282 58.4217 257.399 58.1324 257.632C57.843 257.865 57.6984 258.201 57.6984 258.64C57.6984 258.939 57.787 259.186 57.9644 259.382C58.151 259.569 58.3844 259.718 58.6644 259.83C58.9444 259.942 59.327 260.063 59.8124 260.194C60.4564 260.371 60.979 260.549 61.3804 260.726C61.791 260.903 62.1364 261.179 62.4164 261.552C62.7057 261.916 62.8504 262.406 62.8504 263.022C62.8504 263.517 62.715 263.983 62.4444 264.422C62.183 264.861 61.7957 265.215 61.2824 265.486C60.7784 265.747 60.181 265.878 59.4904 265.878ZM64.2016 261.916C64.2016 261.123 64.3603 260.427 64.6776 259.83C65.0043 259.223 65.4523 258.757 66.0216 258.43C66.5909 258.103 67.2443 257.94 67.9816 257.94C68.9149 257.94 69.6849 258.164 70.2916 258.612C70.9076 259.051 71.3229 259.681 71.5376 260.502H69.8156C69.6756 260.119 69.4516 259.821 69.1436 259.606C68.8356 259.391 68.4483 259.284 67.9816 259.284C67.3283 259.284 66.8056 259.517 66.4136 259.984C66.0309 260.441 65.8396 261.085 65.8396 261.916C65.8396 262.747 66.0309 263.395 66.4136 263.862C66.8056 264.329 67.3283 264.562 67.9816 264.562C68.9056 264.562 69.5169 264.156 69.8156 263.344H71.5376C71.3136 264.128 70.8936 264.753 70.2776 265.22C69.6616 265.677 68.8963 265.906 67.9816 265.906C67.2443 265.906 66.5909 265.743 66.0216 265.416C65.4523 265.08 65.0043 264.613 64.6776 264.016C64.3603 263.409 64.2016 262.709 64.2016 261.916ZM77.1181 257.94C77.7061 257.94 78.2288 258.066 78.6861 258.318C79.1528 258.57 79.5168 258.943 79.7781 259.438C80.0488 259.933 80.1841 260.53 80.1841 261.23V265.78H78.6021V261.468C78.6021 260.777 78.4295 260.25 78.0841 259.886C77.7388 259.513 77.2675 259.326 76.6701 259.326C76.0728 259.326 75.5968 259.513 75.2421 259.886C74.8968 260.25 74.7241 260.777 74.7241 261.468V265.78H73.1281V255.42H74.7241V258.962C74.9948 258.635 75.3355 258.383 75.7461 258.206C76.1661 258.029 76.6235 257.94 77.1181 257.94ZM85.5659 265.906C84.8379 265.906 84.1799 265.743 83.5919 265.416C83.0039 265.08 82.5419 264.613 82.2059 264.016C81.8699 263.409 81.7019 262.709 81.7019 261.916C81.7019 261.132 81.8746 260.437 82.2199 259.83C82.5653 259.223 83.0366 258.757 83.6339 258.43C84.2313 258.103 84.8986 257.94 85.6359 257.94C86.3733 257.94 87.0406 258.103 87.6379 258.43C88.2353 258.757 88.7066 259.223 89.0519 259.83C89.3973 260.437 89.5699 261.132 89.5699 261.916C89.5699 262.7 89.3926 263.395 89.0379 264.002C88.6833 264.609 88.1979 265.08 87.5819 265.416C86.9753 265.743 86.3033 265.906 85.5659 265.906ZM85.5659 264.52C85.9766 264.52 86.3593 264.422 86.7139 264.226C87.0779 264.03 87.3719 263.736 87.5959 263.344C87.8199 262.952 87.9319 262.476 87.9319 261.916C87.9319 261.356 87.8246 260.885 87.6099 260.502C87.3953 260.11 87.1106 259.816 86.7559 259.62C86.4013 259.424 86.0186 259.326 85.6079 259.326C85.1973 259.326 84.8146 259.424 84.4599 259.62C84.1146 259.816 83.8393 260.11 83.6339 260.502C83.4286 260.885 83.3259 261.356 83.3259 261.916C83.3259 262.747 83.5359 263.391 83.9559 263.848C84.3853 264.296 84.9219 264.52 85.5659 264.52ZM94.4937 265.906C93.7657 265.906 93.1077 265.743 92.5197 265.416C91.9317 265.08 91.4697 264.613 91.1337 264.016C90.7977 263.409 90.6297 262.709 90.6297 261.916C90.6297 261.132 90.8023 260.437 91.1477 259.83C91.493 259.223 91.9643 258.757 92.5617 258.43C93.159 258.103 93.8263 257.94 94.5637 257.94C95.301 257.94 95.9683 258.103 96.5657 258.43C97.163 258.757 97.6343 259.223 97.9797 259.83C98.325 260.437 98.4977 261.132 98.4977 261.916C98.4977 262.7 98.3203 263.395 97.9657 264.002C97.611 264.609 97.1257 265.08 96.5097 265.416C95.903 265.743 95.231 265.906 94.4937 265.906ZM94.4937 264.52C94.9043 264.52 95.287 264.422 95.6417 264.226C96.0057 264.03 96.2997 263.736 96.5237 263.344C96.7477 262.952 96.8597 262.476 96.8597 261.916C96.8597 261.356 96.7523 260.885 96.5377 260.502C96.323 260.11 96.0383 259.816 95.6837 259.62C95.329 259.424 94.9463 259.326 94.5357 259.326C94.125 259.326 93.7423 259.424 93.3877 259.62C93.0423 259.816 92.767 260.11 92.5617 260.502C92.3563 260.885 92.2537 261.356 92.2537 261.916C92.2537 262.747 92.4637 263.391 92.8837 263.848C93.313 264.296 93.8497 264.52 94.4937 264.52ZM101.671 255.42V265.78H100.075V255.42H101.671Z" fill="#2E3740"/>
<path fill-rule="evenodd" clip-rule="evenodd" d="M0 285.78H335H0Z" stroke="#CBDCF6" stroke-linecap="round"/>
</g>
<path fill-rule="evenodd" clip-rule="evenodd" d="M331.108 3.35786L330.43 2.66313C330.403 2.63242 330.361 2.61707 330.322 2.61707C330.28 2.61707 330.241 2.63242 330.214 2.66313L325.513 7.38036L323.802 5.67617C323.771 5.64546 323.733 5.63011 323.694 5.63011C323.656 5.63011 323.617 5.64546 323.586 5.67617L322.9 6.35938C322.839 6.42079 322.839 6.51675 322.9 6.57816L325.058 8.72759C325.197 8.86577 325.366 8.94637 325.509 8.94637C325.713 8.94637 325.891 8.79668 325.956 8.73526C325.956 8.73526 325.956 8.73526 325.96 8.73526L331.112 3.57663C331.166 3.51138 331.166 3.41542 331.108 3.35785L331.108 3.35786Z" fill="#0668FC"/>
<path fill-rule="evenodd" clip-rule="evenodd" d="M331.108 155.358L330.43 154.663C330.403 154.632 330.361 154.617 330.322 154.617C330.28 154.617 330.241 154.632 330.214 154.663L325.513 159.38L323.802 157.676C323.771 157.645 323.733 157.63 323.694 157.63C323.656 157.63 323.617 157.645 323.586 157.676L322.9 158.359C322.839 158.421 322.839 158.517 322.9 158.578L325.058 160.728C325.197 160.866 325.366 160.946 325.509 160.946C325.713 160.946 325.891 160.797 325.956 160.735C325.956 160.735 325.956 160.735 325.96 160.735L331.112 155.577C331.166 155.511 331.166 155.415 331.108 155.358L331.108 155.358Z" fill="#0668FC"/>
</svg>
